G04*
G04 #@! TF.GenerationSoftware,Altium Limited,Altium Designer,24.7.2 (38)*
G04*
G04 Layer_Physical_Order=4*
G04 Layer_Color=16711680*
%FSLAX44Y44*%
%MOMM*%
G71*
G04*
G04 #@! TF.SameCoordinates,1D9A9799-C8E3-4473-89B4-75341A8A5718*
G04*
G04*
G04 #@! TF.FilePolarity,Positive*
G04*
G01*
G75*
%ADD15C,0.2540*%
%ADD57R,2.1500X2.1500*%
%ADD58C,2.1500*%
%ADD59C,0.6500*%
G04:AMPARAMS|DCode=60|XSize=0.95mm|YSize=0.65mm|CornerRadius=0.325mm|HoleSize=0mm|Usage=FLASHONLY|Rotation=270.000|XOffset=0mm|YOffset=0mm|HoleType=Round|Shape=RoundedRectangle|*
%AMROUNDEDRECTD60*
21,1,0.9500,0.0000,0,0,270.0*
21,1,0.3000,0.6500,0,0,270.0*
1,1,0.6500,0.0000,-0.1500*
1,1,0.6500,0.0000,0.1500*
1,1,0.6500,0.0000,0.1500*
1,1,0.6500,0.0000,-0.1500*
%
%ADD60ROUNDEDRECTD60*%
G04:AMPARAMS|DCode=61|XSize=0.8mm|YSize=1.4mm|CornerRadius=0.4mm|HoleSize=0mm|Usage=FLASHONLY|Rotation=270.000|XOffset=0mm|YOffset=0mm|HoleType=Round|Shape=RoundedRectangle|*
%AMROUNDEDRECTD61*
21,1,0.8000,0.6000,0,0,270.0*
21,1,0.0000,1.4000,0,0,270.0*
1,1,0.8000,-0.3000,0.0000*
1,1,0.8000,-0.3000,0.0000*
1,1,0.8000,0.3000,0.0000*
1,1,0.8000,0.3000,0.0000*
%
%ADD61ROUNDEDRECTD61*%
%ADD67C,0.2032*%
%ADD68C,0.5080*%
%ADD70C,0.1778*%
%ADD71C,1.5000*%
%ADD72R,1.5000X1.5000*%
%ADD73C,1.3700*%
%ADD74R,1.3700X1.3700*%
%ADD75C,0.7620*%
%ADD76C,1.0160*%
%ADD77C,1.2700*%
G36*
X137764Y36768D02*
X137429Y36383D01*
X137131Y35935D01*
X136869Y35424D01*
X136643Y34849D01*
X136454Y34211D01*
X136300Y33510D01*
X136183Y32745D01*
X136102Y31916D01*
X136050Y30069D01*
X129269Y36850D01*
X130224Y36858D01*
X131945Y36983D01*
X132710Y37100D01*
X133411Y37253D01*
X134049Y37443D01*
X134624Y37669D01*
X135135Y37931D01*
X135583Y38229D01*
X135968Y38564D01*
X137764Y36768D01*
D02*
G37*
G36*
X163164D02*
X162829Y36383D01*
X162531Y35935D01*
X162269Y35424D01*
X162043Y34849D01*
X161854Y34211D01*
X161700Y33510D01*
X161583Y32745D01*
X161502Y31916D01*
X161450Y30069D01*
X154669Y36850D01*
X155624Y36858D01*
X157345Y36983D01*
X158110Y37100D01*
X158811Y37253D01*
X159449Y37443D01*
X160024Y37669D01*
X160536Y37931D01*
X160983Y38229D01*
X161368Y38564D01*
X163164Y36768D01*
D02*
G37*
G36*
X188564D02*
X188229Y36383D01*
X187931Y35935D01*
X187669Y35424D01*
X187443Y34849D01*
X187253Y34211D01*
X187100Y33510D01*
X186983Y32745D01*
X186902Y31916D01*
X186850Y30069D01*
X180068Y36850D01*
X181024Y36858D01*
X182745Y36983D01*
X183510Y37100D01*
X184211Y37253D01*
X184849Y37443D01*
X185424Y37669D01*
X185935Y37931D01*
X186383Y38229D01*
X186768Y38564D01*
X188564Y36768D01*
D02*
G37*
G36*
X213964D02*
X213629Y36383D01*
X213331Y35935D01*
X213069Y35424D01*
X212843Y34849D01*
X212654Y34211D01*
X212500Y33510D01*
X212383Y32745D01*
X212302Y31916D01*
X212250Y30069D01*
X205469Y36850D01*
X206424Y36858D01*
X208144Y36983D01*
X208910Y37100D01*
X209611Y37253D01*
X210249Y37443D01*
X210824Y37669D01*
X211336Y37931D01*
X211783Y38229D01*
X212168Y38564D01*
X213964Y36768D01*
D02*
G37*
G36*
X238739Y37553D02*
X238386Y37147D01*
X238086Y36687D01*
X237838Y36173D01*
X237642Y35605D01*
X237498Y34983D01*
X237407Y34308D01*
X237369Y33578D01*
X237382Y32794D01*
X237448Y31956D01*
X237567Y31065D01*
X229871Y36787D01*
X230879Y36938D01*
X233467Y37497D01*
X234184Y37718D01*
X234828Y37956D01*
X235399Y38211D01*
X235897Y38483D01*
X236322Y38773D01*
X236674Y39080D01*
X238739Y37553D01*
D02*
G37*
G36*
X264764Y36768D02*
X264429Y36383D01*
X264131Y35935D01*
X263869Y35424D01*
X263643Y34849D01*
X263454Y34211D01*
X263300Y33510D01*
X263183Y32745D01*
X263102Y31916D01*
X263050Y30069D01*
X256269Y36850D01*
X257224Y36858D01*
X258944Y36983D01*
X259710Y37100D01*
X260411Y37253D01*
X261049Y37443D01*
X261624Y37669D01*
X262136Y37931D01*
X262583Y38229D01*
X262968Y38564D01*
X264764Y36768D01*
D02*
G37*
G36*
X290164D02*
X289829Y36383D01*
X289531Y35935D01*
X289269Y35424D01*
X289043Y34849D01*
X288853Y34211D01*
X288700Y33510D01*
X288583Y32745D01*
X288502Y31916D01*
X288450Y30069D01*
X281668Y36850D01*
X282624Y36858D01*
X284345Y36983D01*
X285110Y37100D01*
X285811Y37253D01*
X286449Y37443D01*
X287024Y37669D01*
X287535Y37931D01*
X287983Y38229D01*
X288368Y38564D01*
X290164Y36768D01*
D02*
G37*
G36*
X315564D02*
X315229Y36383D01*
X314931Y35935D01*
X314669Y35424D01*
X314443Y34849D01*
X314254Y34211D01*
X314100Y33510D01*
X313983Y32745D01*
X313902Y31916D01*
X313850Y30069D01*
X307069Y36850D01*
X308024Y36858D01*
X309744Y36983D01*
X310510Y37100D01*
X311211Y37253D01*
X311849Y37443D01*
X312424Y37669D01*
X312936Y37931D01*
X313383Y38229D01*
X313768Y38564D01*
X315564Y36768D01*
D02*
G37*
G36*
X366364D02*
X366029Y36383D01*
X365731Y35935D01*
X365469Y35424D01*
X365243Y34849D01*
X365053Y34211D01*
X364900Y33510D01*
X364783Y32745D01*
X364702Y31916D01*
X364650Y30069D01*
X357868Y36850D01*
X358824Y36858D01*
X360545Y36983D01*
X361310Y37100D01*
X362011Y37253D01*
X362649Y37443D01*
X363224Y37669D01*
X363736Y37931D01*
X364183Y38229D01*
X364568Y38564D01*
X366364Y36768D01*
D02*
G37*
G36*
X392000Y36398D02*
X391675Y36026D01*
X391380Y35586D01*
X391112Y35079D01*
X390874Y34504D01*
X390664Y33862D01*
X390482Y33153D01*
X390329Y32376D01*
X390108Y30619D01*
X390041Y29640D01*
X383697Y36832D01*
X384626Y36784D01*
X386307Y36818D01*
X387058Y36901D01*
X387750Y37027D01*
X388383Y37196D01*
X388956Y37409D01*
X389469Y37665D01*
X389923Y37965D01*
X390318Y38308D01*
X392000Y36398D01*
D02*
G37*
G36*
X417164Y36768D02*
X416829Y36383D01*
X416531Y35935D01*
X416269Y35424D01*
X416043Y34849D01*
X415854Y34211D01*
X415700Y33510D01*
X415583Y32745D01*
X415502Y31916D01*
X415450Y30069D01*
X408669Y36850D01*
X409624Y36858D01*
X411344Y36983D01*
X412110Y37100D01*
X412811Y37253D01*
X413449Y37443D01*
X414024Y37669D01*
X414535Y37931D01*
X414983Y38229D01*
X415368Y38564D01*
X417164Y36768D01*
D02*
G37*
G36*
X442564D02*
X442229Y36383D01*
X441931Y35935D01*
X441669Y35424D01*
X441443Y34849D01*
X441254Y34211D01*
X441100Y33510D01*
X440983Y32745D01*
X440902Y31916D01*
X440850Y30069D01*
X434068Y36850D01*
X435024Y36858D01*
X436744Y36983D01*
X437510Y37100D01*
X438211Y37253D01*
X438849Y37443D01*
X439424Y37669D01*
X439935Y37931D01*
X440383Y38229D01*
X440768Y38564D01*
X442564Y36768D01*
D02*
G37*
G36*
X466688Y38172D02*
X466323Y37752D01*
X466023Y37288D01*
X465788Y36778D01*
X465618Y36224D01*
X465513Y35626D01*
X465474Y34982D01*
X465499Y34294D01*
X465588Y33561D01*
X465743Y32783D01*
X465963Y31961D01*
X457571Y36601D01*
X458623Y36902D01*
X462004Y38069D01*
X462642Y38351D01*
X463669Y38903D01*
X464058Y39173D01*
X464364Y39440D01*
X466688Y38172D01*
D02*
G37*
G36*
X148590Y469588D02*
X148567Y470251D01*
X148500Y470890D01*
X148387Y471506D01*
X148229Y472098D01*
X148026Y472668D01*
X147778Y473214D01*
X147485Y473738D01*
X147147Y474238D01*
X146763Y474715D01*
X146335Y475168D01*
X155925D01*
X155497Y474715D01*
X155113Y474238D01*
X154775Y473738D01*
X154482Y473214D01*
X154234Y472668D01*
X154031Y472098D01*
X153873Y471506D01*
X153760Y470890D01*
X153693Y470251D01*
X153670Y469588D01*
X148590D01*
D02*
G37*
G36*
X208698Y471496D02*
X208313Y471831D01*
X207866Y472129D01*
X207354Y472391D01*
X206779Y472617D01*
X206141Y472806D01*
X205440Y472960D01*
X204674Y473077D01*
X203846Y473158D01*
X201999Y473210D01*
X208780Y479991D01*
X208788Y479036D01*
X208913Y477315D01*
X209030Y476550D01*
X209184Y475849D01*
X209373Y475211D01*
X209599Y474636D01*
X209861Y474124D01*
X210159Y473677D01*
X210494Y473292D01*
X208698Y471496D01*
D02*
G37*
G36*
X234098D02*
X233713Y471831D01*
X233265Y472129D01*
X232754Y472391D01*
X232179Y472617D01*
X231541Y472806D01*
X230840Y472960D01*
X230075Y473077D01*
X229246Y473158D01*
X227398Y473210D01*
X234180Y479991D01*
X234188Y479036D01*
X234313Y477315D01*
X234430Y476550D01*
X234584Y475849D01*
X234773Y475211D01*
X234999Y474636D01*
X235261Y474124D01*
X235559Y473677D01*
X235894Y473292D01*
X234098Y471496D01*
D02*
G37*
G36*
X259498D02*
X259113Y471831D01*
X258666Y472129D01*
X258154Y472391D01*
X257579Y472617D01*
X256941Y472806D01*
X256240Y472960D01*
X255474Y473077D01*
X254646Y473158D01*
X252799Y473210D01*
X259580Y479991D01*
X259588Y479036D01*
X259713Y477315D01*
X259830Y476550D01*
X259984Y475849D01*
X260173Y475211D01*
X260399Y474636D01*
X260661Y474124D01*
X260959Y473677D01*
X261294Y473292D01*
X259498Y471496D01*
D02*
G37*
G36*
X284898D02*
X284513Y471831D01*
X284065Y472129D01*
X283554Y472391D01*
X282979Y472617D01*
X282341Y472806D01*
X281640Y472960D01*
X280875Y473077D01*
X280046Y473158D01*
X278199Y473210D01*
X284980Y479991D01*
X284988Y479036D01*
X285113Y477315D01*
X285230Y476550D01*
X285384Y475849D01*
X285573Y475211D01*
X285799Y474636D01*
X286061Y474124D01*
X286359Y473677D01*
X286694Y473292D01*
X284898Y471496D01*
D02*
G37*
G36*
X310298D02*
X309913Y471831D01*
X309466Y472129D01*
X308954Y472391D01*
X308379Y472617D01*
X307741Y472806D01*
X307040Y472960D01*
X306275Y473077D01*
X305446Y473158D01*
X303598Y473210D01*
X310380Y479991D01*
X310388Y479036D01*
X310513Y477315D01*
X310630Y476550D01*
X310784Y475849D01*
X310973Y475211D01*
X311199Y474636D01*
X311461Y474124D01*
X311759Y473677D01*
X312094Y473292D01*
X310298Y471496D01*
D02*
G37*
G36*
X335698D02*
X335313Y471831D01*
X334865Y472129D01*
X334354Y472391D01*
X333779Y472617D01*
X333141Y472806D01*
X332440Y472960D01*
X331674Y473077D01*
X330846Y473158D01*
X328998Y473210D01*
X335780Y479991D01*
X335788Y479036D01*
X335913Y477315D01*
X336030Y476550D01*
X336184Y475849D01*
X336373Y475211D01*
X336599Y474636D01*
X336861Y474124D01*
X337159Y473677D01*
X337494Y473292D01*
X335698Y471496D01*
D02*
G37*
G36*
X361098D02*
X360713Y471831D01*
X360266Y472129D01*
X359754Y472391D01*
X359179Y472617D01*
X358541Y472806D01*
X357840Y472960D01*
X357075Y473077D01*
X356246Y473158D01*
X354398Y473210D01*
X361180Y479991D01*
X361188Y479036D01*
X361313Y477315D01*
X361430Y476550D01*
X361584Y475849D01*
X361773Y475211D01*
X361999Y474636D01*
X362261Y474124D01*
X362559Y473677D01*
X362894Y473292D01*
X361098Y471496D01*
D02*
G37*
G36*
X386498D02*
X386113Y471831D01*
X385666Y472129D01*
X385154Y472391D01*
X384579Y472617D01*
X383941Y472806D01*
X383240Y472960D01*
X382475Y473077D01*
X381646Y473158D01*
X379799Y473210D01*
X386580Y479991D01*
X386588Y479036D01*
X386713Y477315D01*
X386830Y476550D01*
X386984Y475849D01*
X387173Y475211D01*
X387399Y474636D01*
X387661Y474124D01*
X387959Y473677D01*
X388294Y473292D01*
X386498Y471496D01*
D02*
G37*
G36*
X411898D02*
X411513Y471831D01*
X411065Y472129D01*
X410554Y472391D01*
X409979Y472617D01*
X409341Y472806D01*
X408640Y472960D01*
X407874Y473077D01*
X407046Y473158D01*
X405199Y473210D01*
X411980Y479991D01*
X411988Y479036D01*
X412113Y477315D01*
X412230Y476550D01*
X412384Y475849D01*
X412573Y475211D01*
X412799Y474636D01*
X413061Y474124D01*
X413359Y473677D01*
X413694Y473292D01*
X411898Y471496D01*
D02*
G37*
G36*
X437298D02*
X436913Y471831D01*
X436465Y472129D01*
X435954Y472391D01*
X435379Y472617D01*
X434741Y472806D01*
X434040Y472960D01*
X433274Y473077D01*
X432446Y473158D01*
X430598Y473210D01*
X437380Y479991D01*
X437388Y479036D01*
X437513Y477315D01*
X437630Y476550D01*
X437784Y475849D01*
X437973Y475211D01*
X438199Y474636D01*
X438461Y474124D01*
X438759Y473677D01*
X439094Y473292D01*
X437298Y471496D01*
D02*
G37*
G36*
X461849Y471002D02*
X461495Y471310D01*
X461068Y471601D01*
X460570Y471873D01*
X459998Y472127D01*
X459354Y472362D01*
X458638Y472580D01*
X456988Y472960D01*
X456054Y473122D01*
X455048Y473267D01*
X462704Y479042D01*
X462591Y478147D01*
X462530Y477307D01*
X462521Y476521D01*
X462563Y475789D01*
X462657Y475112D01*
X462802Y474489D01*
X463000Y473921D01*
X463248Y473406D01*
X463549Y472947D01*
X463901Y472542D01*
X461849Y471002D01*
D02*
G37*
G36*
X493229Y483870D02*
X492261Y483845D01*
X491394Y483768D01*
X490629Y483641D01*
X489966Y483464D01*
X489404Y483235D01*
X488943Y482956D01*
X488585Y482625D01*
X488328Y482244D01*
X488173Y481813D01*
X488119Y481330D01*
X488149Y486880D01*
X488200Y487273D01*
X488353Y487625D01*
X488607Y487935D01*
X488962Y488205D01*
X489420Y488432D01*
X489978Y488619D01*
X490639Y488764D01*
X491401Y488867D01*
X492264Y488929D01*
X493229Y488950D01*
Y483870D01*
D02*
G37*
D15*
X410251Y56445D02*
X410857D01*
Y57656D02*
X438290Y85090D01*
X410857Y56445D02*
Y57656D01*
X383806Y30000D02*
X410251Y56445D01*
X408600Y30000D02*
X435045Y56445D01*
X440830Y62230D01*
X617220D01*
X383200Y30000D02*
X383806D01*
X482680Y364490D02*
X563880D01*
X414020Y295830D02*
X482680Y364490D01*
X563880D02*
X575310Y353060D01*
X438290Y85090D02*
X627380D01*
X689610Y147320D01*
X447453Y92710D02*
X618230D01*
X420510D02*
X447453D01*
X458610Y54610D02*
X622300D01*
X434000Y30000D02*
X458610Y54610D01*
X582825Y143510D02*
X586635Y147320D01*
X180000Y30000D02*
X293510Y143510D01*
X582825D01*
X604520Y113030D02*
X638810Y147320D01*
X281600Y30000D02*
X364630Y113030D01*
X604520D01*
X676307Y146717D02*
X676910Y147320D01*
X618230Y92710D02*
X672237Y146717D01*
X676307D01*
X129200Y30000D02*
X304940Y205740D01*
X547370D01*
X604520Y463550D02*
X664210Y403860D01*
X715010Y353060D01*
X471097Y463550D02*
X604520D01*
X449580Y338836D02*
Y345440D01*
X446104Y335360D02*
X449580Y338836D01*
X374570Y335360D02*
X446104D01*
X370840Y339090D02*
X374570Y335360D01*
X370840Y339090D02*
Y354330D01*
X401491Y149860D02*
X575310D01*
X274460D02*
X401491D01*
X154600Y30000D02*
X274460Y149860D01*
X626110Y45720D02*
X727710Y147320D01*
X472440Y45720D02*
X626110D01*
X622300Y54610D02*
X715010Y147320D01*
X459400Y32680D02*
X472440Y45720D01*
X586635Y147320D02*
X588010D01*
X205400Y30000D02*
X311290Y135890D01*
X589280D01*
X600710Y147320D01*
X230800Y30000D02*
Y31410D01*
X327660Y128270D02*
X594360D01*
X230800Y31410D02*
X327660Y128270D01*
X594360D02*
X613410Y147320D01*
X256200Y30000D02*
X346850Y120650D01*
X599440D01*
X626110Y147320D01*
X382410Y105410D02*
X609600D01*
X307000Y30000D02*
X382410Y105410D01*
X609600D02*
X651510Y147320D01*
X357800Y30000D02*
X420510Y92710D01*
X617220Y62230D02*
X702310Y147320D01*
X459400Y30000D02*
Y32680D01*
X309880Y372110D02*
X568960D01*
X201930Y480060D02*
X309880Y372110D01*
X568960D02*
X588010Y353060D01*
X227330Y480060D02*
X327660Y379730D01*
X574040D01*
X600710Y353060D01*
X345440Y387350D02*
X579120D01*
X252730Y480060D02*
X345440Y387350D01*
X579120D02*
X613410Y353060D01*
X278130Y480060D02*
X363220Y394970D01*
X584200D01*
X626110Y353060D01*
X303530Y480060D02*
X381000Y402590D01*
X589280D01*
X638810Y353060D01*
X328930Y480060D02*
X398780Y410210D01*
X594360D01*
X651510Y353060D01*
X354330Y480060D02*
X416560Y417830D01*
X434340Y425450D02*
X604520D01*
X676910Y353060D01*
X416560Y417830D02*
X599440D01*
X664210Y353060D01*
X379730Y480060D02*
X434340Y425450D01*
X405130Y480060D02*
X436880Y448310D01*
X594360D01*
X689610Y353060D01*
X454660Y455930D02*
X599440D01*
X430530Y480060D02*
X454660Y455930D01*
X599440D02*
X702310Y353060D01*
X455930Y478717D02*
X471097Y463550D01*
X455930Y478717D02*
Y480060D01*
D57*
X103030Y125730D02*
D03*
D58*
X77630D02*
D03*
X52230D02*
D03*
D59*
X103650Y416000D02*
D03*
D60*
Y344000D02*
D03*
D61*
X91150Y421300D02*
D03*
Y338700D02*
D03*
X31650Y424900D02*
D03*
Y335100D02*
D03*
D67*
X225129Y179070D02*
Y385810D01*
X235830Y400050D02*
X271141D01*
D68*
X481330Y480060D02*
X487680Y486410D01*
X506730D01*
X151130Y454660D02*
Y480060D01*
X516504Y471174D02*
X526300Y480970D01*
X508634Y471174D02*
X516504D01*
X508630Y471170D02*
X508634Y471174D01*
X91295Y436775D02*
X91440Y436920D01*
X91150Y421300D02*
X91295Y421445D01*
D70*
X199448Y179209D02*
Y401286D01*
X199310Y179070D02*
X199448Y179209D01*
Y401286D02*
X199587Y401424D01*
X228600Y408940D02*
X261620D01*
D71*
X526300Y435970D02*
D03*
X591300D02*
D03*
Y480970D02*
D03*
X584430Y72940D02*
D03*
X519430D02*
D03*
Y27940D02*
D03*
D72*
X526300Y480970D02*
D03*
X584430Y27940D02*
D03*
D73*
X27600Y30000D02*
D03*
X53000D02*
D03*
X78400D02*
D03*
X103800D02*
D03*
X129200D02*
D03*
X154600D02*
D03*
X180000D02*
D03*
X205400D02*
D03*
X230800D02*
D03*
X256200D02*
D03*
X281600D02*
D03*
X307000D02*
D03*
X332400D02*
D03*
X357800D02*
D03*
X383200D02*
D03*
X408600D02*
D03*
X434000D02*
D03*
X459400D02*
D03*
X24130Y480060D02*
D03*
X49530D02*
D03*
X74930D02*
D03*
X100330D02*
D03*
X125730D02*
D03*
X151130D02*
D03*
X176530D02*
D03*
X201930D02*
D03*
X227330D02*
D03*
X252730D02*
D03*
X278130D02*
D03*
X303530D02*
D03*
X328930D02*
D03*
X354330D02*
D03*
X379730D02*
D03*
X405130D02*
D03*
X430530D02*
D03*
X455930D02*
D03*
D74*
X484800Y30000D02*
D03*
X481330Y480060D02*
D03*
D75*
X662940Y251320D02*
D03*
X676910D02*
D03*
Y265430D02*
D03*
Y279400D02*
D03*
X662940D02*
D03*
Y265320D02*
D03*
X648970Y251320D02*
D03*
Y265320D02*
D03*
X649210Y279320D02*
D03*
X269332Y359614D02*
D03*
X280962Y349614D02*
D03*
X259104Y349729D02*
D03*
X280962Y370540D02*
D03*
X259230Y370459D02*
D03*
X184150Y260350D02*
D03*
X213360D02*
D03*
Y317500D02*
D03*
X160020Y304800D02*
D03*
X499110Y269240D02*
D03*
X468084Y303530D02*
D03*
X436880Y299720D02*
D03*
X414020Y295830D02*
D03*
X537210Y307340D02*
D03*
X631056Y30480D02*
D03*
Y8123D02*
D03*
X506730Y486410D02*
D03*
X734141Y442203D02*
D03*
X664210Y147320D02*
D03*
X231798Y366810D02*
D03*
X468330Y219710D02*
D03*
X68580Y324240D02*
D03*
X716280Y43590D02*
D03*
X584430Y6350D02*
D03*
X485140D02*
D03*
X73660Y439420D02*
D03*
X129540Y353361D02*
D03*
Y407500D02*
D03*
X163220Y427250D02*
D03*
X661670Y407670D02*
D03*
X500380Y345440D02*
D03*
X508630Y471170D02*
D03*
X449580Y345440D02*
D03*
X370840Y354330D02*
D03*
X401491Y149860D02*
D03*
X199310Y179070D02*
D03*
X225129D02*
D03*
X199587Y401424D02*
D03*
X225129Y385810D02*
D03*
X235830Y400050D02*
D03*
X228600Y408940D02*
D03*
X271141Y400050D02*
D03*
X261620Y408940D02*
D03*
X91440Y436920D02*
D03*
X544830Y99060D02*
D03*
X532130Y156210D02*
D03*
X742950Y22225D02*
D03*
X575310Y149860D02*
D03*
X505460Y160020D02*
D03*
X547370Y205740D02*
D03*
X588010Y147320D02*
D03*
X600710D02*
D03*
X613410D02*
D03*
X626110D02*
D03*
X638810D02*
D03*
X651510D02*
D03*
X676910D02*
D03*
X689610D02*
D03*
X702310D02*
D03*
X715010D02*
D03*
X727710D02*
D03*
X740410D02*
D03*
X676910Y353060D02*
D03*
X638810D02*
D03*
X651510D02*
D03*
X664210D02*
D03*
X626110D02*
D03*
X613410D02*
D03*
X689610D02*
D03*
X702310D02*
D03*
X715010D02*
D03*
X575310D02*
D03*
X600710D02*
D03*
X588010D02*
D03*
D76*
X151130Y454660D02*
D03*
X6350Y71120D02*
D03*
X410857Y56445D02*
D03*
X435045D02*
D03*
X363220Y257810D02*
D03*
X447453Y92710D02*
D03*
X458610Y53340D02*
D03*
X735330Y467360D02*
D03*
X613410Y72940D02*
D03*
X97720Y280670D02*
D03*
X735670Y101440D02*
D03*
X329321Y9395D02*
D03*
X146050Y60960D02*
D03*
X8890Y311150D02*
D03*
X52070Y156210D02*
D03*
X659130Y450850D02*
D03*
X684530Y448894D02*
D03*
X144116Y232983D02*
D03*
X320040Y259080D02*
D03*
X276860Y259080D02*
D03*
X111125Y182343D02*
D03*
X186690Y317500D02*
D03*
D77*
Y364490D02*
D03*
M02*
