G04*
G04 #@! TF.GenerationSoftware,Altium Limited,Altium Designer,24.7.2 (38)*
G04*
G04 Layer_Color=128*
%FSLAX44Y44*%
%MOMM*%
G71*
G04*
G04 #@! TF.SameCoordinates,1D9A9799-C8E3-4473-89B4-75341A8A5718*
G04*
G04*
G04 #@! TF.FilePolarity,Positive*
G04*
G01*
G75*
%ADD98C,0.1270*%
D98*
X521300Y435970D02*
X531300D01*
X526300Y430970D02*
Y440970D01*
X586300Y435970D02*
X596300D01*
X591300Y430970D02*
Y440970D01*
X586300Y480970D02*
X596300D01*
X591300Y475970D02*
Y485970D01*
X521300Y480970D02*
X531300D01*
X526300Y475970D02*
Y485970D01*
X96030Y125730D02*
X110030D01*
X103030Y118730D02*
Y132730D01*
X70630Y125730D02*
X84630D01*
X77630Y118730D02*
Y132730D01*
X45230Y125730D02*
X59230D01*
X52230Y118730D02*
Y132730D01*
X100400Y416000D02*
X106900D01*
X103650Y412750D02*
Y419250D01*
X100400Y344000D02*
X106900D01*
X103650Y340750D02*
Y347250D01*
X85650Y421300D02*
X96650D01*
X91150Y415800D02*
Y426800D01*
X85650Y338700D02*
X96650D01*
X91150Y333200D02*
Y344200D01*
X26150Y424900D02*
X37150D01*
X31650Y419400D02*
Y430400D01*
X26150Y335100D02*
X37150D01*
X31650Y329600D02*
Y340600D01*
X22500Y30000D02*
X32700D01*
X27600Y24900D02*
Y35100D01*
X47900Y30000D02*
X58100D01*
X53000Y24900D02*
Y35100D01*
X73300Y30000D02*
X83500D01*
X78400Y24900D02*
Y35100D01*
X98700Y30000D02*
X108900D01*
X103800Y24900D02*
Y35100D01*
X124100Y30000D02*
X134300D01*
X129200Y24900D02*
Y35100D01*
X149500Y30000D02*
X159700D01*
X154600Y24900D02*
Y35100D01*
X174900Y30000D02*
X185100D01*
X180000Y24900D02*
Y35100D01*
X200300Y30000D02*
X210500D01*
X205400Y24900D02*
Y35100D01*
X225700Y30000D02*
X235900D01*
X230800Y24900D02*
Y35100D01*
X251100Y30000D02*
X261300D01*
X256200Y24900D02*
Y35100D01*
X276500Y30000D02*
X286700D01*
X281600Y24900D02*
Y35100D01*
X301900Y30000D02*
X312100D01*
X307000Y24900D02*
Y35100D01*
X327300Y30000D02*
X337500D01*
X332400Y24900D02*
Y35100D01*
X352700Y30000D02*
X362900D01*
X357800Y24900D02*
Y35100D01*
X378100Y30000D02*
X388300D01*
X383200Y24900D02*
Y35100D01*
X403500Y30000D02*
X413700D01*
X408600Y24900D02*
Y35100D01*
X428900Y30000D02*
X439100D01*
X434000Y24900D02*
Y35100D01*
X454300Y30000D02*
X464500D01*
X459400Y24900D02*
Y35100D01*
X479700Y30000D02*
X489900D01*
X484800Y24900D02*
Y35100D01*
X19030Y480060D02*
X29230D01*
X24130Y474960D02*
Y485160D01*
X44430Y480060D02*
X54630D01*
X49530Y474960D02*
Y485160D01*
X69830Y480060D02*
X80030D01*
X74930Y474960D02*
Y485160D01*
X95230Y480060D02*
X105430D01*
X100330Y474960D02*
Y485160D01*
X120630Y480060D02*
X130830D01*
X125730Y474960D02*
Y485160D01*
X146030Y480060D02*
X156230D01*
X151130Y474960D02*
Y485160D01*
X171430Y480060D02*
X181630D01*
X176530Y474960D02*
Y485160D01*
X196830Y480060D02*
X207030D01*
X201930Y474960D02*
Y485160D01*
X222230Y480060D02*
X232430D01*
X227330Y474960D02*
Y485160D01*
X247630Y480060D02*
X257830D01*
X252730Y474960D02*
Y485160D01*
X273030Y480060D02*
X283230D01*
X278130Y474960D02*
Y485160D01*
X298430Y480060D02*
X308630D01*
X303530Y474960D02*
Y485160D01*
X323830Y480060D02*
X334030D01*
X328930Y474960D02*
Y485160D01*
X349230Y480060D02*
X359430D01*
X354330Y474960D02*
Y485160D01*
X374630Y480060D02*
X384830D01*
X379730Y474960D02*
Y485160D01*
X400030Y480060D02*
X410230D01*
X405130Y474960D02*
Y485160D01*
X425430Y480060D02*
X435630D01*
X430530Y474960D02*
Y485160D01*
X450830Y480060D02*
X461030D01*
X455930Y474960D02*
Y485160D01*
X476230Y480060D02*
X486430D01*
X481330Y474960D02*
Y485160D01*
X579430Y72940D02*
X589430D01*
X584430Y67940D02*
Y77940D01*
X514430Y72940D02*
X524430D01*
X519430Y67940D02*
Y77940D01*
X514430Y27940D02*
X524430D01*
X519430Y22940D02*
Y32940D01*
X579430Y27940D02*
X589430D01*
X584430Y22940D02*
Y32940D01*
X661670Y251320D02*
X664210D01*
X662940Y250050D02*
Y252590D01*
X675640Y251320D02*
X678180D01*
X676910Y250050D02*
Y252590D01*
X675640Y265430D02*
X678180D01*
X676910Y264160D02*
Y266700D01*
X675640Y279400D02*
X678180D01*
X676910Y278130D02*
Y280670D01*
X661670Y279400D02*
X664210D01*
X662940Y278130D02*
Y280670D01*
X661670Y265320D02*
X664210D01*
X662940Y264050D02*
Y266590D01*
X647700Y251320D02*
X650240D01*
X648970Y250050D02*
Y252590D01*
X647700Y265320D02*
X650240D01*
X648970Y264050D02*
Y266590D01*
X647940Y279320D02*
X650480D01*
X649210Y278050D02*
Y280590D01*
X268062Y359614D02*
X270602D01*
X269332Y358344D02*
Y360884D01*
X279692Y349614D02*
X282232D01*
X280962Y348344D02*
Y350884D01*
X257834Y349729D02*
X260374D01*
X259104Y348459D02*
Y350998D01*
X279692Y370540D02*
X282232D01*
X280962Y369270D02*
Y371810D01*
X257960Y370459D02*
X260500D01*
X259230Y369189D02*
Y371729D01*
X148844Y454660D02*
X153416D01*
X151130Y452374D02*
Y456946D01*
X2540Y71120D02*
X10160D01*
X6350Y67310D02*
Y74930D01*
X181864Y260350D02*
X186436D01*
X184150Y258064D02*
Y262636D01*
X211074Y260350D02*
X215646D01*
X213360Y258064D02*
Y262636D01*
X211074Y317500D02*
X215646D01*
X213360Y315214D02*
Y319786D01*
X157734Y304800D02*
X162306D01*
X160020Y302514D02*
Y307086D01*
X408316Y56445D02*
X413396D01*
X410857Y53905D02*
Y58985D01*
X432505Y56445D02*
X437585D01*
X435045Y53905D02*
Y58985D01*
X496824Y269240D02*
X501396D01*
X499110Y266954D02*
Y271526D01*
X359410Y257810D02*
X367030D01*
X363220Y254000D02*
Y261620D01*
X465798Y303530D02*
X470370D01*
X468084Y301244D02*
Y305816D01*
X434594Y299720D02*
X439166D01*
X436880Y297434D02*
Y302006D01*
X411734Y295830D02*
X416306D01*
X414020Y293544D02*
Y298116D01*
X444913Y92710D02*
X449993D01*
X447453Y90170D02*
Y95250D01*
X456070Y53340D02*
X461150D01*
X458610Y50800D02*
Y55880D01*
X534924Y307340D02*
X539496D01*
X537210Y305054D02*
Y309626D01*
X628770Y30480D02*
X633342D01*
X631056Y28194D02*
Y32766D01*
X628770Y8123D02*
X633342D01*
X631056Y5837D02*
Y10409D01*
X504444Y486410D02*
X509016D01*
X506730Y484124D02*
Y488696D01*
X731855Y442203D02*
X736427D01*
X734141Y439917D02*
Y444489D01*
X732790Y467360D02*
X737870D01*
X735330Y464820D02*
Y469900D01*
X661924Y147320D02*
X666496D01*
X664210Y145034D02*
Y149606D01*
X229512Y366810D02*
X234084D01*
X231798Y364524D02*
Y369096D01*
X466044Y219710D02*
X470616D01*
X468330Y217424D02*
Y221996D01*
X66294Y324240D02*
X70866D01*
X68580Y321954D02*
Y326526D01*
X611124Y72940D02*
X615696D01*
X613410Y70654D02*
Y75226D01*
X95434Y280670D02*
X100006D01*
X97720Y278384D02*
Y282956D01*
X733384Y101440D02*
X737956D01*
X735670Y99154D02*
Y103726D01*
X713994Y43590D02*
X718566D01*
X716280Y41304D02*
Y45876D01*
X582144Y6350D02*
X586716D01*
X584430Y4064D02*
Y8636D01*
X327035Y9395D02*
X331607D01*
X329321Y7109D02*
Y11681D01*
X482854Y6350D02*
X487426D01*
X485140Y4064D02*
Y8636D01*
X142240Y60960D02*
X149860D01*
X146050Y57150D02*
Y64770D01*
X6604Y311150D02*
X11176D01*
X8890Y308864D02*
Y313436D01*
X48260Y156210D02*
X55880D01*
X52070Y152400D02*
Y160020D01*
X71374Y439420D02*
X75946D01*
X73660Y437134D02*
Y441706D01*
X127254Y353361D02*
X131826D01*
X129540Y351075D02*
Y355647D01*
X127254Y407500D02*
X131826D01*
X129540Y405214D02*
Y409786D01*
X160934Y427250D02*
X165506D01*
X163220Y424964D02*
Y429536D01*
X659384Y407670D02*
X663956D01*
X661670Y405384D02*
Y409956D01*
X498094Y345440D02*
X502666D01*
X500380Y343154D02*
Y347726D01*
X506344Y471170D02*
X510916D01*
X508630Y468884D02*
Y473456D01*
X447294Y345440D02*
X451866D01*
X449580Y343154D02*
Y347726D01*
X368554Y354330D02*
X373126D01*
X370840Y352044D02*
Y356616D01*
X399205Y149860D02*
X403777D01*
X401491Y147574D02*
Y152146D01*
X656844Y450850D02*
X661416D01*
X659130Y448564D02*
Y453136D01*
X682244Y448894D02*
X686816D01*
X684530Y446608D02*
Y451180D01*
X197024Y179070D02*
X201596D01*
X199310Y176784D02*
Y181356D01*
X222843Y179070D02*
X227415D01*
X225129Y176784D02*
Y181356D01*
X197301Y401424D02*
X201873D01*
X199587Y399138D02*
Y403711D01*
X222843Y385810D02*
X227415D01*
X225129Y383524D02*
Y388096D01*
X233544Y400050D02*
X238116D01*
X235830Y397764D02*
Y402336D01*
X226314Y408940D02*
X230886D01*
X228600Y406654D02*
Y411226D01*
X268855Y400050D02*
X273427D01*
X271141Y397764D02*
Y402336D01*
X259334Y408940D02*
X263906D01*
X261620Y406654D02*
Y411226D01*
X141830Y232983D02*
X146402D01*
X144116Y230697D02*
Y235269D01*
X317754Y259080D02*
X322326D01*
X320040Y256794D02*
Y261366D01*
X274574Y259080D02*
X279146D01*
X276860Y256794D02*
Y261366D01*
X89154Y436920D02*
X93726D01*
X91440Y434634D02*
Y439206D01*
X542544Y99060D02*
X547116D01*
X544830Y96774D02*
Y101346D01*
X529844Y156210D02*
X534416D01*
X532130Y153924D02*
Y158496D01*
X740664Y22225D02*
X745236D01*
X742950Y19939D02*
Y24511D01*
X573024Y149860D02*
X577596D01*
X575310Y147574D02*
Y152146D01*
X503174Y160020D02*
X507746D01*
X505460Y157734D02*
Y162306D01*
X107315Y182343D02*
X114935D01*
X111125Y178533D02*
Y186153D01*
X545084Y205740D02*
X549656D01*
X547370Y203454D02*
Y208026D01*
X585724Y147320D02*
X590296D01*
X588010Y145034D02*
Y149606D01*
X598424Y147320D02*
X602996D01*
X600710Y145034D02*
Y149606D01*
X611124Y147320D02*
X615696D01*
X613410Y145034D02*
Y149606D01*
X623824Y147320D02*
X628396D01*
X626110Y145034D02*
Y149606D01*
X636524Y147320D02*
X641096D01*
X638810Y145034D02*
Y149606D01*
X649224Y147320D02*
X653796D01*
X651510Y145034D02*
Y149606D01*
X674624Y147320D02*
X679196D01*
X676910Y145034D02*
Y149606D01*
X687324Y147320D02*
X691896D01*
X689610Y145034D02*
Y149606D01*
X700024Y147320D02*
X704596D01*
X702310Y145034D02*
Y149606D01*
X712724Y147320D02*
X717296D01*
X715010Y145034D02*
Y149606D01*
X725424Y147320D02*
X729996D01*
X727710Y145034D02*
Y149606D01*
X738124Y147320D02*
X742696D01*
X740410Y145034D02*
Y149606D01*
X674624Y353060D02*
X679196D01*
X676910Y350774D02*
Y355346D01*
X636524Y353060D02*
X641096D01*
X638810Y350774D02*
Y355346D01*
X649224Y353060D02*
X653796D01*
X651510Y350774D02*
Y355346D01*
X661924Y353060D02*
X666496D01*
X664210Y350774D02*
Y355346D01*
X623824Y353060D02*
X628396D01*
X626110Y350774D02*
Y355346D01*
X611124Y353060D02*
X615696D01*
X613410Y350774D02*
Y355346D01*
X687324Y353060D02*
X691896D01*
X689610Y350774D02*
Y355346D01*
X700024Y353060D02*
X704596D01*
X702310Y350774D02*
Y355346D01*
X712724Y353060D02*
X717296D01*
X715010Y350774D02*
Y355346D01*
X573024Y353060D02*
X577596D01*
X575310Y350774D02*
Y355346D01*
X598424Y353060D02*
X602996D01*
X600710Y350774D02*
Y355346D01*
X585724Y353060D02*
X590296D01*
X588010Y350774D02*
Y355346D01*
X183134Y364490D02*
X190246D01*
X186690Y360934D02*
Y368046D01*
X183134Y317500D02*
X190246D01*
X186690Y313944D02*
Y321056D01*
M02*
