G04*
G04 #@! TF.GenerationSoftware,Altium Limited,Altium Designer,24.7.2 (38)*
G04*
G04 Layer_Physical_Order=1*
G04 Layer_Color=255*
%FSLAX44Y44*%
%MOMM*%
G71*
G04*
G04 #@! TF.SameCoordinates,1D9A9799-C8E3-4473-89B4-75341A8A5718*
G04*
G04*
G04 #@! TF.FilePolarity,Positive*
G04*
G01*
G75*
%ADD15C,0.2540*%
%ADD17R,0.2500X0.5000*%
%ADD18R,0.5000X0.2500*%
%ADD19R,1.2000X1.4500*%
%ADD20R,0.4800X0.4000*%
%ADD21R,0.6000X0.8000*%
%ADD22R,0.8000X0.8000*%
%ADD23R,0.9000X1.5000*%
%ADD24R,1.5000X0.9000*%
%ADD25R,0.9000X0.9000*%
G04:AMPARAMS|DCode=27|XSize=1.55mm|YSize=0.6mm|CornerRadius=0.051mm|HoleSize=0mm|Usage=FLASHONLY|Rotation=270.000|XOffset=0mm|YOffset=0mm|HoleType=Round|Shape=RoundedRectangle|*
%AMROUNDEDRECTD27*
21,1,1.5500,0.4980,0,0,270.0*
21,1,1.4480,0.6000,0,0,270.0*
1,1,0.1020,-0.2490,-0.7240*
1,1,0.1020,-0.2490,0.7240*
1,1,0.1020,0.2490,0.7240*
1,1,0.1020,0.2490,-0.7240*
%
%ADD27ROUNDEDRECTD27*%
%ADD28C,0.2700*%
%ADD29R,1.3562X1.0546*%
%ADD30R,1.4546X1.5562*%
%ADD31R,0.4000X0.4000*%
%ADD32R,0.4000X0.2000*%
%ADD33R,1.0043X0.8721*%
G04:AMPARAMS|DCode=34|XSize=1.0043mm|YSize=0.8721mm|CornerRadius=0.4361mm|HoleSize=0mm|Usage=FLASHONLY|Rotation=180.000|XOffset=0mm|YOffset=0mm|HoleType=Round|Shape=RoundedRectangle|*
%AMROUNDEDRECTD34*
21,1,1.0043,0.0000,0,0,180.0*
21,1,0.1322,0.8721,0,0,180.0*
1,1,0.8721,-0.0661,0.0000*
1,1,0.8721,0.0661,0.0000*
1,1,0.8721,0.0661,0.0000*
1,1,0.8721,-0.0661,0.0000*
%
%ADD34ROUNDEDRECTD34*%
G04:AMPARAMS|DCode=35|XSize=1.0043mm|YSize=3.1821mm|CornerRadius=0.4369mm|HoleSize=0mm|Usage=FLASHONLY|Rotation=180.000|XOffset=0mm|YOffset=0mm|HoleType=Round|Shape=RoundedRectangle|*
%AMROUNDEDRECTD35*
21,1,1.0043,2.3084,0,0,180.0*
21,1,0.1306,3.1821,0,0,180.0*
1,1,0.8737,-0.0653,1.1542*
1,1,0.8737,0.0653,1.1542*
1,1,0.8737,0.0653,-1.1542*
1,1,0.8737,-0.0653,-1.1542*
%
%ADD35ROUNDEDRECTD35*%
%ADD36R,0.5780X1.5242*%
G04:AMPARAMS|DCode=37|XSize=1.5242mm|YSize=0.578mm|CornerRadius=0.289mm|HoleSize=0mm|Usage=FLASHONLY|Rotation=270.000|XOffset=0mm|YOffset=0mm|HoleType=Round|Shape=RoundedRectangle|*
%AMROUNDEDRECTD37*
21,1,1.5242,0.0000,0,0,270.0*
21,1,0.9463,0.5780,0,0,270.0*
1,1,0.5780,0.0000,-0.4731*
1,1,0.5780,0.0000,0.4731*
1,1,0.5780,0.0000,0.4731*
1,1,0.5780,0.0000,-0.4731*
%
%ADD37ROUNDEDRECTD37*%
%ADD38R,0.7000X0.3000*%
%ADD39R,1.1046X1.3562*%
%ADD40R,1.0546X1.3562*%
%ADD41R,1.5562X1.4546*%
%ADD42R,0.4000X0.4800*%
%ADD43R,1.4500X1.2000*%
%ADD44R,0.8000X0.6000*%
%ADD49R,0.5080X0.5080*%
%ADD51C,3.0150*%
%ADD57R,2.1500X2.1500*%
%ADD58C,2.1500*%
%ADD59C,0.6500*%
G04:AMPARAMS|DCode=60|XSize=0.95mm|YSize=0.65mm|CornerRadius=0.325mm|HoleSize=0mm|Usage=FLASHONLY|Rotation=270.000|XOffset=0mm|YOffset=0mm|HoleType=Round|Shape=RoundedRectangle|*
%AMROUNDEDRECTD60*
21,1,0.9500,0.0000,0,0,270.0*
21,1,0.3000,0.6500,0,0,270.0*
1,1,0.6500,0.0000,-0.1500*
1,1,0.6500,0.0000,0.1500*
1,1,0.6500,0.0000,0.1500*
1,1,0.6500,0.0000,-0.1500*
%
%ADD60ROUNDEDRECTD60*%
G04:AMPARAMS|DCode=61|XSize=0.8mm|YSize=1.4mm|CornerRadius=0.4mm|HoleSize=0mm|Usage=FLASHONLY|Rotation=270.000|XOffset=0mm|YOffset=0mm|HoleType=Round|Shape=RoundedRectangle|*
%AMROUNDEDRECTD61*
21,1,0.8000,0.6000,0,0,270.0*
21,1,0.0000,1.4000,0,0,270.0*
1,1,0.8000,-0.3000,0.0000*
1,1,0.8000,-0.3000,0.0000*
1,1,0.8000,0.3000,0.0000*
1,1,0.8000,0.3000,0.0000*
%
%ADD61ROUNDEDRECTD61*%
%ADD67C,0.2032*%
%ADD68C,0.5080*%
%ADD69C,0.3048*%
%ADD70C,0.1778*%
%ADD71C,1.5000*%
%ADD72R,1.5000X1.5000*%
%ADD73C,1.3700*%
%ADD74R,1.3700X1.3700*%
%ADD75C,0.7620*%
%ADD76C,1.0160*%
%ADD77C,1.2700*%
G36*
X460055Y474487D02*
X458927Y473181D01*
X458469Y472558D01*
X458081Y471953D01*
X457764Y471368D01*
X457517Y470802D01*
X457341Y470255D01*
X457235Y469727D01*
X457200Y469219D01*
X454660D01*
X454625Y469727D01*
X454519Y470255D01*
X454343Y470802D01*
X454096Y471368D01*
X453779Y471953D01*
X453391Y472558D01*
X452933Y473181D01*
X452404Y473825D01*
X451135Y475168D01*
X460725D01*
X460055Y474487D01*
D02*
G37*
G36*
X206055D02*
X204927Y473181D01*
X204469Y472558D01*
X204081Y471953D01*
X203764Y471368D01*
X203517Y470802D01*
X203341Y470255D01*
X203235Y469727D01*
X203200Y469219D01*
X200660D01*
X200625Y469727D01*
X200519Y470255D01*
X200343Y470802D01*
X200096Y471368D01*
X199779Y471953D01*
X199391Y472558D01*
X198933Y473181D01*
X198404Y473825D01*
X197135Y475168D01*
X206725D01*
X206055Y474487D01*
D02*
G37*
G36*
X690181Y464820D02*
X690155Y465061D01*
X690078Y465277D01*
X689950Y465468D01*
X689770Y465633D01*
X689538Y465773D01*
X689256Y465887D01*
X688921Y465976D01*
X688536Y466039D01*
X688099Y466077D01*
X687610Y466090D01*
Y468630D01*
X688099Y468643D01*
X688536Y468681D01*
X688921Y468744D01*
X689256Y468833D01*
X689538Y468947D01*
X689770Y469087D01*
X689950Y469252D01*
X690078Y469443D01*
X690155Y469659D01*
X690181Y469900D01*
Y464820D01*
D02*
G37*
G36*
X678335Y469659D02*
X678412Y469443D01*
X678540Y469252D01*
X678720Y469087D01*
X678952Y468947D01*
X679234Y468833D01*
X679569Y468744D01*
X679954Y468681D01*
X680391Y468643D01*
X680880Y468630D01*
Y466090D01*
X680391Y466077D01*
X679954Y466039D01*
X679569Y465976D01*
X679234Y465887D01*
X678952Y465773D01*
X678720Y465633D01*
X678540Y465468D01*
X678412Y465277D01*
X678335Y465061D01*
X678309Y464820D01*
Y469900D01*
X678335Y469659D01*
D02*
G37*
G36*
X663045Y463340D02*
X662782Y463187D01*
X662549Y462933D01*
X662348Y462578D01*
X662177Y462121D01*
X662038Y461562D01*
X661929Y460901D01*
X661852Y460139D01*
X661790Y458311D01*
X656710D01*
X656697Y459276D01*
X656500Y461562D01*
X656383Y462121D01*
X656239Y462578D01*
X656068Y462933D01*
X655872Y463187D01*
X655649Y463340D01*
X655400Y463391D01*
X663339D01*
X663045Y463340D01*
D02*
G37*
G36*
X720260Y460120D02*
X719828Y459967D01*
X719447Y459711D01*
X719117Y459353D01*
X718837Y458893D01*
X718609Y458331D01*
X718431Y457667D01*
X718304Y456900D01*
X718228Y456031D01*
X718202Y455061D01*
X713122D01*
X713097Y456031D01*
X713021Y456900D01*
X712894Y457667D01*
X712716Y458331D01*
X712487Y458893D01*
X712208Y459353D01*
X711878Y459711D01*
X711497Y459967D01*
X711065Y460120D01*
X710582Y460171D01*
X720742D01*
X720260Y460120D01*
D02*
G37*
G36*
X362337Y449546D02*
X362414Y449330D01*
X362541Y449140D01*
X362719Y448975D01*
X362947Y448835D01*
X363227Y448721D01*
X363557Y448632D01*
X363938Y448568D01*
X364370Y448530D01*
X364852Y448517D01*
Y445977D01*
X364370Y445965D01*
X363938Y445927D01*
X363557Y445863D01*
X363227Y445774D01*
X362947Y445660D01*
X362719Y445520D01*
X362541Y445355D01*
X362414Y445165D01*
X362337Y444949D01*
X362312Y444707D01*
Y449787D01*
X362337Y449546D01*
D02*
G37*
G36*
X330404Y444707D02*
X330378Y444949D01*
X330301Y445165D01*
X330172Y445355D01*
X329992Y445520D01*
X329761Y445660D01*
X329478Y445774D01*
X329144Y445863D01*
X328758Y445927D01*
X328321Y445965D01*
X327833Y445977D01*
Y448517D01*
X328321Y448530D01*
X328758Y448568D01*
X329144Y448632D01*
X329478Y448721D01*
X329761Y448835D01*
X329992Y448975D01*
X330172Y449140D01*
X330301Y449330D01*
X330378Y449546D01*
X330404Y449787D01*
Y444707D01*
D02*
G37*
G36*
X63605Y441257D02*
X63681Y441138D01*
X63808Y441033D01*
X63986Y440942D01*
X64215Y440865D01*
X64494Y440802D01*
X64824Y440753D01*
X65205Y440718D01*
X66119Y440690D01*
Y438150D01*
X65637Y438143D01*
X64824Y438087D01*
X64494Y438038D01*
X64215Y437975D01*
X63986Y437898D01*
X63808Y437807D01*
X63681Y437702D01*
X63605Y437583D01*
X63580Y437450D01*
Y441390D01*
X63605Y441257D01*
D02*
G37*
G36*
X457218Y443256D02*
X457272Y442770D01*
X457362Y442299D01*
X457487Y441843D01*
X457649Y441402D01*
X457847Y440976D01*
X458080Y440565D01*
X458349Y440168D01*
X458655Y439787D01*
X458996Y439420D01*
X457726Y437098D01*
X457367Y437421D01*
X457008Y437673D01*
X456648Y437852D01*
X456289Y437960D01*
X455930Y437996D01*
X455571Y437960D01*
X455212Y437852D01*
X454852Y437673D01*
X454493Y437421D01*
X454134Y437098D01*
X452864Y439420D01*
X453205Y439787D01*
X453511Y440168D01*
X453780Y440565D01*
X454013Y440976D01*
X454211Y441402D01*
X454373Y441843D01*
X454498Y442299D01*
X454588Y442770D01*
X454642Y443256D01*
X454660Y443756D01*
X457200D01*
X457218Y443256D01*
D02*
G37*
G36*
X687095Y440661D02*
X687172Y439793D01*
X687299Y439026D01*
X687476Y438362D01*
X687705Y437799D01*
X687984Y437340D01*
X688315Y436982D01*
X688696Y436726D01*
X689127Y436573D01*
X689610Y436522D01*
X679450D01*
X679933Y436573D01*
X680364Y436726D01*
X680745Y436982D01*
X681076Y437340D01*
X681355Y437799D01*
X681584Y438362D01*
X681761Y439026D01*
X681888Y439793D01*
X681965Y440661D01*
X681990Y441632D01*
X687070D01*
X687095Y440661D01*
D02*
G37*
G36*
X50171Y437425D02*
X49984Y437349D01*
X49819Y437222D01*
X49676Y437044D01*
X49555Y436815D01*
X49456Y436536D01*
X49379Y436206D01*
X49324Y435825D01*
X49291Y435393D01*
X49280Y434911D01*
X46740D01*
X46729Y435393D01*
X46696Y435825D01*
X46641Y436206D01*
X46564Y436536D01*
X46465Y436815D01*
X46344Y437044D01*
X46201Y437222D01*
X46036Y437349D01*
X45849Y437425D01*
X45641Y437450D01*
X50380D01*
X50171Y437425D01*
D02*
G37*
G36*
X507126Y438269D02*
X507203Y438053D01*
X507331Y437862D01*
X507511Y437697D01*
X507743Y437557D01*
X508025Y437443D01*
X508360Y437354D01*
X508745Y437291D01*
X509182Y437253D01*
X509670Y437240D01*
Y434700D01*
X509182Y434687D01*
X508745Y434649D01*
X508360Y434586D01*
X508025Y434497D01*
X507743Y434383D01*
X507511Y434243D01*
X507331Y434078D01*
X507203Y433887D01*
X507126Y433671D01*
X507100Y433430D01*
Y438510D01*
X507126Y438269D01*
D02*
G37*
G36*
X493629Y433070D02*
X493604Y433311D01*
X493528Y433527D01*
X493401Y433718D01*
X493223Y433883D01*
X492994Y434022D01*
X492715Y434137D01*
X492385Y434226D01*
X492004Y434289D01*
X491572Y434327D01*
X491090Y434340D01*
Y436880D01*
X491572Y436893D01*
X492004Y436931D01*
X492385Y436994D01*
X492715Y437083D01*
X492994Y437197D01*
X493223Y437337D01*
X493401Y437502D01*
X493528Y437693D01*
X493604Y437909D01*
X493629Y438150D01*
Y433070D01*
D02*
G37*
G36*
X736285Y424609D02*
X736362Y423741D01*
X736489Y422974D01*
X736666Y422310D01*
X736895Y421748D01*
X737174Y421288D01*
X737505Y420930D01*
X737886Y420675D01*
X738317Y420521D01*
X738800Y420470D01*
X728640D01*
X729123Y420521D01*
X729554Y420675D01*
X729935Y420930D01*
X730266Y421288D01*
X730545Y421748D01*
X730774Y422310D01*
X730951Y422974D01*
X731078Y423741D01*
X731155Y424609D01*
X731180Y425580D01*
X736260D01*
X736285Y424609D01*
D02*
G37*
G36*
X718228D02*
X718304Y423741D01*
X718431Y422974D01*
X718609Y422310D01*
X718837Y421748D01*
X719117Y421288D01*
X719447Y420930D01*
X719828Y420675D01*
X720260Y420521D01*
X720742Y420470D01*
X710582D01*
X711065Y420521D01*
X711497Y420675D01*
X711878Y420930D01*
X712208Y421288D01*
X712487Y421748D01*
X712716Y422310D01*
X712894Y422974D01*
X713021Y423741D01*
X713097Y424609D01*
X713122Y425580D01*
X718202D01*
X718228Y424609D01*
D02*
G37*
G36*
X339245Y425159D02*
X339322Y424943D01*
X339450Y424752D01*
X339630Y424587D01*
X339862Y424448D01*
X340144Y424333D01*
X340479Y424244D01*
X340864Y424181D01*
X341301Y424143D01*
X341790Y424130D01*
Y421590D01*
X341301Y421577D01*
X340864Y421539D01*
X340479Y421476D01*
X340144Y421387D01*
X339862Y421273D01*
X339630Y421133D01*
X339450Y420968D01*
X339322Y420777D01*
X339245Y420561D01*
X339219Y420320D01*
Y425400D01*
X339245Y425159D01*
D02*
G37*
G36*
X183503Y418744D02*
X183541Y418307D01*
X183604Y417922D01*
X183693Y417588D01*
X183808Y417305D01*
X183947Y417073D01*
X184112Y416893D01*
X184303Y416765D01*
X184519Y416688D01*
X184760Y416662D01*
X179680D01*
X179921Y416688D01*
X180137Y416765D01*
X180328Y416893D01*
X180493Y417073D01*
X180632Y417305D01*
X180747Y417588D01*
X180836Y417922D01*
X180899Y418307D01*
X180937Y418744D01*
X180950Y419233D01*
X183490D01*
X183503Y418744D01*
D02*
G37*
G36*
X166006Y414580D02*
X160434D01*
X160481Y414743D01*
X160523Y414996D01*
X160560Y415340D01*
X160641Y416907D01*
X160680Y420253D01*
X165760D01*
X166006Y414580D01*
D02*
G37*
G36*
X359445Y415659D02*
X359522Y415443D01*
X359650Y415252D01*
X359830Y415087D01*
X360062Y414948D01*
X360344Y414833D01*
X360679Y414744D01*
X361064Y414681D01*
X361501Y414643D01*
X361990Y414630D01*
Y412090D01*
X361501Y412077D01*
X361064Y412039D01*
X360679Y411976D01*
X360344Y411887D01*
X360062Y411772D01*
X359830Y411633D01*
X359650Y411468D01*
X359522Y411277D01*
X359445Y411061D01*
X359419Y410820D01*
Y415900D01*
X359445Y415659D01*
D02*
G37*
G36*
X504977Y415831D02*
X504546Y415678D01*
X504165Y415422D01*
X503834Y415065D01*
X503555Y414604D01*
X503326Y414042D01*
X503149Y413378D01*
X503022Y412611D01*
X502945Y411743D01*
X502920Y410772D01*
X497840D01*
X497815Y411743D01*
X497738Y412611D01*
X497611Y413378D01*
X497434Y414042D01*
X497205Y414604D01*
X496926Y415065D01*
X496595Y415422D01*
X496214Y415678D01*
X495783Y415831D01*
X495300Y415882D01*
X505460D01*
X504977Y415831D01*
D02*
G37*
G36*
X96745Y411432D02*
X96821Y411398D01*
X96948Y411368D01*
X97126Y411342D01*
X97634Y411302D01*
X99260Y411270D01*
Y408730D01*
X98777Y408728D01*
X96821Y408602D01*
X96745Y408568D01*
X96720Y408531D01*
Y411469D01*
X96745Y411432D01*
D02*
G37*
G36*
X676810Y408254D02*
X676784Y408495D01*
X676707Y408711D01*
X676579Y408902D01*
X676399Y409067D01*
X676167Y409207D01*
X675885Y409321D01*
X675550Y409410D01*
X675165Y409473D01*
X674728Y409511D01*
X674240Y409524D01*
Y412064D01*
X674728Y412077D01*
X675165Y412115D01*
X675550Y412178D01*
X675885Y412267D01*
X676167Y412382D01*
X676399Y412521D01*
X676579Y412686D01*
X676707Y412877D01*
X676784Y413093D01*
X676810Y413334D01*
Y408254D01*
D02*
G37*
G36*
X106781Y406031D02*
X106755Y406068D01*
X106679Y406102D01*
X106552Y406132D01*
X106374Y406158D01*
X105866Y406198D01*
X104241Y406230D01*
Y408770D01*
X104723Y408772D01*
X106679Y408898D01*
X106755Y408932D01*
X106781Y408969D01*
Y406031D01*
D02*
G37*
G36*
X686989Y403556D02*
X686773Y403479D01*
X686582Y403350D01*
X686417Y403171D01*
X686277Y402939D01*
X686163Y402657D01*
X686074Y402322D01*
X686011Y401937D01*
X685973Y401500D01*
X685960Y401011D01*
X683420D01*
X683407Y401500D01*
X683369Y401937D01*
X683306Y402322D01*
X683217Y402657D01*
X683102Y402939D01*
X682963Y403171D01*
X682798Y403350D01*
X682607Y403479D01*
X682391Y403556D01*
X682150Y403582D01*
X687230D01*
X686989Y403556D01*
D02*
G37*
G36*
X738317Y404949D02*
X737886Y404796D01*
X737505Y404542D01*
X737174Y404187D01*
X736895Y403730D01*
X736666Y403171D01*
X736489Y402510D01*
X736362Y401748D01*
X736285Y400885D01*
X736260Y399920D01*
X731180D01*
X731155Y400885D01*
X731078Y401748D01*
X730951Y402510D01*
X730774Y403171D01*
X730545Y403730D01*
X730266Y404187D01*
X729935Y404542D01*
X729554Y404796D01*
X729123Y404949D01*
X728640Y405000D01*
X738800D01*
X738317Y404949D01*
D02*
G37*
G36*
X336563Y390271D02*
X336601Y389834D01*
X336664Y389449D01*
X336753Y389114D01*
X336867Y388832D01*
X337007Y388600D01*
X337172Y388420D01*
X337363Y388292D01*
X337579Y388215D01*
X337820Y388189D01*
X332740D01*
X332981Y388215D01*
X333197Y388292D01*
X333388Y388420D01*
X333553Y388600D01*
X333693Y388832D01*
X333807Y389114D01*
X333896Y389449D01*
X333959Y389834D01*
X333997Y390271D01*
X334010Y390760D01*
X336550D01*
X336563Y390271D01*
D02*
G37*
G36*
X131530Y385239D02*
X131591Y385066D01*
X131692Y384914D01*
X131835Y384782D01*
X132017Y384670D01*
X132241Y384579D01*
X132505Y384507D01*
X132810Y384457D01*
X133155Y384426D01*
X133541Y384416D01*
Y382384D01*
X133155Y382374D01*
X132810Y382343D01*
X132505Y382293D01*
X132241Y382221D01*
X132017Y382130D01*
X131835Y382018D01*
X131692Y381886D01*
X131591Y381734D01*
X131530Y381561D01*
X131510Y381368D01*
Y385432D01*
X131530Y385239D01*
D02*
G37*
G36*
X127570Y381031D02*
X127550Y381117D01*
X127489Y381194D01*
X127388Y381262D01*
X127245Y381321D01*
X127063Y381371D01*
X126839Y381411D01*
X126575Y381443D01*
X125925Y381479D01*
X125539Y381484D01*
Y383516D01*
X125929Y383526D01*
X126278Y383557D01*
X126587Y383607D01*
X126854Y383679D01*
X127081Y383770D01*
X127267Y383882D01*
X127412Y384014D01*
X127516Y384166D01*
X127579Y384339D01*
X127601Y384532D01*
X127570Y381031D01*
D02*
G37*
G36*
X113740Y383883D02*
X113801Y383806D01*
X113902Y383738D01*
X114045Y383679D01*
X114228Y383629D01*
X114451Y383589D01*
X114715Y383557D01*
X115365Y383521D01*
X115751Y383516D01*
Y381484D01*
X115365Y381479D01*
X114451Y381411D01*
X114228Y381371D01*
X114045Y381321D01*
X113902Y381262D01*
X113801Y381194D01*
X113740Y381117D01*
X113720Y381031D01*
Y383969D01*
X113740Y383883D01*
D02*
G37*
G36*
X707232Y382846D02*
X707348Y380822D01*
X707384Y380681D01*
X707425Y380597D01*
X707470Y380569D01*
X701909D01*
X701955Y380597D01*
X701996Y380681D01*
X702032Y380822D01*
X702063Y381019D01*
X702090Y381272D01*
X702140Y382368D01*
X702150Y383380D01*
X707230D01*
X707232Y382846D01*
D02*
G37*
G36*
X685973Y382651D02*
X686011Y382214D01*
X686074Y381829D01*
X686163Y381494D01*
X686277Y381212D01*
X686417Y380980D01*
X686582Y380800D01*
X686773Y380672D01*
X686989Y380595D01*
X687230Y380569D01*
X682150D01*
X682391Y380595D01*
X682607Y380672D01*
X682798Y380800D01*
X682963Y380980D01*
X683102Y381212D01*
X683217Y381494D01*
X683306Y381829D01*
X683369Y382214D01*
X683407Y382651D01*
X683420Y383139D01*
X685960D01*
X685973Y382651D01*
D02*
G37*
G36*
X741141Y384095D02*
X741212Y383257D01*
X741330Y382517D01*
X741496Y381876D01*
X741708Y381333D01*
X741968Y380889D01*
X742275Y380544D01*
X742629Y380297D01*
X743031Y380149D01*
X743480Y380100D01*
X733676D01*
X734125Y380149D01*
X734526Y380297D01*
X734881Y380544D01*
X735188Y380889D01*
X735447Y381333D01*
X735660Y381876D01*
X735825Y382517D01*
X735943Y383257D01*
X736014Y384095D01*
X736038Y385032D01*
X741118D01*
X741141Y384095D01*
D02*
G37*
G36*
X727018Y383460D02*
X727144Y382132D01*
X727255Y381593D01*
X727396Y381137D01*
X727570Y380764D01*
X727775Y380473D01*
X728012Y380266D01*
X728280Y380141D01*
X728579Y380100D01*
X720345D01*
X720645Y380141D01*
X720913Y380266D01*
X721149Y380473D01*
X721354Y380764D01*
X721528Y381137D01*
X721670Y381593D01*
X721780Y382132D01*
X721859Y382755D01*
X721906Y383460D01*
X721922Y384248D01*
X727002D01*
X727018Y383460D01*
D02*
G37*
G36*
X286580Y381060D02*
Y380762D01*
X286352Y380210D01*
X285930Y379788D01*
X285378Y379560D01*
X284782D01*
X284230Y379788D01*
X283808Y380210D01*
X283580Y380762D01*
Y381060D01*
Y389060D01*
X286580D01*
Y381060D01*
D02*
G37*
G36*
X281580D02*
Y380762D01*
X281352Y380210D01*
X280930Y379788D01*
X280378Y379560D01*
X279782D01*
X279230Y379788D01*
X278808Y380210D01*
X278580Y380762D01*
Y381060D01*
Y389060D01*
X281580D01*
Y381060D01*
D02*
G37*
G36*
X276580D02*
Y380762D01*
X276352Y380210D01*
X275930Y379788D01*
X275378Y379560D01*
X274782D01*
X274230Y379788D01*
X273808Y380210D01*
X273580Y380762D01*
Y381060D01*
Y389060D01*
X276580D01*
X276580Y381060D01*
D02*
G37*
G36*
X271224Y389809D02*
X271190Y389060D01*
X271580D01*
Y381060D01*
Y380762D01*
X271352Y380210D01*
X270930Y379788D01*
X270378Y379560D01*
X269782D01*
X269230Y379788D01*
X268808Y380210D01*
X268580Y380762D01*
Y381060D01*
Y389060D01*
X269174D01*
X269192Y390109D01*
X271224Y389809D01*
D02*
G37*
G36*
X266580Y381060D02*
Y380762D01*
X266352Y380210D01*
X265930Y379788D01*
X265378Y379560D01*
X264782D01*
X264230Y379788D01*
X263808Y380210D01*
X263580Y380762D01*
Y381060D01*
X263580D01*
Y389060D01*
X266580D01*
Y381060D01*
D02*
G37*
G36*
X261580D02*
Y380762D01*
X261352Y380210D01*
X260930Y379788D01*
X260378Y379560D01*
X259782D01*
X259230Y379788D01*
X258808Y380210D01*
X258580Y380762D01*
Y381060D01*
Y389060D01*
X261580D01*
Y381060D01*
D02*
G37*
G36*
X256580D02*
Y380762D01*
X256352Y380210D01*
X255930Y379788D01*
X255378Y379560D01*
X254782D01*
X254230Y379788D01*
X253808Y380210D01*
X253580Y380762D01*
Y381060D01*
Y389060D01*
X256580D01*
Y381060D01*
D02*
G37*
G36*
X113740Y378883D02*
X113801Y378806D01*
X113902Y378738D01*
X114045Y378679D01*
X114228Y378629D01*
X114451Y378589D01*
X114715Y378557D01*
X115365Y378521D01*
X115751Y378516D01*
Y376484D01*
X115365Y376479D01*
X114451Y376411D01*
X114228Y376371D01*
X114045Y376321D01*
X113902Y376262D01*
X113801Y376194D01*
X113740Y376117D01*
X113720Y376031D01*
Y378969D01*
X113740Y378883D01*
D02*
G37*
G36*
X298830Y373810D02*
X290532D01*
X289980Y374038D01*
X289558Y374460D01*
X289330Y375012D01*
Y375310D01*
Y375608D01*
X289558Y376160D01*
X289980Y376582D01*
X290532Y376810D01*
X298830D01*
Y373810D01*
D02*
G37*
G36*
X250180Y376582D02*
X250602Y376160D01*
X250830Y375608D01*
Y375310D01*
Y375012D01*
X250602Y374460D01*
X250180Y374038D01*
X249628Y373810D01*
X241330D01*
Y376810D01*
X249628D01*
X250180Y376582D01*
D02*
G37*
G36*
X89781Y373531D02*
X89760Y373617D01*
X89699Y373694D01*
X89598Y373762D01*
X89455Y373821D01*
X89272Y373871D01*
X89049Y373911D01*
X88785Y373943D01*
X88135Y373979D01*
X87748Y373984D01*
Y376016D01*
X88135Y376021D01*
X89049Y376089D01*
X89272Y376129D01*
X89455Y376179D01*
X89598Y376238D01*
X89699Y376306D01*
X89760Y376383D01*
X89781Y376469D01*
Y373531D01*
D02*
G37*
G36*
X131500Y376839D02*
X131561Y376666D01*
X131665Y376514D01*
X131809Y376382D01*
X131995Y376270D01*
X132221Y376179D01*
X132490Y376107D01*
X132799Y376057D01*
X133150Y376026D01*
X133541Y376016D01*
Y373984D01*
X133150Y373974D01*
X132799Y373943D01*
X132490Y373893D01*
X132221Y373821D01*
X131995Y373730D01*
X131809Y373618D01*
X131665Y373486D01*
X131561Y373334D01*
X131500Y373161D01*
X131479Y372968D01*
Y377032D01*
X131500Y376839D01*
D02*
G37*
G36*
X127570Y372968D02*
X127550Y373161D01*
X127489Y373334D01*
X127388Y373486D01*
X127245Y373618D01*
X127063Y373730D01*
X126839Y373821D01*
X126575Y373893D01*
X126270Y373943D01*
X125925Y373974D01*
X125539Y373984D01*
Y376016D01*
X125925Y376026D01*
X126270Y376057D01*
X126575Y376107D01*
X126839Y376179D01*
X127063Y376270D01*
X127245Y376382D01*
X127388Y376514D01*
X127489Y376666D01*
X127550Y376839D01*
X127570Y377032D01*
Y372968D01*
D02*
G37*
G36*
X358849Y373785D02*
X358633Y373708D01*
X358442Y373580D01*
X358277Y373400D01*
X358138Y373168D01*
X358023Y372886D01*
X357934Y372551D01*
X357871Y372166D01*
X357833Y371729D01*
X357820Y371241D01*
X355280D01*
X355267Y371729D01*
X355229Y372166D01*
X355166Y372551D01*
X355077Y372886D01*
X354963Y373168D01*
X354823Y373400D01*
X354658Y373580D01*
X354467Y373708D01*
X354251Y373785D01*
X354010Y373811D01*
X359090D01*
X358849Y373785D01*
D02*
G37*
G36*
X298830Y368810D02*
X290532D01*
X289980Y369038D01*
X289558Y369460D01*
X289330Y370012D01*
Y370310D01*
Y370608D01*
X289558Y371160D01*
X289980Y371582D01*
X290532Y371810D01*
X298830D01*
Y368810D01*
D02*
G37*
G36*
X250180Y371582D02*
X250602Y371160D01*
X250830Y370608D01*
Y370310D01*
Y370012D01*
X250602Y369460D01*
X250180Y369038D01*
X249628Y368810D01*
X241330D01*
Y371810D01*
X249628D01*
X250180Y371582D01*
D02*
G37*
G36*
X298830Y363810D02*
X290532D01*
X289980Y364038D01*
X289558Y364460D01*
X289330Y365012D01*
Y365310D01*
Y365608D01*
X289558Y366160D01*
X289980Y366582D01*
X290532Y366810D01*
X290830D01*
Y366810D01*
X298830D01*
Y363810D01*
D02*
G37*
G36*
X249330Y366810D02*
X249628D01*
X250180Y366582D01*
X250602Y366160D01*
X250830Y365608D01*
Y365310D01*
Y365012D01*
X250602Y364460D01*
X250180Y364038D01*
X249628Y363810D01*
X241330D01*
Y366810D01*
X249330Y366810D01*
D02*
G37*
G36*
X742395Y366588D02*
X742127Y366465D01*
X741891Y366259D01*
X741686Y365971D01*
X741512Y365600D01*
X741370Y365147D01*
X741260Y364612D01*
X741181Y363994D01*
X741134Y363294D01*
X741118Y362512D01*
X736038D01*
X736022Y363294D01*
X735896Y364612D01*
X735785Y365147D01*
X735643Y365600D01*
X735470Y365971D01*
X735265Y366259D01*
X735028Y366465D01*
X734760Y366588D01*
X734461Y366629D01*
X742695D01*
X742395Y366588D01*
D02*
G37*
G36*
X729060Y366579D02*
X728628Y366426D01*
X728247Y366172D01*
X727917Y365817D01*
X727637Y365359D01*
X727409Y364801D01*
X727231Y364140D01*
X727104Y363378D01*
X727028Y362515D01*
X727002Y361549D01*
X721922D01*
X721897Y362515D01*
X721821Y363378D01*
X721694Y364140D01*
X721516Y364801D01*
X721287Y365359D01*
X721008Y365817D01*
X720678Y366172D01*
X720297Y366426D01*
X719865Y366579D01*
X719382Y366629D01*
X729542D01*
X729060Y366579D01*
D02*
G37*
G36*
X356223Y362831D02*
X356261Y362394D01*
X356324Y362009D01*
X356413Y361674D01*
X356527Y361392D01*
X356667Y361160D01*
X356832Y360980D01*
X357023Y360852D01*
X357239Y360775D01*
X357480Y360749D01*
X352400D01*
X352641Y360775D01*
X352857Y360852D01*
X353048Y360980D01*
X353213Y361160D01*
X353353Y361392D01*
X353467Y361674D01*
X353556Y362009D01*
X353619Y362394D01*
X353657Y362831D01*
X353670Y363320D01*
X356210D01*
X356223Y362831D01*
D02*
G37*
G36*
X298830Y358810D02*
X290532D01*
X289980Y359038D01*
X289558Y359460D01*
X289330Y360012D01*
Y360310D01*
Y360608D01*
X289558Y361160D01*
X289980Y361582D01*
X290532Y361810D01*
X298830D01*
Y358810D01*
D02*
G37*
G36*
X250180Y361582D02*
X250602Y361160D01*
X250830Y360608D01*
Y360310D01*
Y360012D01*
X250602Y359460D01*
X250180Y359038D01*
X249628Y358810D01*
X241330D01*
Y359210D01*
X240116Y359145D01*
X239763Y361177D01*
X240148Y361178D01*
X241330Y361244D01*
Y361810D01*
X249628D01*
X250180Y361582D01*
D02*
G37*
G36*
X298830Y353810D02*
X290830Y353810D01*
X290532D01*
X289980Y354038D01*
X289558Y354460D01*
X289330Y355012D01*
Y355310D01*
Y355608D01*
X289558Y356160D01*
X289980Y356582D01*
X290532Y356810D01*
X298830D01*
Y353810D01*
D02*
G37*
G36*
X250180Y356582D02*
X250602Y356160D01*
X250830Y355608D01*
Y355310D01*
Y355012D01*
X250602Y354460D01*
X250180Y354038D01*
X249628Y353810D01*
X249330D01*
Y353810D01*
X241330D01*
Y356810D01*
X249628D01*
X250180Y356582D01*
D02*
G37*
G36*
X89781Y353531D02*
X89760Y353617D01*
X89699Y353694D01*
X89598Y353762D01*
X89455Y353821D01*
X89272Y353871D01*
X89049Y353911D01*
X88785Y353943D01*
X88135Y353979D01*
X87748Y353984D01*
Y356016D01*
X88135Y356021D01*
X89049Y356089D01*
X89272Y356129D01*
X89455Y356179D01*
X89598Y356238D01*
X89699Y356306D01*
X89760Y356383D01*
X89781Y356469D01*
Y353531D01*
D02*
G37*
G36*
X189255Y357439D02*
X189332Y356571D01*
X189459Y355804D01*
X189636Y355140D01*
X189865Y354578D01*
X190144Y354118D01*
X190475Y353760D01*
X190856Y353504D01*
X191287Y353351D01*
X191770Y353300D01*
X181610D01*
X182093Y353351D01*
X182524Y353504D01*
X182905Y353760D01*
X183236Y354118D01*
X183515Y354578D01*
X183744Y355140D01*
X183921Y355804D01*
X184048Y356571D01*
X184125Y357439D01*
X184150Y358410D01*
X189230D01*
X189255Y357439D01*
D02*
G37*
G36*
X116259Y351460D02*
X115777Y351456D01*
X114354Y351353D01*
X114126Y351305D01*
X113948Y351250D01*
X113821Y351185D01*
X113745Y351112D01*
X113720Y351031D01*
Y353969D01*
X113745Y353975D01*
X113821Y353980D01*
X114964Y353997D01*
X116259Y354000D01*
Y351460D01*
D02*
G37*
G36*
X338239Y352845D02*
X338023Y352768D01*
X337832Y352640D01*
X337667Y352460D01*
X337528Y352228D01*
X337413Y351946D01*
X337324Y351611D01*
X337261Y351226D01*
X337223Y350789D01*
X337210Y350300D01*
X334670D01*
X334657Y350789D01*
X334619Y351226D01*
X334556Y351611D01*
X334467Y351946D01*
X334352Y352228D01*
X334213Y352460D01*
X334048Y352640D01*
X333857Y352768D01*
X333641Y352845D01*
X333400Y352871D01*
X338480D01*
X338239Y352845D01*
D02*
G37*
G36*
X193436Y350387D02*
X193513Y350171D01*
X193641Y349980D01*
X193821Y349815D01*
X194053Y349675D01*
X194335Y349561D01*
X194670Y349472D01*
X195055Y349409D01*
X195492Y349370D01*
X195980Y349358D01*
Y346818D01*
X195492Y346805D01*
X195055Y346767D01*
X194670Y346703D01*
X194335Y346615D01*
X194053Y346500D01*
X193821Y346361D01*
X193641Y346195D01*
X193513Y346005D01*
X193436Y345789D01*
X193410Y345548D01*
Y346815D01*
X193023Y346813D01*
X189200Y346559D01*
X188873Y346480D01*
X188635Y346391D01*
X188485Y346291D01*
Y349885D01*
X188635Y349785D01*
X188873Y349695D01*
X189200Y349616D01*
X189616Y349548D01*
X190713Y349442D01*
X193023Y349363D01*
X193410Y349361D01*
Y350628D01*
X193436Y350387D01*
D02*
G37*
G36*
X298830Y348810D02*
X290532D01*
X289980Y349038D01*
X289558Y349460D01*
X289330Y350012D01*
Y350310D01*
Y350608D01*
X289558Y351160D01*
X289980Y351582D01*
X290532Y351810D01*
X298830D01*
Y348810D01*
D02*
G37*
G36*
X250180Y351582D02*
X250602Y351160D01*
X250830Y350608D01*
Y350310D01*
Y350012D01*
X250602Y349460D01*
X250180Y349038D01*
X249628Y348810D01*
X241330D01*
Y351810D01*
X249628D01*
X250180Y351582D01*
D02*
G37*
G36*
X220106Y350387D02*
X220183Y350171D01*
X220311Y349980D01*
X220491Y349815D01*
X220723Y349675D01*
X221005Y349561D01*
X221340Y349472D01*
X221725Y349409D01*
X222162Y349370D01*
X222651Y349358D01*
Y346818D01*
X222162Y346805D01*
X221725Y346767D01*
X221340Y346703D01*
X221005Y346615D01*
X220723Y346500D01*
X220491Y346361D01*
X220311Y346195D01*
X220183Y346005D01*
X220106Y345789D01*
X220080Y345548D01*
Y350628D01*
X220106Y350387D01*
D02*
G37*
G36*
X206609Y345548D02*
X206584Y345789D01*
X206508Y346005D01*
X206381Y346195D01*
X206203Y346361D01*
X205975Y346500D01*
X205695Y346615D01*
X205365Y346703D01*
X204984Y346767D01*
X204552Y346805D01*
X204069Y346818D01*
Y349358D01*
X204552Y349370D01*
X204984Y349409D01*
X205365Y349472D01*
X205695Y349561D01*
X205975Y349675D01*
X206203Y349815D01*
X206381Y349980D01*
X206508Y350171D01*
X206584Y350387D01*
X206609Y350628D01*
Y345548D01*
D02*
G37*
G36*
X730269Y349404D02*
X730424Y347779D01*
X730559Y347118D01*
X730732Y346559D01*
X730945Y346102D01*
X731196Y345747D01*
X731485Y345493D01*
X731813Y345340D01*
X732179Y345289D01*
X723241D01*
X723607Y345340D01*
X723935Y345493D01*
X724224Y345747D01*
X724475Y346102D01*
X724688Y346559D01*
X724861Y347118D01*
X724996Y347779D01*
X725093Y348541D01*
X725151Y349404D01*
X725170Y350369D01*
X730250D01*
X730269Y349404D01*
D02*
G37*
G36*
X298830Y343810D02*
X290532D01*
X289980Y344038D01*
X289558Y344460D01*
X289330Y345012D01*
Y345310D01*
Y345608D01*
X289558Y346160D01*
X289980Y346582D01*
X290532Y346810D01*
X298830D01*
Y343810D01*
D02*
G37*
G36*
X250180Y346582D02*
X250602Y346160D01*
X250830Y345608D01*
Y345310D01*
Y345012D01*
X250602Y344460D01*
X250180Y344038D01*
X249628Y343810D01*
X241330D01*
Y346810D01*
X249628D01*
X250180Y346582D01*
D02*
G37*
G36*
X286830Y343560D02*
X253330D01*
Y373560D01*
X256830Y377060D01*
X286830D01*
Y343560D01*
D02*
G37*
G36*
X748472Y345289D02*
X744849Y341529D01*
X741118Y345259D01*
X741169Y345283D01*
X741291Y345382D01*
X741753Y345805D01*
X744880Y348882D01*
X748472Y345289D01*
D02*
G37*
G36*
X285930Y340832D02*
X286352Y340410D01*
X286580Y339858D01*
Y339560D01*
Y331560D01*
X283580D01*
Y339560D01*
Y339858D01*
X283808Y340410D01*
X284230Y340832D01*
X284782Y341060D01*
X285378D01*
X285930Y340832D01*
D02*
G37*
G36*
X280930D02*
X281352Y340410D01*
X281580Y339858D01*
Y339560D01*
Y331560D01*
X278580D01*
Y339560D01*
Y339858D01*
X278808Y340410D01*
X279230Y340832D01*
X279782Y341060D01*
X280378D01*
X280930Y340832D01*
D02*
G37*
G36*
X275930D02*
X276352Y340410D01*
X276580Y339858D01*
Y339560D01*
X276580D01*
Y331560D01*
X273580D01*
Y339560D01*
Y339858D01*
X273808Y340410D01*
X274230Y340832D01*
X274782Y341060D01*
X275378D01*
X275930Y340832D01*
D02*
G37*
G36*
X265930D02*
X266352Y340410D01*
X266580Y339858D01*
Y339560D01*
Y331560D01*
X263580D01*
X263580Y339560D01*
Y339858D01*
X263808Y340410D01*
X264230Y340832D01*
X264782Y341060D01*
X265378D01*
X265930Y340832D01*
D02*
G37*
G36*
X260930D02*
X261352Y340410D01*
X261580Y339858D01*
Y339560D01*
Y331560D01*
X258580D01*
Y339560D01*
Y339858D01*
X258808Y340410D01*
X259230Y340832D01*
X259782Y341060D01*
X260378D01*
X260930Y340832D01*
D02*
G37*
G36*
X255930D02*
X256352Y340410D01*
X256580Y339858D01*
Y339560D01*
Y331560D01*
X253580D01*
Y339560D01*
Y339858D01*
X253808Y340410D01*
X254230Y340832D01*
X254782Y341060D01*
X255378D01*
X255930Y340832D01*
D02*
G37*
G36*
X270930D02*
X271352Y340410D01*
X271580Y339858D01*
Y339560D01*
Y331560D01*
X271106D01*
X271096Y330525D01*
X271096Y330139D01*
X269064D01*
X269047Y331560D01*
X268580D01*
Y339560D01*
Y339858D01*
X268808Y340410D01*
X269230Y340832D01*
X269782Y341060D01*
X270378D01*
X270930Y340832D01*
D02*
G37*
G36*
X347849Y332645D02*
X347633Y332568D01*
X347442Y332440D01*
X347277Y332260D01*
X347137Y332028D01*
X347023Y331746D01*
X346934Y331411D01*
X346871Y331026D01*
X346833Y330589D01*
X346820Y330101D01*
X344280D01*
X344267Y330589D01*
X344229Y331026D01*
X344166Y331411D01*
X344077Y331746D01*
X343963Y332028D01*
X343823Y332260D01*
X343658Y332440D01*
X343467Y332568D01*
X343251Y332645D01*
X343010Y332671D01*
X348090D01*
X347849Y332645D01*
D02*
G37*
G36*
X216118Y328329D02*
X215859Y328237D01*
X215631Y328083D01*
X215433Y327867D01*
X215265Y327590D01*
X215128Y327252D01*
X215021Y326852D01*
X214945Y326390D01*
X214899Y325866D01*
X214884Y325281D01*
X211836D01*
X211821Y325866D01*
X211775Y326390D01*
X211699Y326852D01*
X211592Y327252D01*
X211455Y327590D01*
X211287Y327867D01*
X211089Y328083D01*
X210861Y328237D01*
X210602Y328329D01*
X210312Y328360D01*
X216408D01*
X216118Y328329D01*
D02*
G37*
G36*
X364246Y308445D02*
X364277Y308100D01*
X364327Y307795D01*
X364399Y307531D01*
X364490Y307307D01*
X364602Y307125D01*
X364734Y306982D01*
X364886Y306881D01*
X365059Y306820D01*
X365252Y306800D01*
X361188D01*
X361381Y306820D01*
X361554Y306881D01*
X361706Y306982D01*
X361838Y307125D01*
X361950Y307307D01*
X362041Y307531D01*
X362113Y307795D01*
X362163Y308100D01*
X362194Y308445D01*
X362204Y308832D01*
X364236D01*
X364246Y308445D01*
D02*
G37*
G36*
X277886D02*
X277917Y308100D01*
X277967Y307795D01*
X278039Y307531D01*
X278130Y307307D01*
X278242Y307125D01*
X278374Y306982D01*
X278526Y306881D01*
X278699Y306820D01*
X278892Y306800D01*
X274828D01*
X275021Y306820D01*
X275194Y306881D01*
X275346Y306982D01*
X275478Y307125D01*
X275590Y307307D01*
X275681Y307531D01*
X275753Y307795D01*
X275803Y308100D01*
X275834Y308445D01*
X275844Y308832D01*
X277876D01*
X277886Y308445D01*
D02*
G37*
G36*
X321066Y308440D02*
X321097Y308089D01*
X321147Y307780D01*
X321219Y307512D01*
X321310Y307285D01*
X321422Y307099D01*
X321554Y306955D01*
X321706Y306852D01*
X321879Y306790D01*
X322072Y306769D01*
X318008D01*
X318201Y306790D01*
X318374Y306852D01*
X318526Y306955D01*
X318658Y307099D01*
X318770Y307285D01*
X318861Y307512D01*
X318933Y307780D01*
X318983Y308089D01*
X319014Y308440D01*
X319024Y308832D01*
X321056D01*
X321066Y308440D01*
D02*
G37*
G36*
X243596D02*
X243627Y308089D01*
X243677Y307780D01*
X243749Y307512D01*
X243840Y307285D01*
X243952Y307099D01*
X244084Y306955D01*
X244236Y306852D01*
X244409Y306790D01*
X244602Y306769D01*
X240538D01*
X240731Y306790D01*
X240904Y306852D01*
X241056Y306955D01*
X241188Y307099D01*
X241300Y307285D01*
X241391Y307512D01*
X241463Y307780D01*
X241513Y308089D01*
X241544Y308440D01*
X241554Y308832D01*
X243586D01*
X243596Y308440D01*
D02*
G37*
G36*
X20891Y306705D02*
X20840Y307188D01*
X20687Y307619D01*
X20431Y308000D01*
X20073Y308331D01*
X19613Y308610D01*
X19051Y308839D01*
X18387Y309016D01*
X17620Y309143D01*
X16752Y309220D01*
X15781Y309245D01*
Y314325D01*
X16752Y314350D01*
X17620Y314427D01*
X18387Y314554D01*
X19051Y314731D01*
X19613Y314960D01*
X20073Y315239D01*
X20431Y315570D01*
X20687Y315951D01*
X20840Y316382D01*
X20891Y316865D01*
Y306705D01*
D02*
G37*
G36*
X555340Y302950D02*
X555290Y303309D01*
X555137Y303631D01*
X554883Y303914D01*
X554528Y304160D01*
X554071Y304368D01*
X553512Y304538D01*
X552851Y304670D01*
X552089Y304764D01*
X551226Y304821D01*
X550261Y304840D01*
Y309920D01*
X551226Y309940D01*
X552851Y310097D01*
X553512Y310235D01*
X554071Y310412D01*
X554528Y310629D01*
X554883Y310885D01*
X555137Y311180D01*
X555290Y311515D01*
X555340Y311889D01*
Y302950D01*
D02*
G37*
G36*
X216068Y299568D02*
X216123Y298819D01*
X216156Y298636D01*
X216196Y298486D01*
X216243Y298370D01*
X216298Y298287D01*
X216360Y298237D01*
X216429Y298220D01*
X213160D01*
X213230Y298237D01*
X213292Y298287D01*
X213346Y298370D01*
X213394Y298486D01*
X213434Y298636D01*
X213466Y298819D01*
X213492Y299036D01*
X213521Y299568D01*
X213525Y299885D01*
X216065D01*
X216068Y299568D01*
D02*
G37*
G36*
X185433Y300302D02*
X185471Y299865D01*
X185534Y299480D01*
X185623Y299145D01*
X185737Y298863D01*
X185877Y298631D01*
X186042Y298451D01*
X186233Y298323D01*
X186449Y298246D01*
X186690Y298220D01*
X181610D01*
X181851Y298246D01*
X182067Y298323D01*
X182258Y298451D01*
X182423Y298631D01*
X182563Y298863D01*
X182677Y299145D01*
X182766Y299480D01*
X182829Y299865D01*
X182867Y300302D01*
X182880Y300791D01*
X185420D01*
X185433Y300302D01*
D02*
G37*
G36*
X555340Y292688D02*
X555320Y292881D01*
X555259Y293054D01*
X555158Y293206D01*
X555015Y293338D01*
X554832Y293450D01*
X554609Y293541D01*
X554345Y293612D01*
X554040Y293663D01*
X553695Y293694D01*
X553308Y293704D01*
Y295736D01*
X553695Y295746D01*
X554040Y295777D01*
X554345Y295827D01*
X554609Y295898D01*
X554832Y295990D01*
X555015Y296102D01*
X555158Y296234D01*
X555259Y296386D01*
X555320Y296559D01*
X555340Y296752D01*
Y292688D01*
D02*
G37*
G36*
X206609Y290468D02*
X206584Y290709D01*
X206508Y290925D01*
X206381Y291115D01*
X206203Y291281D01*
X205975Y291420D01*
X205695Y291535D01*
X205365Y291623D01*
X204984Y291687D01*
X204552Y291725D01*
X204069Y291738D01*
Y294278D01*
X204552Y294291D01*
X204984Y294329D01*
X205365Y294392D01*
X205695Y294481D01*
X205975Y294595D01*
X206203Y294735D01*
X206381Y294900D01*
X206508Y295091D01*
X206584Y295306D01*
X206609Y295548D01*
Y290468D01*
D02*
G37*
G36*
X190896Y295306D02*
X190973Y295091D01*
X191101Y294900D01*
X191281Y294735D01*
X191513Y294595D01*
X191795Y294481D01*
X192130Y294392D01*
X192515Y294329D01*
X192952Y294291D01*
X193440Y294278D01*
Y291738D01*
X192952Y291725D01*
X192515Y291687D01*
X192130Y291623D01*
X191795Y291535D01*
X191513Y291420D01*
X191281Y291281D01*
X191101Y291115D01*
X190973Y290925D01*
X190896Y290709D01*
X190870Y290468D01*
Y295548D01*
X190896Y295306D01*
D02*
G37*
G36*
X469624Y290916D02*
X469669Y290392D01*
X469745Y289931D01*
X469852Y289531D01*
X469989Y289192D01*
X470157Y288915D01*
X470355Y288699D01*
X470584Y288545D01*
X470843Y288453D01*
X471132Y288422D01*
X465036D01*
X465326Y288453D01*
X465585Y288545D01*
X465814Y288699D01*
X466012Y288915D01*
X466179Y289192D01*
X466316Y289531D01*
X466423Y289931D01*
X466499Y290392D01*
X466545Y290916D01*
X466560Y291501D01*
X469608D01*
X469624Y290916D01*
D02*
G37*
G36*
X423828Y280423D02*
X423922Y280312D01*
X424659Y279537D01*
X427402Y276770D01*
X424356Y272632D01*
X418871Y278020D01*
X423810Y280459D01*
X423828Y280423D01*
D02*
G37*
G36*
X115470Y271780D02*
X115419Y272263D01*
X115266Y272694D01*
X115010Y273075D01*
X114652Y273406D01*
X114192Y273685D01*
X113630Y273914D01*
X112966Y274091D01*
X112199Y274218D01*
X111330Y274295D01*
X110359Y274320D01*
Y279400D01*
X111330Y279425D01*
X112199Y279502D01*
X112966Y279629D01*
X113630Y279806D01*
X114192Y280035D01*
X114652Y280314D01*
X115010Y280645D01*
X115266Y281026D01*
X115419Y281457D01*
X115470Y281940D01*
Y271780D01*
D02*
G37*
G36*
X216118Y273249D02*
X215859Y273157D01*
X215631Y273003D01*
X215433Y272787D01*
X215265Y272510D01*
X215128Y272172D01*
X215021Y271772D01*
X214945Y271310D01*
X214899Y270786D01*
X214884Y270201D01*
X211836D01*
X211821Y270786D01*
X211775Y271310D01*
X211699Y271772D01*
X211592Y272172D01*
X211455Y272510D01*
X211287Y272787D01*
X211089Y273003D01*
X210861Y273157D01*
X210602Y273249D01*
X210312Y273280D01*
X216408D01*
X216118Y273249D01*
D02*
G37*
G36*
X186908D02*
X186649Y273157D01*
X186421Y273003D01*
X186223Y272787D01*
X186055Y272510D01*
X185918Y272172D01*
X185811Y271772D01*
X185735Y271310D01*
X185689Y270786D01*
X185674Y270201D01*
X182626D01*
X182611Y270786D01*
X182565Y271310D01*
X182489Y271772D01*
X182382Y272172D01*
X182245Y272510D01*
X182077Y272787D01*
X181879Y273003D01*
X181651Y273157D01*
X181392Y273249D01*
X181102Y273280D01*
X187198D01*
X186908Y273249D01*
D02*
G37*
G36*
X367817Y274840D02*
X367386Y274687D01*
X367005Y274431D01*
X366674Y274073D01*
X366395Y273613D01*
X366166Y273051D01*
X365989Y272387D01*
X365862Y271620D01*
X365785Y270751D01*
X365760Y269781D01*
X360680D01*
X360655Y270751D01*
X360578Y271620D01*
X360451Y272387D01*
X360274Y273051D01*
X360045Y273613D01*
X359766Y274073D01*
X359435Y274431D01*
X359054Y274687D01*
X358623Y274840D01*
X358140Y274891D01*
X368300D01*
X367817Y274840D01*
D02*
G37*
G36*
X324637Y274810D02*
X324206Y274657D01*
X323825Y274403D01*
X323494Y274048D01*
X323215Y273591D01*
X322986Y273032D01*
X322809Y272371D01*
X322682Y271609D01*
X322605Y270746D01*
X322580Y269781D01*
X317500D01*
X317475Y270746D01*
X317398Y271609D01*
X317271Y272371D01*
X317094Y273032D01*
X316865Y273591D01*
X316586Y274048D01*
X316255Y274403D01*
X315874Y274657D01*
X315443Y274810D01*
X314960Y274860D01*
X325120D01*
X324637Y274810D01*
D02*
G37*
G36*
X281457Y274840D02*
X281026Y274687D01*
X280645Y274431D01*
X280314Y274073D01*
X280035Y273613D01*
X279806Y273051D01*
X279629Y272387D01*
X279502Y271620D01*
X279425Y270751D01*
X279400Y269781D01*
X274320D01*
X274295Y270751D01*
X274218Y271620D01*
X274091Y272387D01*
X273914Y273051D01*
X273685Y273613D01*
X273406Y274073D01*
X273075Y274431D01*
X272694Y274687D01*
X272263Y274840D01*
X271780Y274891D01*
X281940D01*
X281457Y274840D01*
D02*
G37*
G36*
X247167Y274810D02*
X246736Y274657D01*
X246355Y274403D01*
X246024Y274048D01*
X245745Y273591D01*
X245516Y273032D01*
X245339Y272371D01*
X245212Y271609D01*
X245135Y270746D01*
X245110Y269781D01*
X240030D01*
X240005Y270746D01*
X239928Y271609D01*
X239801Y272371D01*
X239624Y273032D01*
X239395Y273591D01*
X239116Y274048D01*
X238785Y274403D01*
X238404Y274657D01*
X237973Y274810D01*
X237490Y274860D01*
X247650D01*
X247167Y274810D01*
D02*
G37*
G36*
X419400Y271784D02*
X420291Y271036D01*
X420694Y270760D01*
X421067Y270548D01*
X421412Y270401D01*
X421728Y270318D01*
X422015Y270301D01*
X422273Y270348D01*
X422503Y270459D01*
X418871Y268020D01*
X418853Y268168D01*
X418799Y268338D01*
X418709Y268531D01*
X418583Y268745D01*
X418422Y268982D01*
X418224Y269241D01*
X417721Y269826D01*
X417074Y270499D01*
X418910Y272256D01*
X419400Y271784D01*
D02*
G37*
G36*
X461910Y264160D02*
X461857Y264643D01*
X461703Y265074D01*
X461447Y265455D01*
X461088Y265786D01*
X460628Y266065D01*
X460066Y266294D01*
X459403Y266471D01*
X458637Y266598D01*
X457769Y266675D01*
X456800Y266700D01*
Y271780D01*
X457765Y271802D01*
X458628Y271866D01*
X459390Y271974D01*
X460051Y272125D01*
X460610Y272319D01*
X461067Y272556D01*
X461422Y272837D01*
X461676Y273160D01*
X461829Y273527D01*
X461880Y273937D01*
X461910Y264160D01*
D02*
G37*
G36*
X475431Y273475D02*
X475584Y273062D01*
X475838Y272698D01*
X476193Y272382D01*
X476651Y272115D01*
X477209Y271896D01*
X477870Y271726D01*
X478632Y271604D01*
X479495Y271532D01*
X480461Y271507D01*
Y266427D01*
X479495Y266402D01*
X478632Y266326D01*
X477870Y266199D01*
X477209Y266021D01*
X476651Y265792D01*
X476193Y265513D01*
X475838Y265183D01*
X475584Y264802D01*
X475431Y264370D01*
X475381Y263887D01*
Y273937D01*
X475431Y273475D01*
D02*
G37*
G36*
X436160Y266700D02*
X435984Y266665D01*
X435752Y266560D01*
X435465Y266384D01*
X435122Y266139D01*
X434272Y265438D01*
X432583Y263860D01*
X431909Y263194D01*
X430113Y264991D01*
X430779Y265664D01*
X433303Y268546D01*
X433479Y268833D01*
X433584Y269065D01*
X433619Y269242D01*
X436160Y266700D01*
D02*
G37*
G36*
X365770Y264711D02*
X365851Y263728D01*
X365923Y263291D01*
X366014Y262891D01*
X366126Y262527D01*
X366258Y262200D01*
X366410Y261909D01*
X366583Y261655D01*
X366776Y261438D01*
X359664D01*
X359857Y261655D01*
X360030Y261909D01*
X360182Y262200D01*
X360314Y262527D01*
X360426Y262891D01*
X360517Y263291D01*
X360589Y263728D01*
X360639Y264201D01*
X360680Y265257D01*
X365760D01*
X365770Y264711D01*
D02*
G37*
G36*
X100751Y260259D02*
X101024Y260166D01*
X101384Y260084D01*
X101833Y260013D01*
X102991Y259904D01*
X105383Y259822D01*
X106356Y259817D01*
X107384Y254737D01*
X106543Y254717D01*
X104968Y254562D01*
X104233Y254426D01*
X103533Y254252D01*
X102869Y254039D01*
X102240Y253787D01*
X101646Y253496D01*
X101088Y253166D01*
X100565Y252798D01*
Y260362D01*
X100751Y260259D01*
D02*
G37*
G36*
X115470Y252197D02*
X115419Y252679D01*
X115266Y253111D01*
X115010Y253492D01*
X114652Y253822D01*
X114192Y254102D01*
X113630Y254330D01*
X112966Y254508D01*
X112199Y254635D01*
X111330Y254711D01*
X110359Y254737D01*
Y259817D01*
X111330Y259842D01*
X112199Y259918D01*
X112966Y260045D01*
X113630Y260223D01*
X114192Y260452D01*
X114652Y260731D01*
X115010Y261061D01*
X115266Y261442D01*
X115419Y261874D01*
X115470Y262357D01*
Y252197D01*
D02*
G37*
G36*
X440521Y253750D02*
X440486Y253689D01*
X440456Y253588D01*
X440429Y253445D01*
X440407Y253263D01*
X440374Y252775D01*
X440356Y251738D01*
X438324D01*
X438322Y252125D01*
X438224Y253588D01*
X438194Y253689D01*
X438159Y253750D01*
X438120Y253771D01*
X440560D01*
X440521Y253750D01*
D02*
G37*
G36*
X430521D02*
X430486Y253689D01*
X430456Y253588D01*
X430429Y253445D01*
X430407Y253263D01*
X430374Y252775D01*
X430356Y251738D01*
X428324D01*
X428322Y252125D01*
X428224Y253588D01*
X428194Y253689D01*
X428159Y253750D01*
X428120Y253771D01*
X430560D01*
X430521Y253750D01*
D02*
G37*
G36*
X130991Y261137D02*
X131144Y260706D01*
X131398Y260325D01*
X131753Y259994D01*
X132211Y259715D01*
X132769Y259486D01*
X133430Y259309D01*
X134192Y259182D01*
X135055Y259105D01*
X136020Y259080D01*
Y254000D01*
X135055Y253975D01*
X134192Y253898D01*
X133430Y253771D01*
X132769Y253594D01*
X132211Y253365D01*
X131753Y253086D01*
X131398Y252755D01*
X131144Y252374D01*
X130991Y251943D01*
X130941Y251460D01*
Y261620D01*
X130991Y261137D01*
D02*
G37*
G36*
X101088Y237094D02*
X101646Y236764D01*
X102240Y236473D01*
X102869Y236221D01*
X103533Y236008D01*
X104233Y235833D01*
X104968Y235698D01*
X105738Y235601D01*
X106543Y235543D01*
X107384Y235523D01*
X106356Y230443D01*
X105383Y230438D01*
X101384Y230176D01*
X101024Y230094D01*
X100751Y230001D01*
X100565Y229898D01*
Y237462D01*
X101088Y237094D01*
D02*
G37*
G36*
X115440Y227903D02*
X115389Y228386D01*
X115236Y228818D01*
X114982Y229199D01*
X114627Y229529D01*
X114170Y229808D01*
X113611Y230037D01*
X112950Y230215D01*
X112188Y230342D01*
X111325Y230418D01*
X110359Y230443D01*
Y235523D01*
X111325Y235549D01*
X112188Y235625D01*
X112950Y235752D01*
X113611Y235930D01*
X114170Y236158D01*
X114627Y236438D01*
X114982Y236768D01*
X115236Y237149D01*
X115389Y237581D01*
X115440Y238063D01*
Y227903D01*
D02*
G37*
G36*
X555340Y203200D02*
X555315Y203441D01*
X555239Y203657D01*
X555112Y203848D01*
X554934Y204013D01*
X554706Y204153D01*
X554426Y204267D01*
X554096Y204356D01*
X553715Y204419D01*
X553283Y204457D01*
X552800Y204470D01*
Y207010D01*
X553283Y207023D01*
X553715Y207061D01*
X554096Y207124D01*
X554426Y207213D01*
X554706Y207327D01*
X554934Y207467D01*
X555112Y207632D01*
X555239Y207823D01*
X555315Y208039D01*
X555340Y208280D01*
Y203200D01*
D02*
G37*
G36*
X102259Y206399D02*
X101854Y206247D01*
X101497Y205993D01*
X101187Y205637D01*
X100925Y205180D01*
X100711Y204621D01*
X100544Y203961D01*
X100425Y203199D01*
X100354Y202335D01*
X100330Y201370D01*
X95250D01*
X95225Y202335D01*
X95149Y203199D01*
X95023Y203961D01*
X94847Y204621D01*
X94620Y205180D01*
X94342Y205637D01*
X94015Y205993D01*
X93637Y206247D01*
X93208Y206399D01*
X92729Y206450D01*
X102711D01*
X102259Y206399D01*
D02*
G37*
G36*
X127787Y205729D02*
X127356Y205576D01*
X126975Y205320D01*
X126644Y204962D01*
X126365Y204502D01*
X126136Y203940D01*
X125959Y203276D01*
X125832Y202509D01*
X125755Y201640D01*
X125730Y200669D01*
X120650D01*
X120625Y201640D01*
X120548Y202509D01*
X120421Y203276D01*
X120244Y203940D01*
X120015Y204502D01*
X119736Y204962D01*
X119405Y205320D01*
X119024Y205576D01*
X118593Y205729D01*
X118110Y205780D01*
X128270D01*
X127787Y205729D01*
D02*
G37*
G36*
X555340Y190580D02*
X555315Y190821D01*
X555239Y191037D01*
X555112Y191228D01*
X554934Y191393D01*
X554706Y191532D01*
X554426Y191647D01*
X554096Y191736D01*
X553715Y191799D01*
X553283Y191837D01*
X552800Y191850D01*
Y194390D01*
X553283Y194403D01*
X553715Y194441D01*
X554096Y194504D01*
X554426Y194593D01*
X554706Y194708D01*
X554934Y194847D01*
X555112Y195012D01*
X555239Y195203D01*
X555315Y195419D01*
X555340Y195660D01*
Y190580D01*
D02*
G37*
G36*
X118359Y184617D02*
X117972Y184221D01*
X117030Y183135D01*
X116788Y182808D01*
X116413Y182203D01*
X116280Y181927D01*
X116182Y181668D01*
X116122Y181425D01*
X112142Y187320D01*
X112436Y187284D01*
X112741Y187294D01*
X113057Y187350D01*
X113385Y187451D01*
X113723Y187599D01*
X114073Y187793D01*
X114434Y188032D01*
X114806Y188317D01*
X115189Y188649D01*
X115584Y189026D01*
X118359Y184617D01*
D02*
G37*
G36*
X483320Y190668D02*
X483381Y190506D01*
X483482Y190363D01*
X483625Y190239D01*
X483807Y190134D01*
X484031Y190049D01*
X484295Y189982D01*
X484600Y189934D01*
X484945Y189905D01*
X485331Y189896D01*
Y187864D01*
X484945Y187854D01*
X484600Y187826D01*
X484295Y187778D01*
X484031Y187711D01*
X483807Y187626D01*
X483625Y187521D01*
X483482Y187397D01*
X483381Y187254D01*
X483320Y187092D01*
X483299Y186910D01*
Y190849D01*
X483320Y190668D01*
D02*
G37*
G36*
X498709Y186848D02*
X498689Y187041D01*
X498628Y187214D01*
X498527Y187366D01*
X498384Y187498D01*
X498201Y187610D01*
X497978Y187701D01*
X497714Y187773D01*
X497409Y187823D01*
X497064Y187854D01*
X496678Y187864D01*
Y189896D01*
X497064Y189906D01*
X497409Y189937D01*
X497714Y189987D01*
X497978Y190058D01*
X498201Y190150D01*
X498384Y190262D01*
X498527Y190394D01*
X498628Y190546D01*
X498689Y190719D01*
X498709Y190912D01*
Y186848D01*
D02*
G37*
G36*
X539345Y191529D02*
X539422Y191313D01*
X539550Y191122D01*
X539730Y190957D01*
X539962Y190818D01*
X540244Y190703D01*
X540579Y190614D01*
X540964Y190551D01*
X541401Y190513D01*
X541889Y190500D01*
Y187960D01*
X541401Y187947D01*
X540964Y187909D01*
X540579Y187846D01*
X540244Y187757D01*
X539962Y187642D01*
X539730Y187503D01*
X539550Y187338D01*
X539422Y187147D01*
X539345Y186931D01*
X539319Y186690D01*
Y191770D01*
X539345Y191529D01*
D02*
G37*
G36*
X524941Y186328D02*
X524915Y186569D01*
X524838Y186785D01*
X524710Y186975D01*
X524530Y187141D01*
X524298Y187280D01*
X524016Y187395D01*
X523681Y187484D01*
X523296Y187547D01*
X522859Y187585D01*
X522370Y187598D01*
Y190138D01*
X522859Y190151D01*
X523296Y190189D01*
X523681Y190252D01*
X524016Y190341D01*
X524298Y190455D01*
X524530Y190595D01*
X524710Y190760D01*
X524838Y190951D01*
X524915Y191166D01*
X524941Y191408D01*
Y186328D01*
D02*
G37*
G36*
X512206Y191166D02*
X512283Y190951D01*
X512411Y190760D01*
X512591Y190595D01*
X512823Y190455D01*
X513105Y190341D01*
X513440Y190252D01*
X513825Y190189D01*
X514262Y190151D01*
X514751Y190138D01*
Y187598D01*
X514262Y187585D01*
X513825Y187547D01*
X513440Y187484D01*
X513105Y187395D01*
X512823Y187280D01*
X512591Y187141D01*
X512411Y186975D01*
X512283Y186785D01*
X512206Y186569D01*
X512180Y186328D01*
Y191408D01*
X512206Y191166D01*
D02*
G37*
G36*
X107061Y188649D02*
X107816Y188032D01*
X108177Y187793D01*
X108527Y187599D01*
X108865Y187451D01*
X109193Y187350D01*
X109509Y187294D01*
X109814Y187284D01*
X110108Y187320D01*
X106129Y181425D01*
X106067Y181668D01*
X105970Y181927D01*
X105837Y182203D01*
X105668Y182497D01*
X105462Y182808D01*
X104942Y183480D01*
X104628Y183842D01*
X103891Y184617D01*
X106666Y189026D01*
X107061Y188649D01*
D02*
G37*
G36*
X226155Y166795D02*
X226186Y166450D01*
X226237Y166145D01*
X226308Y165881D01*
X226399Y165658D01*
X226511Y165475D01*
X226643Y165332D01*
X226795Y165231D01*
X226968Y165170D01*
X227161Y165149D01*
X223097D01*
X223290Y165170D01*
X223463Y165231D01*
X223615Y165332D01*
X223747Y165475D01*
X223859Y165658D01*
X223951Y165881D01*
X224022Y166145D01*
X224072Y166450D01*
X224103Y166795D01*
X224113Y167181D01*
X226145D01*
X226155Y166795D01*
D02*
G37*
G36*
X200208Y166590D02*
X200235Y166287D01*
X200279Y166021D01*
X200341Y165790D01*
X200421Y165594D01*
X200519Y165434D01*
X200635Y165310D01*
X200768Y165221D01*
X200919Y165167D01*
X201088Y165149D01*
X197532D01*
X197701Y165167D01*
X197852Y165221D01*
X197985Y165310D01*
X198101Y165434D01*
X198199Y165594D01*
X198279Y165790D01*
X198341Y166021D01*
X198385Y166287D01*
X198412Y166590D01*
X198421Y166928D01*
X200199D01*
X200208Y166590D01*
D02*
G37*
G36*
X536727Y163240D02*
X536296Y163086D01*
X535915Y162831D01*
X535584Y162473D01*
X535305Y162013D01*
X535076Y161451D01*
X534899Y160787D01*
X534772Y160020D01*
X534695Y159151D01*
X534670Y158181D01*
X529590D01*
X529565Y159151D01*
X529488Y160020D01*
X529361Y160787D01*
X529184Y161451D01*
X528955Y162013D01*
X528676Y162473D01*
X528345Y162831D01*
X527964Y163086D01*
X527533Y163240D01*
X527050Y163291D01*
X537210D01*
X536727Y163240D01*
D02*
G37*
G36*
X730009Y155355D02*
X729793Y155278D01*
X729602Y155150D01*
X729437Y154970D01*
X729297Y154738D01*
X729183Y154456D01*
X729094Y154121D01*
X729031Y153736D01*
X728993Y153299D01*
X728980Y152810D01*
X726440D01*
X726427Y153299D01*
X726389Y153736D01*
X726326Y154121D01*
X726237Y154456D01*
X726123Y154738D01*
X725983Y154970D01*
X725818Y155150D01*
X725627Y155278D01*
X725411Y155355D01*
X725170Y155381D01*
X730250D01*
X730009Y155355D01*
D02*
G37*
G36*
X717309D02*
X717093Y155278D01*
X716902Y155150D01*
X716737Y154970D01*
X716598Y154738D01*
X716483Y154456D01*
X716394Y154121D01*
X716331Y153736D01*
X716293Y153299D01*
X716280Y152810D01*
X713740D01*
X713727Y153299D01*
X713689Y153736D01*
X713626Y154121D01*
X713537Y154456D01*
X713422Y154738D01*
X713283Y154970D01*
X713118Y155150D01*
X712927Y155278D01*
X712711Y155355D01*
X712470Y155381D01*
X717550D01*
X717309Y155355D01*
D02*
G37*
G36*
X704609D02*
X704393Y155278D01*
X704202Y155150D01*
X704037Y154970D01*
X703897Y154738D01*
X703783Y154456D01*
X703694Y154121D01*
X703631Y153736D01*
X703593Y153299D01*
X703580Y152810D01*
X701040D01*
X701027Y153299D01*
X700989Y153736D01*
X700926Y154121D01*
X700837Y154456D01*
X700723Y154738D01*
X700583Y154970D01*
X700418Y155150D01*
X700227Y155278D01*
X700011Y155355D01*
X699770Y155381D01*
X704850D01*
X704609Y155355D01*
D02*
G37*
G36*
X691909D02*
X691693Y155278D01*
X691502Y155150D01*
X691337Y154970D01*
X691198Y154738D01*
X691083Y154456D01*
X690994Y154121D01*
X690931Y153736D01*
X690893Y153299D01*
X690880Y152810D01*
X688340D01*
X688327Y153299D01*
X688289Y153736D01*
X688226Y154121D01*
X688137Y154456D01*
X688023Y154738D01*
X687883Y154970D01*
X687718Y155150D01*
X687527Y155278D01*
X687311Y155355D01*
X687070Y155381D01*
X692150D01*
X691909Y155355D01*
D02*
G37*
G36*
X679209D02*
X678993Y155278D01*
X678802Y155150D01*
X678637Y154970D01*
X678497Y154738D01*
X678383Y154456D01*
X678294Y154121D01*
X678231Y153736D01*
X678193Y153299D01*
X678180Y152810D01*
X675640D01*
X675627Y153299D01*
X675589Y153736D01*
X675526Y154121D01*
X675437Y154456D01*
X675322Y154738D01*
X675183Y154970D01*
X675018Y155150D01*
X674827Y155278D01*
X674611Y155355D01*
X674370Y155381D01*
X679450D01*
X679209Y155355D01*
D02*
G37*
G36*
X653809D02*
X653593Y155278D01*
X653402Y155150D01*
X653237Y154970D01*
X653098Y154738D01*
X652983Y154456D01*
X652894Y154121D01*
X652831Y153736D01*
X652793Y153299D01*
X652780Y152810D01*
X650240D01*
X650227Y153299D01*
X650189Y153736D01*
X650126Y154121D01*
X650037Y154456D01*
X649922Y154738D01*
X649783Y154970D01*
X649618Y155150D01*
X649427Y155278D01*
X649211Y155355D01*
X648970Y155381D01*
X654050D01*
X653809Y155355D01*
D02*
G37*
G36*
X641109D02*
X640893Y155278D01*
X640702Y155150D01*
X640537Y154970D01*
X640397Y154738D01*
X640283Y154456D01*
X640194Y154121D01*
X640131Y153736D01*
X640093Y153299D01*
X640080Y152810D01*
X637540D01*
X637527Y153299D01*
X637489Y153736D01*
X637426Y154121D01*
X637337Y154456D01*
X637223Y154738D01*
X637083Y154970D01*
X636918Y155150D01*
X636727Y155278D01*
X636511Y155355D01*
X636270Y155381D01*
X641350D01*
X641109Y155355D01*
D02*
G37*
G36*
X628409D02*
X628193Y155278D01*
X628002Y155150D01*
X627837Y154970D01*
X627697Y154738D01*
X627583Y154456D01*
X627494Y154121D01*
X627431Y153736D01*
X627393Y153299D01*
X627380Y152810D01*
X624840D01*
X624827Y153299D01*
X624789Y153736D01*
X624726Y154121D01*
X624637Y154456D01*
X624523Y154738D01*
X624383Y154970D01*
X624218Y155150D01*
X624027Y155278D01*
X623811Y155355D01*
X623570Y155381D01*
X628650D01*
X628409Y155355D01*
D02*
G37*
G36*
X615709D02*
X615493Y155278D01*
X615302Y155150D01*
X615137Y154970D01*
X614997Y154738D01*
X614883Y154456D01*
X614794Y154121D01*
X614731Y153736D01*
X614693Y153299D01*
X614680Y152810D01*
X612140D01*
X612127Y153299D01*
X612089Y153736D01*
X612026Y154121D01*
X611937Y154456D01*
X611823Y154738D01*
X611683Y154970D01*
X611518Y155150D01*
X611327Y155278D01*
X611111Y155355D01*
X610870Y155381D01*
X615950D01*
X615709Y155355D01*
D02*
G37*
G36*
X603009D02*
X602793Y155278D01*
X602602Y155150D01*
X602437Y154970D01*
X602298Y154738D01*
X602183Y154456D01*
X602094Y154121D01*
X602031Y153736D01*
X601993Y153299D01*
X601980Y152810D01*
X599440D01*
X599427Y153299D01*
X599389Y153736D01*
X599326Y154121D01*
X599237Y154456D01*
X599123Y154738D01*
X598983Y154970D01*
X598818Y155150D01*
X598627Y155278D01*
X598411Y155355D01*
X598170Y155381D01*
X603250D01*
X603009Y155355D01*
D02*
G37*
G36*
X55494Y152420D02*
X55325Y152164D01*
X55176Y151872D01*
X55047Y151544D01*
X54938Y151179D01*
X54849Y150778D01*
X54779Y150341D01*
X54730Y149867D01*
X54690Y148810D01*
X49610Y148717D01*
X49600Y149264D01*
X49517Y150246D01*
X49444Y150682D01*
X49350Y151081D01*
X49236Y151444D01*
X49101Y151770D01*
X48945Y152059D01*
X48769Y152311D01*
X48572Y152527D01*
X55683Y152639D01*
X55494Y152420D01*
D02*
G37*
G36*
X678193Y135001D02*
X678231Y134564D01*
X678294Y134179D01*
X678383Y133844D01*
X678497Y133562D01*
X678637Y133330D01*
X678802Y133150D01*
X678993Y133022D01*
X679209Y132945D01*
X679450Y132919D01*
X674370D01*
X674611Y132945D01*
X674827Y133022D01*
X675018Y133150D01*
X675183Y133330D01*
X675322Y133562D01*
X675437Y133844D01*
X675526Y134179D01*
X675589Y134564D01*
X675627Y135001D01*
X675640Y135490D01*
X678180D01*
X678193Y135001D01*
D02*
G37*
G36*
X659315Y137058D02*
X659392Y136190D01*
X659519Y135423D01*
X659696Y134759D01*
X659925Y134197D01*
X660204Y133737D01*
X660535Y133379D01*
X660916Y133124D01*
X661347Y132970D01*
X661830Y132919D01*
X651670D01*
X652153Y132970D01*
X652584Y133124D01*
X652965Y133379D01*
X653296Y133737D01*
X653575Y134197D01*
X653804Y134759D01*
X653981Y135423D01*
X654108Y136190D01*
X654185Y137058D01*
X654210Y138029D01*
X659290D01*
X659315Y137058D01*
D02*
G37*
G36*
X614693Y134861D02*
X614731Y134424D01*
X614794Y134039D01*
X614883Y133704D01*
X614997Y133422D01*
X615137Y133190D01*
X615302Y133010D01*
X615493Y132882D01*
X615709Y132805D01*
X615950Y132779D01*
X610870D01*
X611111Y132805D01*
X611327Y132882D01*
X611518Y133010D01*
X611683Y133190D01*
X611823Y133422D01*
X611937Y133704D01*
X612026Y134039D01*
X612089Y134424D01*
X612127Y134861D01*
X612140Y135350D01*
X614680D01*
X614693Y134861D01*
D02*
G37*
G36*
X716293Y133571D02*
X716331Y133134D01*
X716394Y132749D01*
X716483Y132414D01*
X716598Y132132D01*
X716737Y131900D01*
X716902Y131720D01*
X717093Y131592D01*
X717309Y131515D01*
X717550Y131489D01*
X712470D01*
X712711Y131515D01*
X712927Y131592D01*
X713118Y131720D01*
X713283Y131900D01*
X713422Y132132D01*
X713537Y132414D01*
X713626Y132749D01*
X713689Y133134D01*
X713727Y133571D01*
X713740Y134059D01*
X716280D01*
X716293Y133571D01*
D02*
G37*
G36*
X227428Y133215D02*
X227212Y133138D01*
X227022Y133010D01*
X226856Y132830D01*
X226717Y132598D01*
X226602Y132316D01*
X226514Y131981D01*
X226450Y131596D01*
X226412Y131159D01*
X226399Y130670D01*
X223859D01*
X223846Y131159D01*
X223808Y131596D01*
X223745Y131981D01*
X223656Y132316D01*
X223542Y132598D01*
X223402Y132830D01*
X223237Y133010D01*
X223046Y133138D01*
X222831Y133215D01*
X222589Y133241D01*
X227669D01*
X227428Y133215D01*
D02*
G37*
G36*
X201609D02*
X201393Y133138D01*
X201202Y133010D01*
X201037Y132830D01*
X200898Y132598D01*
X200783Y132316D01*
X200694Y131981D01*
X200631Y131596D01*
X200593Y131159D01*
X200580Y130670D01*
X198040D01*
X198027Y131159D01*
X197989Y131596D01*
X197926Y131981D01*
X197837Y132316D01*
X197722Y132598D01*
X197583Y132830D01*
X197418Y133010D01*
X197227Y133138D01*
X197011Y133215D01*
X196770Y133241D01*
X201850D01*
X201609Y133215D01*
D02*
G37*
G36*
X620625Y128664D02*
X620702Y128448D01*
X620830Y128257D01*
X621010Y128092D01*
X621242Y127952D01*
X621524Y127838D01*
X621859Y127749D01*
X622244Y127686D01*
X622681Y127648D01*
X623170Y127635D01*
Y125095D01*
X622681Y125082D01*
X622244Y125044D01*
X621859Y124981D01*
X621524Y124892D01*
X621242Y124777D01*
X621010Y124638D01*
X620830Y124473D01*
X620702Y124282D01*
X620625Y124066D01*
X620599Y123825D01*
Y128905D01*
X620625Y128664D01*
D02*
G37*
G36*
X680019Y118520D02*
X679846Y118458D01*
X679694Y118355D01*
X679562Y118211D01*
X679450Y118025D01*
X679359Y117799D01*
X679287Y117530D01*
X679237Y117221D01*
X679206Y116870D01*
X679196Y116479D01*
X677164D01*
X677154Y116870D01*
X677123Y117221D01*
X677073Y117530D01*
X677001Y117799D01*
X676910Y118025D01*
X676798Y118211D01*
X676666Y118355D01*
X676514Y118458D01*
X676341Y118520D01*
X676148Y118541D01*
X680212D01*
X680019Y118520D01*
D02*
G37*
G36*
X716451Y117094D02*
X716389Y117044D01*
X716335Y116961D01*
X716287Y116845D01*
X716247Y116695D01*
X716215Y116512D01*
X716189Y116295D01*
X716160Y115763D01*
X716156Y115446D01*
X713616D01*
X713613Y115763D01*
X713558Y116512D01*
X713525Y116695D01*
X713485Y116845D01*
X713438Y116961D01*
X713383Y117044D01*
X713321Y117094D01*
X713252Y117111D01*
X716520D01*
X716451Y117094D01*
D02*
G37*
G36*
X105329Y114985D02*
X105113Y114909D01*
X104922Y114782D01*
X104757Y114604D01*
X104618Y114375D01*
X104503Y114096D01*
X104414Y113766D01*
X104351Y113385D01*
X104313Y112953D01*
X104300Y112471D01*
X101760D01*
X101747Y112953D01*
X101709Y113385D01*
X101646Y113766D01*
X101557Y114096D01*
X101442Y114375D01*
X101303Y114604D01*
X101138Y114782D01*
X100947Y114909D01*
X100731Y114985D01*
X100490Y115010D01*
X105570D01*
X105329Y114985D01*
D02*
G37*
G36*
X740017Y117060D02*
X739586Y116906D01*
X739205Y116651D01*
X738874Y116293D01*
X738595Y115833D01*
X738366Y115271D01*
X738189Y114607D01*
X738062Y113840D01*
X737985Y112971D01*
X737960Y112001D01*
X732880D01*
X732855Y112971D01*
X732778Y113840D01*
X732651Y114607D01*
X732474Y115271D01*
X732245Y115833D01*
X731966Y116293D01*
X731635Y116651D01*
X731254Y116906D01*
X730823Y117060D01*
X730340Y117111D01*
X740500D01*
X740017Y117060D01*
D02*
G37*
G36*
X576593Y111678D02*
X576631Y111246D01*
X576694Y110865D01*
X576783Y110535D01*
X576898Y110255D01*
X577037Y110027D01*
X577202Y109849D01*
X577393Y109722D01*
X577609Y109646D01*
X577850Y109621D01*
X572770D01*
X573011Y109646D01*
X573227Y109722D01*
X573418Y109849D01*
X573583Y110027D01*
X573722Y110255D01*
X573837Y110535D01*
X573926Y110865D01*
X573989Y111246D01*
X574027Y111678D01*
X574040Y112161D01*
X576580D01*
X576593Y111678D01*
D02*
G37*
G36*
X618007Y100820D02*
X617576Y100667D01*
X617195Y100413D01*
X616864Y100058D01*
X616585Y99600D01*
X616356Y99042D01*
X616179Y98381D01*
X616052Y97619D01*
X615975Y96756D01*
X615950Y95791D01*
X610870D01*
X610845Y96756D01*
X610768Y97619D01*
X610641Y98381D01*
X610464Y99042D01*
X610235Y99600D01*
X609956Y100058D01*
X609625Y100413D01*
X609244Y100667D01*
X608813Y100820D01*
X608330Y100871D01*
X618490D01*
X618007Y100820D01*
D02*
G37*
G36*
X578009Y96124D02*
X577793Y96047D01*
X577602Y95919D01*
X577437Y95739D01*
X577298Y95507D01*
X577183Y95225D01*
X577094Y94890D01*
X577031Y94505D01*
X576993Y94068D01*
X576980Y93580D01*
X574440D01*
X574427Y94068D01*
X574389Y94505D01*
X574326Y94890D01*
X574237Y95225D01*
X574123Y95507D01*
X573983Y95739D01*
X573818Y95919D01*
X573627Y96047D01*
X573411Y96124D01*
X573170Y96150D01*
X578250D01*
X578009Y96124D01*
D02*
G37*
G36*
X685805Y84753D02*
X685842Y84186D01*
X685875Y83956D01*
X685918Y83761D01*
X685969Y83602D01*
X686031Y83478D01*
X686101Y83389D01*
X686181Y83336D01*
X686271Y83319D01*
X682789D01*
X682878Y83336D01*
X682959Y83389D01*
X683029Y83478D01*
X683091Y83602D01*
X683142Y83761D01*
X683185Y83956D01*
X683218Y84186D01*
X683241Y84452D01*
X683260Y85090D01*
X685800D01*
X685805Y84753D01*
D02*
G37*
G36*
X673105Y84753D02*
X673142Y84187D01*
X673175Y83956D01*
X673218Y83761D01*
X673270Y83602D01*
X673331Y83478D01*
X673401Y83389D01*
X673482Y83336D01*
X673571Y83319D01*
X670089D01*
X670179Y83336D01*
X670259Y83389D01*
X670329Y83478D01*
X670390Y83602D01*
X670442Y83761D01*
X670485Y83956D01*
X670518Y84187D01*
X670541Y84452D01*
X670560Y85090D01*
X673100D01*
X673105Y84753D01*
D02*
G37*
G36*
X584139Y82765D02*
X584207Y82333D01*
X584322Y81936D01*
X584482Y81576D01*
X584688Y81252D01*
X584939Y80964D01*
X585237Y80713D01*
X585580Y80498D01*
X585969Y80319D01*
X586403Y80176D01*
X579645Y78716D01*
X580012Y79049D01*
X580340Y79408D01*
X580630Y79794D01*
X580881Y80206D01*
X581093Y80645D01*
X581267Y81110D01*
X581402Y81601D01*
X581499Y82119D01*
X581557Y82663D01*
X581576Y83234D01*
X584116D01*
X584139Y82765D01*
D02*
G37*
G36*
X656152Y70510D02*
X656100Y70993D01*
X655947Y71424D01*
X655692Y71805D01*
X655334Y72136D01*
X654874Y72415D01*
X654312Y72644D01*
X653647Y72821D01*
X652881Y72948D01*
X652012Y73025D01*
X651041Y73050D01*
Y78130D01*
X652012Y78155D01*
X652881Y78232D01*
X653647Y78359D01*
X654312Y78536D01*
X654874Y78765D01*
X655334Y79044D01*
X655692Y79375D01*
X655947Y79756D01*
X656100Y80187D01*
X656152Y80670D01*
Y70510D01*
D02*
G37*
G36*
X104313Y70231D02*
X104351Y69794D01*
X104414Y69409D01*
X104503Y69074D01*
X104618Y68792D01*
X104757Y68560D01*
X104922Y68380D01*
X105113Y68252D01*
X105329Y68175D01*
X105570Y68149D01*
X100490D01*
X100731Y68175D01*
X100947Y68252D01*
X101138Y68380D01*
X101303Y68560D01*
X101442Y68792D01*
X101557Y69074D01*
X101646Y69409D01*
X101709Y69794D01*
X101747Y70231D01*
X101760Y70719D01*
X104300D01*
X104313Y70231D01*
D02*
G37*
G36*
X36845Y70963D02*
X36963Y69678D01*
X37066Y69156D01*
X37199Y68714D01*
X37361Y68353D01*
X37553Y68072D01*
X37774Y67871D01*
X38025Y67751D01*
X38305Y67710D01*
X30275D01*
X30555Y67751D01*
X30806Y67871D01*
X31027Y68072D01*
X31219Y68353D01*
X31381Y68714D01*
X31514Y69156D01*
X31617Y69678D01*
X31691Y70280D01*
X31735Y70963D01*
X31750Y71726D01*
X36830D01*
X36845Y70963D01*
D02*
G37*
G36*
X699031Y67841D02*
X698867Y67781D01*
X698721Y67680D01*
X698595Y67539D01*
X698488Y67357D01*
X698401Y67136D01*
X698333Y66874D01*
X698285Y66571D01*
X698256Y66228D01*
X698246Y65845D01*
X696214D01*
X696204Y66228D01*
X696175Y66571D01*
X696127Y66874D01*
X696059Y67136D01*
X695972Y67357D01*
X695865Y67539D01*
X695739Y67680D01*
X695593Y67781D01*
X695429Y67841D01*
X695245Y67861D01*
X699215D01*
X699031Y67841D01*
D02*
G37*
G36*
X78912Y64987D02*
X78948Y64555D01*
X79007Y64174D01*
X79090Y63844D01*
X79197Y63565D01*
X79328Y63336D01*
X79483Y63158D01*
X79661Y63031D01*
X79864Y62955D01*
X80090Y62930D01*
X75350D01*
X75542Y62955D01*
X75714Y63031D01*
X75865Y63158D01*
X75997Y63336D01*
X76108Y63565D01*
X76199Y63844D01*
X76269Y64174D01*
X76320Y64555D01*
X76350Y64987D01*
X76360Y65469D01*
X78900D01*
X78912Y64987D01*
D02*
G37*
G36*
X40101Y63718D02*
X40193Y63459D01*
X40347Y63231D01*
X40563Y63033D01*
X40840Y62865D01*
X41178Y62728D01*
X41578Y62621D01*
X42040Y62545D01*
X42564Y62499D01*
X43148Y62484D01*
Y59436D01*
X42564Y59421D01*
X42040Y59375D01*
X41578Y59299D01*
X41178Y59192D01*
X40840Y59055D01*
X40563Y58887D01*
X40347Y58689D01*
X40193Y58461D01*
X40101Y58202D01*
X40070Y57912D01*
Y59338D01*
X36653Y59163D01*
Y62757D01*
X36755Y62705D01*
X36953Y62659D01*
X37246Y62618D01*
X38119Y62552D01*
X40070Y62518D01*
Y64008D01*
X40101Y63718D01*
D02*
G37*
G36*
X62151Y58991D02*
X62120Y59075D01*
X62029Y59151D01*
X61876Y59218D01*
X61663Y59276D01*
X61389Y59325D01*
X61053Y59365D01*
X60200Y59418D01*
X59103Y59436D01*
Y62484D01*
X59682Y62488D01*
X61389Y62595D01*
X61663Y62644D01*
X61876Y62702D01*
X62029Y62769D01*
X62120Y62845D01*
X62151Y62930D01*
Y58991D01*
D02*
G37*
G36*
X142422Y57404D02*
X142205Y57597D01*
X141951Y57770D01*
X141660Y57922D01*
X141333Y58054D01*
X140969Y58166D01*
X140569Y58257D01*
X140132Y58329D01*
X139659Y58379D01*
X138603Y58420D01*
Y63500D01*
X139149Y63510D01*
X140132Y63591D01*
X140569Y63663D01*
X140969Y63754D01*
X141333Y63866D01*
X141660Y63998D01*
X141951Y64150D01*
X142205Y64323D01*
X142422Y64516D01*
Y57404D01*
D02*
G37*
G36*
X79881Y58965D02*
X79694Y58889D01*
X79529Y58762D01*
X79386Y58584D01*
X79265Y58355D01*
X79166Y58076D01*
X79089Y57746D01*
X79034Y57365D01*
X79001Y56933D01*
X78990Y56451D01*
X76450D01*
X76439Y56933D01*
X76406Y57365D01*
X76351Y57746D01*
X76274Y58076D01*
X76175Y58355D01*
X76054Y58584D01*
X75911Y58762D01*
X75746Y58889D01*
X75559Y58965D01*
X75350Y58991D01*
X80090D01*
X79881Y58965D01*
D02*
G37*
G36*
X129020Y65557D02*
X129173Y65126D01*
X129429Y64745D01*
X129787Y64414D01*
X130247Y64135D01*
X130809Y63906D01*
X131473Y63729D01*
X132240Y63602D01*
X133109Y63525D01*
X134080Y63500D01*
Y58420D01*
X133109Y58395D01*
X132240Y58318D01*
X131473Y58191D01*
X130809Y58014D01*
X130247Y57785D01*
X129787Y57506D01*
X129429Y57175D01*
X129173Y56794D01*
X129020Y56363D01*
X128969Y55880D01*
Y66040D01*
X129020Y65557D01*
D02*
G37*
G36*
X105329Y53745D02*
X105113Y53668D01*
X104922Y53540D01*
X104757Y53360D01*
X104618Y53128D01*
X104503Y52846D01*
X104414Y52511D01*
X104351Y52126D01*
X104313Y51689D01*
X104300Y51200D01*
X101760D01*
X101747Y51689D01*
X101709Y52126D01*
X101646Y52511D01*
X101557Y52846D01*
X101442Y53128D01*
X101303Y53360D01*
X101138Y53540D01*
X100947Y53668D01*
X100731Y53745D01*
X100490Y53771D01*
X105570D01*
X105329Y53745D01*
D02*
G37*
G36*
X39455Y54189D02*
X39023Y54036D01*
X38642Y53780D01*
X38312Y53422D01*
X38033Y52962D01*
X37804Y52400D01*
X37626Y51736D01*
X37499Y50969D01*
X37423Y50100D01*
X37398Y49130D01*
X32318D01*
X32292Y50100D01*
X32216Y50969D01*
X32089Y51736D01*
X31911Y52400D01*
X31683Y52962D01*
X31403Y53422D01*
X31073Y53780D01*
X30692Y54036D01*
X30260Y54189D01*
X29778Y54240D01*
X39938D01*
X39455Y54189D01*
D02*
G37*
G36*
X62370Y35174D02*
X62093Y34856D01*
X61817Y34457D01*
X61542Y33978D01*
X61268Y33418D01*
X60996Y32778D01*
X60455Y31256D01*
X59919Y29412D01*
X59653Y28369D01*
X54763Y36619D01*
X55602Y36421D01*
X56394Y36284D01*
X57139Y36210D01*
X57837Y36199D01*
X58489Y36250D01*
X59093Y36363D01*
X59651Y36538D01*
X60162Y36776D01*
X60625Y37076D01*
X61042Y37438D01*
X62370Y35174D01*
D02*
G37*
G36*
X36498Y36225D02*
X36041Y35734D01*
X35640Y35231D01*
X35293Y34714D01*
X35001Y34185D01*
X34765Y33643D01*
X34584Y33089D01*
X34457Y32521D01*
X34386Y31941D01*
X34370Y31348D01*
X34410Y30742D01*
X27043Y36827D01*
X27661Y36899D01*
X28264Y37014D01*
X28851Y37170D01*
X29424Y37369D01*
X29981Y37610D01*
X30522Y37893D01*
X31049Y38219D01*
X31560Y38586D01*
X32056Y38996D01*
X32537Y39448D01*
X36498Y36225D01*
D02*
G37*
G36*
X402217Y38229D02*
X402664Y37931D01*
X403176Y37669D01*
X403751Y37443D01*
X404389Y37253D01*
X405090Y37100D01*
X405855Y36983D01*
X406684Y36902D01*
X408531Y36850D01*
X401750Y30069D01*
X401742Y31024D01*
X401617Y32745D01*
X401500Y33510D01*
X401346Y34211D01*
X401157Y34849D01*
X400931Y35424D01*
X400669Y35935D01*
X400371Y36383D01*
X400036Y36768D01*
X401832Y38564D01*
X402217Y38229D01*
D02*
G37*
G36*
X376817D02*
X377264Y37931D01*
X377776Y37669D01*
X378351Y37443D01*
X378989Y37253D01*
X379690Y37100D01*
X380456Y36983D01*
X381284Y36902D01*
X383131Y36850D01*
X376350Y30069D01*
X376342Y31024D01*
X376217Y32745D01*
X376100Y33510D01*
X375946Y34211D01*
X375757Y34849D01*
X375531Y35424D01*
X375269Y35935D01*
X374971Y36383D01*
X374636Y36768D01*
X376432Y38564D01*
X376817Y38229D01*
D02*
G37*
G36*
X718845Y33719D02*
X718922Y32851D01*
X719049Y32084D01*
X719226Y31420D01*
X719455Y30858D01*
X719734Y30398D01*
X720065Y30040D01*
X720446Y29784D01*
X720877Y29631D01*
X721360Y29580D01*
X711200D01*
X711683Y29631D01*
X712114Y29784D01*
X712495Y30040D01*
X712826Y30398D01*
X713105Y30858D01*
X713334Y31420D01*
X713511Y32084D01*
X713638Y32851D01*
X713715Y33719D01*
X713740Y34690D01*
X718820D01*
X718845Y33719D01*
D02*
G37*
G36*
X681552Y16510D02*
X681500Y16993D01*
X681347Y17424D01*
X681092Y17805D01*
X680734Y18136D01*
X680274Y18415D01*
X679712Y18644D01*
X679047Y18821D01*
X678281Y18948D01*
X678180Y18957D01*
X678079Y18948D01*
X677313Y18821D01*
X676648Y18644D01*
X676086Y18415D01*
X675626Y18136D01*
X675268Y17805D01*
X675013Y17424D01*
X674860Y16993D01*
X674809Y16510D01*
Y26670D01*
X674860Y26187D01*
X675013Y25756D01*
X675268Y25375D01*
X675626Y25044D01*
X676086Y24765D01*
X676648Y24536D01*
X677313Y24359D01*
X678079Y24232D01*
X678180Y24223D01*
X678281Y24232D01*
X679047Y24359D01*
X679712Y24536D01*
X680274Y24765D01*
X680734Y25044D01*
X681092Y25375D01*
X681347Y25756D01*
X681500Y26187D01*
X681552Y26670D01*
Y16510D01*
D02*
G37*
G36*
X668851D02*
X668800Y16993D01*
X668647Y17424D01*
X668391Y17805D01*
X668034Y18136D01*
X667574Y18415D01*
X667012Y18644D01*
X666347Y18821D01*
X665581Y18948D01*
X665480Y18957D01*
X665379Y18948D01*
X664613Y18821D01*
X663948Y18644D01*
X663386Y18415D01*
X662926Y18136D01*
X662569Y17805D01*
X662313Y17424D01*
X662160Y16993D01*
X662109Y16510D01*
Y26670D01*
X662160Y26187D01*
X662313Y25756D01*
X662569Y25375D01*
X662926Y25044D01*
X663386Y24765D01*
X663948Y24536D01*
X664613Y24359D01*
X665379Y24232D01*
X665480Y24223D01*
X665581Y24232D01*
X666347Y24359D01*
X667012Y24536D01*
X667574Y24765D01*
X668034Y25044D01*
X668391Y25375D01*
X668647Y25756D01*
X668800Y26187D01*
X668851Y26670D01*
Y16510D01*
D02*
G37*
G36*
X336767Y24655D02*
X336383Y24178D01*
X336045Y23678D01*
X335752Y23154D01*
X335504Y22608D01*
X335301Y22038D01*
X335143Y21446D01*
X335030Y20830D01*
X334963Y20191D01*
X334940Y19528D01*
X329860D01*
X329837Y20191D01*
X329770Y20830D01*
X329657Y21446D01*
X329499Y22038D01*
X329296Y22608D01*
X329048Y23154D01*
X328755Y23678D01*
X328417Y24178D01*
X328033Y24655D01*
X327605Y25108D01*
X337195D01*
X336767Y24655D01*
D02*
G37*
G36*
X489567Y23130D02*
X489136Y22977D01*
X488755Y22723D01*
X488424Y22368D01*
X488145Y21911D01*
X487916Y21352D01*
X487739Y20691D01*
X487612Y19929D01*
X487535Y19066D01*
X487510Y18101D01*
X482430D01*
X482405Y19066D01*
X482328Y19929D01*
X482201Y20691D01*
X482024Y21352D01*
X481795Y21911D01*
X481516Y22368D01*
X481185Y22723D01*
X480804Y22977D01*
X480373Y23130D01*
X479890Y23180D01*
X490050D01*
X489567Y23130D01*
D02*
G37*
G36*
X736059Y27140D02*
X736212Y26708D01*
X736468Y26327D01*
X736825Y25997D01*
X737286Y25717D01*
X737848Y25489D01*
X738512Y25311D01*
X739279Y25184D01*
X740147Y25108D01*
X741118Y25082D01*
Y20003D01*
X740147Y19977D01*
X739279Y19901D01*
X738512Y19774D01*
X737848Y19596D01*
X737286Y19368D01*
X736825Y19088D01*
X736468Y18758D01*
X736212Y18377D01*
X736059Y17945D01*
X736008Y17463D01*
Y27622D01*
X736059Y27140D01*
D02*
G37*
G36*
X589027Y20420D02*
X588596Y20267D01*
X588215Y20013D01*
X587884Y19658D01*
X587605Y19201D01*
X587376Y18642D01*
X587199Y17981D01*
X587072Y17219D01*
X586995Y16356D01*
X586970Y15390D01*
X581890D01*
X581865Y16356D01*
X581788Y17219D01*
X581661Y17981D01*
X581484Y18642D01*
X581255Y19201D01*
X580976Y19658D01*
X580645Y20013D01*
X580264Y20267D01*
X579833Y20420D01*
X579350Y20470D01*
X589510D01*
X589027Y20420D01*
D02*
G37*
G36*
X661927Y13908D02*
X661873Y13737D01*
X661825Y13470D01*
X661784Y13105D01*
X661699Y11432D01*
X661670Y8890D01*
X656590D01*
X656587Y9834D01*
X656333Y13908D01*
X656273Y13983D01*
X661987D01*
X661927Y13908D01*
D02*
G37*
D15*
X103048Y390067D02*
X105410Y392430D01*
X93261Y394989D02*
X98126D01*
X103048Y390067D01*
X101900Y388920D02*
X103048Y390067D01*
X93250Y395000D02*
X93261Y394989D01*
X255080Y426571D02*
Y446850D01*
X270510Y462280D02*
X379730D01*
X255080Y446850D02*
X270510Y462280D01*
X219877Y304967D02*
X219877D01*
X213360Y293008D02*
X214795Y294443D01*
Y299885D02*
X219877Y304967D01*
X214795Y294443D02*
Y299885D01*
X219877Y304967D02*
X230070Y315160D01*
Y340804D01*
X184150Y293008D02*
Y302340D01*
X160020Y304800D02*
X181690D01*
X184150Y302340D01*
Y293008D02*
X213360D01*
Y348088D02*
X231606D01*
X233829Y350310D02*
X246080D01*
X231606Y348088D02*
X233829Y350310D01*
X230070Y340804D02*
X234576Y345310D01*
X421340Y259240D02*
X426159D01*
X436159Y269240D01*
X201930Y444500D02*
Y480060D01*
X182220Y424790D02*
X201930Y444500D01*
X182220Y409102D02*
Y424790D01*
X414020Y275350D02*
Y295830D01*
Y275350D02*
X420130Y269240D01*
X421340D01*
X434340Y105823D02*
Y256240D01*
Y105823D02*
X447453Y92710D01*
X103030Y49470D02*
X120365Y32135D01*
X103030Y49470D02*
Y60960D01*
X120365Y32135D02*
X127065D01*
X103030Y60960D02*
Y124300D01*
X127065Y32135D02*
X129200Y30000D01*
X101600Y125730D02*
X103030Y124300D01*
X76200Y124460D02*
X77630Y123030D01*
X671830Y75590D02*
Y85090D01*
X684530Y75590D02*
Y85090D01*
X91295Y421445D02*
Y436775D01*
X91440Y436920D01*
X91150Y421300D02*
X91295Y421445D01*
X684530Y85090D02*
X714886Y115446D01*
Y125926D02*
X715010Y126050D01*
X714886Y115446D02*
Y125926D01*
X61210Y439420D02*
X73660D01*
X110480Y352730D02*
X128909D01*
X129540Y353361D01*
Y361800D01*
X110250Y352500D02*
X110480Y352730D01*
X664718Y408642D02*
X666870Y410794D01*
X684530D01*
X662642Y408642D02*
X664718D01*
X661670Y407670D02*
X662642Y408642D01*
X684530Y406400D02*
X684690Y406240D01*
Y373380D02*
Y406240D01*
X449580Y345440D02*
Y434340D01*
X455930Y440690D01*
X461010Y435610D01*
X500380D01*
X370840Y354330D02*
Y405130D01*
X362610Y413360D02*
X370840Y405130D01*
X355480Y413360D02*
X362610D01*
X364490Y327660D02*
X384810Y307340D01*
Y166541D02*
X401491Y149860D01*
X384810Y166541D02*
Y307340D01*
X345550Y328850D02*
Y336500D01*
Y328850D02*
X346740Y327660D01*
X364490D01*
X345440Y336610D02*
X345550Y336500D01*
X674370Y467360D02*
X696120D01*
X274320Y49530D02*
X363670D01*
X383200Y30000D01*
X199310Y124540D02*
Y139180D01*
Y124540D02*
X274320Y49530D01*
X377640Y60960D02*
X408600Y30000D01*
X289899Y60960D02*
X377640D01*
X225129Y125730D02*
X289899Y60960D01*
X225129Y125730D02*
Y139180D01*
X455930Y440690D02*
Y480060D01*
X500740Y435970D02*
X526300D01*
X500380Y435610D02*
X500740Y435970D01*
X255080Y384310D02*
Y426571D01*
X275757Y447247D01*
X77720Y52320D02*
Y60960D01*
X55400Y30000D02*
X77720Y52320D01*
X77630Y62140D02*
Y123030D01*
X102130Y365230D02*
X104400Y367500D01*
X101900Y353900D02*
Y365460D01*
X95250Y347250D02*
X101900Y353900D01*
X110180Y392430D02*
X110250Y392500D01*
X105410Y392430D02*
X110180D01*
X101900Y365460D02*
Y388920D01*
X97590Y369770D02*
X101900Y365460D01*
X104400Y367500D02*
X110250D01*
X93480Y369770D02*
X97590D01*
X93250Y370000D02*
X93480Y369770D01*
X48010Y400000D02*
Y439420D01*
Y400000D02*
X53010Y395000D01*
X93250D01*
Y410000D02*
X100615D01*
X103115Y407500D02*
X110250D01*
X100615Y410000D02*
X103115Y407500D01*
X91150Y410230D02*
X91380Y410000D01*
X91150Y410230D02*
Y421300D01*
X91380Y410000D02*
X93250D01*
X613410Y126525D02*
Y147320D01*
X613250Y126365D02*
X613410Y126525D01*
X613250Y126365D02*
X630555D01*
X671830Y85090D01*
X574586Y102870D02*
X575710Y101746D01*
Y90370D02*
Y101746D01*
Y90370D02*
X582846Y83234D01*
Y74524D02*
X584430Y72940D01*
X582846Y74524D02*
Y83234D01*
X575310Y103594D02*
Y149860D01*
X574586Y102870D02*
X575310Y103594D01*
X613410Y147320D02*
Y162820D01*
X715010Y126050D02*
Y147320D01*
X676910Y125890D02*
Y147320D01*
X676750Y125730D02*
X676910Y125890D01*
X575310Y149860D02*
Y162820D01*
X354940Y367640D02*
X356550Y369250D01*
Y381000D01*
X354940Y359350D02*
Y367640D01*
X532130Y189230D02*
X546100D01*
X549990Y193120D02*
X562810D01*
X546100Y189230D02*
X549990Y193120D01*
X505460Y188868D02*
X531768D01*
X532130Y189230D01*
X379730Y462280D02*
X384810Y457200D01*
Y351790D02*
Y457200D01*
X275757Y447247D02*
X336343D01*
X335940Y350016D02*
Y356810D01*
Y350016D02*
X339246Y346710D01*
X379730D01*
X384810Y351790D01*
X335280Y382270D02*
X336550Y381000D01*
X335280Y382270D02*
Y403860D01*
X284544D02*
X335280D01*
X275080Y394396D02*
X284544Y403860D01*
X275080Y384310D02*
Y394396D01*
X335280Y422860D02*
X372060D01*
X373380Y424180D01*
Y446057D01*
X356343Y447247D02*
X372190D01*
X373380Y446057D01*
X562730Y294640D02*
X562810Y294720D01*
X562730Y205740D02*
X562810Y205820D01*
X547370Y205740D02*
X562730D01*
X600710Y147320D02*
Y162820D01*
X626110Y147320D02*
Y162820D01*
X638810Y147320D02*
Y162820D01*
X651510Y147320D02*
Y162820D01*
X676910Y147320D02*
Y162820D01*
X689610Y147320D02*
Y162820D01*
X702310Y147320D02*
Y162820D01*
X715010Y147320D02*
Y162820D01*
X727710Y147320D02*
Y162820D01*
X676910Y337820D02*
Y353060D01*
X638810Y337820D02*
Y353060D01*
X575310Y337820D02*
Y353060D01*
X715010Y337820D02*
Y353060D01*
X702310Y337820D02*
Y353060D01*
X689610Y337820D02*
Y353060D01*
X664210Y337820D02*
Y353060D01*
X651510Y337820D02*
Y353060D01*
X626110Y337820D02*
Y353060D01*
X613410Y337820D02*
Y353060D01*
X600710Y337820D02*
Y353060D01*
X588010Y337820D02*
Y353060D01*
X186690Y348088D02*
X213360D01*
X234576Y345310D02*
X246080D01*
D17*
X434340Y282240D02*
D03*
Y256240D02*
D03*
X439340D02*
D03*
X429340D02*
D03*
X439340Y282240D02*
D03*
X429340D02*
D03*
D18*
X447340Y269240D02*
D03*
X421340D02*
D03*
X447340Y279240D02*
D03*
Y259240D02*
D03*
X421340D02*
D03*
Y279240D02*
D03*
D19*
X704690Y373380D02*
D03*
X684690D02*
D03*
X715170Y124300D02*
D03*
X735170D02*
D03*
X676750Y125730D02*
D03*
X656750D02*
D03*
X123030Y60960D02*
D03*
X103030D02*
D03*
X696120Y467360D02*
D03*
X716120D02*
D03*
X26830Y312420D02*
D03*
X46830D02*
D03*
X336343Y447247D02*
D03*
X356343D02*
D03*
X336550Y381000D02*
D03*
X356550D02*
D03*
D20*
X64520Y60960D02*
D03*
X77720D02*
D03*
X61210Y439420D02*
D03*
X48010D02*
D03*
D21*
X354940Y356810D02*
D03*
X335940D02*
D03*
X345440Y336610D02*
D03*
D22*
X659370Y467360D02*
D03*
X674370D02*
D03*
D23*
X740410Y337820D02*
D03*
X727710D02*
D03*
X715010D02*
D03*
X702310D02*
D03*
X689610D02*
D03*
X676910D02*
D03*
X664210D02*
D03*
X651510D02*
D03*
X638810D02*
D03*
X626110D02*
D03*
X613410D02*
D03*
X600710D02*
D03*
X588010D02*
D03*
X575310D02*
D03*
Y162820D02*
D03*
X588010D02*
D03*
X600710D02*
D03*
X613410D02*
D03*
X626110D02*
D03*
X638810D02*
D03*
X651510D02*
D03*
X664210D02*
D03*
X676910D02*
D03*
X689610D02*
D03*
X702310D02*
D03*
X715010D02*
D03*
X727710D02*
D03*
X740410D02*
D03*
D24*
X562810Y307420D02*
D03*
Y294720D02*
D03*
Y282020D02*
D03*
Y269320D02*
D03*
Y256620D02*
D03*
Y243920D02*
D03*
Y231220D02*
D03*
Y218520D02*
D03*
Y205820D02*
D03*
Y193120D02*
D03*
D25*
X677210Y279320D02*
D03*
Y265320D02*
D03*
Y251320D02*
D03*
X663210Y279320D02*
D03*
Y265320D02*
D03*
Y251320D02*
D03*
X649210Y265320D02*
D03*
Y251320D02*
D03*
D27*
X697230Y75590D02*
D03*
X684530D02*
D03*
X671830D02*
D03*
X659130D02*
D03*
Y21590D02*
D03*
X671830D02*
D03*
X684530D02*
D03*
X697230D02*
D03*
D28*
X246080Y375310D02*
D03*
Y370310D02*
D03*
Y365310D02*
D03*
X242830Y360310D02*
D03*
X246080Y355310D02*
D03*
Y350310D02*
D03*
Y345310D02*
D03*
X255080Y336310D02*
D03*
X260080D02*
D03*
X265080D02*
D03*
X270080Y333060D02*
D03*
X275080Y336310D02*
D03*
X280080D02*
D03*
X285080D02*
D03*
X294080Y345310D02*
D03*
Y350310D02*
D03*
Y355310D02*
D03*
X296830Y360310D02*
D03*
X294080Y365310D02*
D03*
Y370310D02*
D03*
Y375310D02*
D03*
X285080Y384310D02*
D03*
X280080D02*
D03*
X275080D02*
D03*
X270080Y387060D02*
D03*
X265080Y384310D02*
D03*
X260080D02*
D03*
X255080D02*
D03*
D29*
X213360Y278492D02*
D03*
Y293008D02*
D03*
X505460Y188868D02*
D03*
Y174352D02*
D03*
X186690Y348088D02*
D03*
Y333572D02*
D03*
X500380Y435610D02*
D03*
Y421094D02*
D03*
X213360Y348088D02*
D03*
Y333572D02*
D03*
X468630Y268694D02*
D03*
Y283210D02*
D03*
X184150Y278492D02*
D03*
Y293008D02*
D03*
D30*
X715204Y412750D02*
D03*
X733720D02*
D03*
D31*
X468330Y188880D02*
D03*
Y176880D02*
D03*
X481330D02*
D03*
Y188880D02*
D03*
D32*
X468330Y182880D02*
D03*
X481330D02*
D03*
D33*
X97720Y210780D02*
D03*
D34*
Y233680D02*
D03*
Y256580D02*
D03*
D35*
X31820Y233680D02*
D03*
D36*
X182220Y409102D02*
D03*
D37*
X163220D02*
D03*
X172720Y390898D02*
D03*
D38*
X110250Y407500D02*
D03*
Y402500D02*
D03*
Y397500D02*
D03*
Y392500D02*
D03*
Y387500D02*
D03*
Y382500D02*
D03*
Y377500D02*
D03*
Y372500D02*
D03*
Y367500D02*
D03*
Y362500D02*
D03*
Y357500D02*
D03*
Y352500D02*
D03*
X93250Y355000D02*
D03*
Y360000D02*
D03*
Y365000D02*
D03*
Y370000D02*
D03*
Y375000D02*
D03*
Y380000D02*
D03*
Y385000D02*
D03*
Y390000D02*
D03*
Y395000D02*
D03*
Y400000D02*
D03*
Y405000D02*
D03*
Y410000D02*
D03*
D39*
X724462Y373380D02*
D03*
X738578D02*
D03*
D40*
X574586Y102870D02*
D03*
X560070D02*
D03*
X716280Y22860D02*
D03*
X730796D02*
D03*
X34858Y60960D02*
D03*
X20342D02*
D03*
D41*
X123190Y258344D02*
D03*
Y276860D02*
D03*
Y231508D02*
D03*
Y212992D02*
D03*
X684530Y410794D02*
D03*
Y429310D02*
D03*
D42*
X129540Y396600D02*
D03*
Y383400D02*
D03*
Y361800D02*
D03*
Y375000D02*
D03*
D43*
X199310Y139180D02*
D03*
Y159180D02*
D03*
X242570Y300830D02*
D03*
Y280830D02*
D03*
X320040Y300830D02*
D03*
Y280830D02*
D03*
X363220D02*
D03*
Y300830D02*
D03*
X225129Y139180D02*
D03*
Y159180D02*
D03*
X276860Y280830D02*
D03*
Y300830D02*
D03*
X532130Y169230D02*
D03*
Y189230D02*
D03*
X613410Y126840D02*
D03*
Y106840D02*
D03*
D44*
X335280Y422860D02*
D03*
Y403860D02*
D03*
X355480Y413360D02*
D03*
D49*
X649210Y279320D02*
D03*
D51*
X270080Y360310D02*
D03*
D57*
X103030Y125730D02*
D03*
D58*
X77630D02*
D03*
X52230D02*
D03*
D59*
X103650Y416000D02*
D03*
D60*
Y344000D02*
D03*
D61*
X91150Y421300D02*
D03*
Y338700D02*
D03*
X31650Y424900D02*
D03*
Y335100D02*
D03*
D67*
X697230Y65845D02*
Y75590D01*
X696188Y64804D02*
X697230Y65845D01*
X676750Y125730D02*
X678180Y124300D01*
Y65845D02*
Y124300D01*
X679222Y64804D02*
X696188D01*
X678180Y65845D02*
X679222Y64804D01*
X128640Y382500D02*
X129540Y383400D01*
X123540Y382500D02*
X128640D01*
X117906D02*
X123540D01*
X110250D02*
X117906D01*
X144870Y383400D02*
X152367D01*
X154875D01*
X142263D02*
X144870D01*
X154875D02*
X165040D01*
X172720Y387350D02*
X197940D01*
X168990D02*
X172720D01*
X141165Y375000D02*
X142263D01*
X129540Y383400D02*
X142263D01*
X46830Y312420D02*
X58759D01*
X59800Y313462D02*
Y362300D01*
X58759Y312420D02*
X59800Y313462D01*
X243612Y321310D02*
X250000D01*
X242570Y298536D02*
Y320268D01*
X243612Y321310D01*
X523240Y285750D02*
X532210Y294720D01*
X562810D01*
X523240Y254000D02*
Y285750D01*
X439340Y249962D02*
X440382Y248920D01*
X518160D01*
X439340Y249962D02*
Y256240D01*
X518160Y248920D02*
X523240Y254000D01*
X429340Y82610D02*
X458610Y53340D01*
X429340Y82610D02*
Y256240D01*
X59800Y362300D02*
X72500Y375000D01*
X231798Y366810D02*
X233310D01*
X234810Y365310D02*
X246080D01*
X233310Y366810D02*
X234810Y365310D01*
X72500Y375000D02*
X93250D01*
X68580Y324240D02*
Y344170D01*
X79410Y355000D01*
X93250D01*
X225129Y159180D02*
Y179070D01*
X165980Y378460D02*
X197940D01*
X156190Y375000D02*
X161006D01*
X140066D02*
X140194D01*
X142263D01*
X129540D02*
X137223D01*
X142263D02*
X149860D01*
X161006D02*
X162520D01*
X149860D02*
X156190D01*
X137223D02*
X140066D01*
X225129Y360161D02*
X242830D01*
X225129Y385810D02*
Y394605D01*
X229642Y399117D02*
X234897D01*
X225129Y394605D02*
X229642Y399117D01*
X234897D02*
X235830Y400050D01*
X270208Y399117D02*
X271141Y400050D01*
X270080Y387060D02*
X270208Y387188D01*
Y399117D01*
X120645Y376250D02*
X120945Y375950D01*
X121895Y375000D01*
X119395Y377500D02*
X120645Y376250D01*
X110250Y377500D02*
X119395D01*
X121895Y375000D02*
X129540D01*
X197940Y378460D02*
X220941Y355459D01*
X238641D01*
X238790Y355310D01*
X246080D01*
X242830Y360310D02*
X244580D01*
X197940Y387350D02*
X225129Y360161D01*
X162520Y375000D02*
X165980Y378460D01*
X165040Y383400D02*
X168990Y387350D01*
X505448Y188880D02*
X505460Y188868D01*
X481330Y188880D02*
X505448D01*
X363220Y300830D02*
Y313690D01*
X356870Y320040D02*
X363220Y313690D01*
X283210Y320040D02*
X356870D01*
X313690Y316230D02*
X320040Y309880D01*
X280356Y316230D02*
X313690D01*
X320040Y300830D02*
Y309880D01*
X270080Y329866D02*
X271270Y328676D01*
X274574D01*
X283210Y320040D01*
X270080Y329866D02*
Y333060D01*
X262620Y325120D02*
X271466D01*
X260289Y321310D02*
X269850D01*
X271466Y325120D02*
X280356Y316230D01*
X269850Y321310D02*
X276860Y314300D01*
X255024Y336254D02*
X255080Y336310D01*
X260080Y327660D02*
Y336310D01*
Y327660D02*
X262620Y325120D01*
X276860Y306070D02*
Y314300D01*
X255209Y326390D02*
X260289Y321310D01*
X250000D02*
X255080Y326390D01*
X255209D01*
X255080D02*
Y336310D01*
D68*
X17609Y64531D02*
X20342Y61797D01*
X6350Y71120D02*
X7322Y70148D01*
X20342Y60960D02*
Y61797D01*
X7322Y62528D02*
Y70148D01*
Y62528D02*
X8890Y60960D01*
X242570Y252730D02*
Y278158D01*
X231140Y241300D02*
X242570Y252730D01*
X161290Y241300D02*
X231140D01*
X146050Y256540D02*
X161290Y241300D01*
X124994Y256540D02*
X146050D01*
X715662Y406858D02*
Y466402D01*
X119502Y232983D02*
X122084Y230402D01*
X498837Y268967D02*
X499110Y269240D01*
X468630Y268694D02*
X468903Y268967D01*
X498837D01*
X34290Y60960D02*
Y71726D01*
X34858Y38177D02*
Y60960D01*
X27600Y30919D02*
X34858Y38177D01*
X27600Y30000D02*
Y30919D01*
X431340Y269240D02*
X436159D01*
X447340D01*
X421340Y279240D02*
X431340Y269240D01*
X363220Y257810D02*
Y280830D01*
X447340Y269240D02*
X468084D01*
X19050Y295910D02*
X54610D01*
X81670Y322970D01*
X537210Y307340D02*
X537250Y307380D01*
X562770D01*
X631056Y30480D02*
Y70266D01*
X636380Y75590D01*
X659130D01*
Y21590D02*
X671830D01*
X684530D01*
X631056Y8123D02*
X658363D01*
X659130Y8890D01*
X684530Y16840D02*
Y21590D01*
X659130Y8890D02*
Y21590D01*
X742633Y22543D02*
X742950Y22225D01*
X730796Y22860D02*
X730885D01*
X731520Y22225D01*
X731837Y22543D01*
X742633D01*
X716280Y22860D02*
Y43590D01*
X715645Y22225D02*
X716280Y22860D01*
X697230Y21590D02*
Y21765D01*
X697690Y22225D02*
X715645D01*
X697230Y21765D02*
X697690Y22225D01*
X733720Y441782D02*
X734141Y442203D01*
X733720Y412750D02*
Y441782D01*
X716120Y467360D02*
X735330D01*
X656750Y139860D02*
X664210Y147320D01*
X656750Y125730D02*
Y139860D01*
X468330Y188880D02*
Y219710D01*
X82334Y347250D02*
X95250D01*
X80400Y324240D02*
Y345316D01*
X82334Y347250D01*
X80400Y324240D02*
X110000Y294640D01*
X613410Y72940D02*
Y106840D01*
X99095Y280670D02*
X102905Y276860D01*
X97720Y280670D02*
X99095D01*
X102905Y276860D02*
X123190D01*
X735420Y101690D02*
Y124050D01*
Y101690D02*
X735670Y101440D01*
X735170Y124300D02*
X735420Y124050D01*
X584315Y27825D02*
X584430Y27710D01*
Y6350D02*
Y27710D01*
X332400Y7620D02*
Y30000D01*
X484800D02*
X484970Y29830D01*
Y6520D02*
Y29830D01*
Y6520D02*
X485140Y6350D01*
X123030Y60960D02*
X146050D01*
X8890D02*
X20342D01*
X8890Y311150D02*
X9525Y311785D01*
X26195D02*
X26830Y312420D01*
X9525Y311785D02*
X26195D01*
X52070Y143510D02*
X52150Y143430D01*
Y125810D02*
Y156130D01*
X129540Y396600D02*
Y407500D01*
X163220Y409102D02*
Y427250D01*
X704690Y373380D02*
Y383380D01*
X715010Y393700D01*
X500380Y345440D02*
Y421094D01*
X715010Y406206D02*
X715662Y406858D01*
X659130Y450850D02*
X659250Y450970D01*
Y467240D02*
X659370Y467360D01*
X659250Y450970D02*
Y467240D01*
X684530Y429310D02*
Y448894D01*
X146050Y258474D02*
Y288290D01*
X123190Y258344D02*
X124994Y256540D01*
X110000Y294640D02*
X139700D01*
X11430Y83055D02*
Y288290D01*
X19050Y295910D01*
X139700Y294640D02*
X146050Y288290D01*
X143378Y232246D02*
X144116Y232983D01*
X123190Y231508D02*
X123928Y232246D01*
X143378D01*
X98417Y232983D02*
X119502D01*
X97720Y233680D02*
X98417Y232983D01*
X11430Y83055D02*
X20825Y73660D01*
X32356D01*
X34290Y71726D01*
X97720Y256580D02*
X98417Y257277D01*
X122122D01*
X123190Y258344D01*
X320040Y259080D02*
Y280830D01*
X276860Y259080D02*
X276860Y259080D01*
Y280830D02*
X276860Y280830D01*
X276860Y259080D02*
Y280830D01*
X545517Y99060D02*
X549327Y102870D01*
X544830Y99060D02*
X545517D01*
X549327Y102870D02*
X560070D01*
X532130Y156210D02*
Y169230D01*
X505460Y160020D02*
Y174352D01*
X111125Y182343D02*
X112493D01*
X109757D02*
X111125D01*
X112493D02*
X123190Y193040D01*
Y210780D01*
X97790Y194310D02*
X109757Y182343D01*
X97790Y194310D02*
Y210710D01*
X97720Y210780D02*
X97790Y210710D01*
X562770Y307380D02*
X562810Y307420D01*
X588010Y147320D02*
Y162820D01*
X740410Y147320D02*
Y162820D01*
X715010Y393700D02*
Y406206D01*
Y393700D02*
X724462Y384248D01*
Y373380D02*
Y384248D01*
X733720Y389890D02*
Y406400D01*
Y389890D02*
X738578Y385032D01*
Y373380D02*
Y385032D01*
Y362512D02*
X746760Y354330D01*
X738578Y362512D02*
Y373380D01*
X740410Y337820D02*
Y340820D01*
X746760Y347170D02*
Y354330D01*
X740410Y340820D02*
X746760Y347170D01*
X724462Y356308D02*
Y373380D01*
Y356308D02*
X727710Y353060D01*
Y337820D02*
Y353060D01*
X186690Y348088D02*
Y364490D01*
Y317500D02*
Y333572D01*
D69*
X184150Y260350D02*
Y278492D01*
X213360Y260350D02*
Y278492D01*
Y333572D02*
Y333572D01*
Y317500D02*
Y333572D01*
X212231Y334701D02*
X213360D01*
Y333572D02*
Y334701D01*
X212231D02*
X213360Y333572D01*
X34858Y60960D02*
X64520D01*
X34290D02*
X34858D01*
X458470Y303530D02*
X468084D01*
X454660Y299720D02*
X458470Y303530D01*
X468084Y283756D02*
Y303530D01*
Y283756D02*
X468630Y283210D01*
X454660Y282240D02*
Y299720D01*
X451660Y279240D02*
X454660Y282240D01*
X447340Y279240D02*
X451660D01*
X436880Y299640D02*
Y299720D01*
Y298483D02*
Y299640D01*
Y298483D02*
X439340Y296023D01*
Y282240D02*
Y296023D01*
X429340Y292100D02*
X436880Y299640D01*
X429340Y282240D02*
Y292100D01*
D70*
X199310Y159180D02*
Y179070D01*
X200585Y401424D02*
X208100Y408940D01*
X199587Y401424D02*
X200585D01*
X208100Y408940D02*
X228600D01*
X261620Y407359D02*
Y408940D01*
X265080Y384310D02*
Y403899D01*
X261620Y407359D02*
X265080Y403899D01*
D71*
X526300Y435970D02*
D03*
X591300D02*
D03*
Y480970D02*
D03*
X584430Y72940D02*
D03*
X519430D02*
D03*
Y27940D02*
D03*
D72*
X526300Y480970D02*
D03*
X584430Y27940D02*
D03*
D73*
X27600Y30000D02*
D03*
X53000D02*
D03*
X78400D02*
D03*
X103800D02*
D03*
X129200D02*
D03*
X154600D02*
D03*
X180000D02*
D03*
X205400D02*
D03*
X230800D02*
D03*
X256200D02*
D03*
X281600D02*
D03*
X307000D02*
D03*
X332400D02*
D03*
X357800D02*
D03*
X383200D02*
D03*
X408600D02*
D03*
X434000D02*
D03*
X459400D02*
D03*
X24130Y480060D02*
D03*
X49530D02*
D03*
X74930D02*
D03*
X100330D02*
D03*
X125730D02*
D03*
X151130D02*
D03*
X176530D02*
D03*
X201930D02*
D03*
X227330D02*
D03*
X252730D02*
D03*
X278130D02*
D03*
X303530D02*
D03*
X328930D02*
D03*
X354330D02*
D03*
X379730D02*
D03*
X405130D02*
D03*
X430530D02*
D03*
X455930D02*
D03*
D74*
X484800Y30000D02*
D03*
X481330Y480060D02*
D03*
D75*
X662940Y251320D02*
D03*
X676910D02*
D03*
Y265430D02*
D03*
Y279400D02*
D03*
X662940D02*
D03*
Y265320D02*
D03*
X648970Y251320D02*
D03*
Y265320D02*
D03*
X649210Y279320D02*
D03*
X269332Y359614D02*
D03*
X280962Y349614D02*
D03*
X259104Y349729D02*
D03*
X280962Y370540D02*
D03*
X259230Y370459D02*
D03*
X184150Y260350D02*
D03*
X213360D02*
D03*
Y317500D02*
D03*
X160020Y304800D02*
D03*
X499110Y269240D02*
D03*
X468084Y303530D02*
D03*
X436880Y299720D02*
D03*
X414020Y295830D02*
D03*
X537210Y307340D02*
D03*
X631056Y30480D02*
D03*
Y8123D02*
D03*
X506730Y486410D02*
D03*
X734141Y442203D02*
D03*
X664210Y147320D02*
D03*
X231798Y366810D02*
D03*
X468330Y219710D02*
D03*
X68580Y324240D02*
D03*
X716280Y43590D02*
D03*
X584430Y6350D02*
D03*
X485140D02*
D03*
X73660Y439420D02*
D03*
X129540Y353361D02*
D03*
Y407500D02*
D03*
X163220Y427250D02*
D03*
X661670Y407670D02*
D03*
X500380Y345440D02*
D03*
X508630Y471170D02*
D03*
X449580Y345440D02*
D03*
X370840Y354330D02*
D03*
X401491Y149860D02*
D03*
X199310Y179070D02*
D03*
X225129D02*
D03*
X199587Y401424D02*
D03*
X225129Y385810D02*
D03*
X235830Y400050D02*
D03*
X228600Y408940D02*
D03*
X271141Y400050D02*
D03*
X261620Y408940D02*
D03*
X91440Y436920D02*
D03*
X544830Y99060D02*
D03*
X532130Y156210D02*
D03*
X742950Y22225D02*
D03*
X575310Y149860D02*
D03*
X505460Y160020D02*
D03*
X547370Y205740D02*
D03*
X588010Y147320D02*
D03*
X600710D02*
D03*
X613410D02*
D03*
X626110D02*
D03*
X638810D02*
D03*
X651510D02*
D03*
X676910D02*
D03*
X689610D02*
D03*
X702310D02*
D03*
X715010D02*
D03*
X727710D02*
D03*
X740410D02*
D03*
X676910Y353060D02*
D03*
X638810D02*
D03*
X651510D02*
D03*
X664210D02*
D03*
X626110D02*
D03*
X613410D02*
D03*
X689610D02*
D03*
X702310D02*
D03*
X715010D02*
D03*
X575310D02*
D03*
X600710D02*
D03*
X588010D02*
D03*
D76*
X151130Y454660D02*
D03*
X6350Y71120D02*
D03*
X410857Y56445D02*
D03*
X435045D02*
D03*
X363220Y257810D02*
D03*
X447453Y92710D02*
D03*
X458610Y53340D02*
D03*
X735330Y467360D02*
D03*
X613410Y72940D02*
D03*
X97720Y280670D02*
D03*
X735670Y101440D02*
D03*
X329321Y9395D02*
D03*
X146050Y60960D02*
D03*
X8890Y311150D02*
D03*
X52070Y156210D02*
D03*
X659130Y450850D02*
D03*
X684530Y448894D02*
D03*
X144116Y232983D02*
D03*
X320040Y259080D02*
D03*
X276860Y259080D02*
D03*
X111125Y182343D02*
D03*
X186690Y317500D02*
D03*
D77*
Y364490D02*
D03*
M02*
