G04*
G04 #@! TF.GenerationSoftware,Altium Limited,Altium Designer,24.7.2 (38)*
G04*
G04 Layer_Color=8388736*
%FSLAX44Y44*%
%MOMM*%
G71*
G04*
G04 #@! TF.SameCoordinates,1D9A9799-C8E3-4473-89B4-75341A8A5718*
G04*
G04*
G04 #@! TF.FilePolarity,Negative*
G04*
G01*
G75*
%ADD21R,0.6000X0.8000*%
%ADD22R,0.8000X0.8000*%
%ADD23R,0.9000X1.5000*%
%ADD24R,1.5000X0.9000*%
%ADD25R,0.9000X0.9000*%
G04:AMPARAMS|DCode=27|XSize=1.55mm|YSize=0.6mm|CornerRadius=0.051mm|HoleSize=0mm|Usage=FLASHONLY|Rotation=270.000|XOffset=0mm|YOffset=0mm|HoleType=Round|Shape=RoundedRectangle|*
%AMROUNDEDRECTD27*
21,1,1.5500,0.4980,0,0,270.0*
21,1,1.4480,0.6000,0,0,270.0*
1,1,0.1020,-0.2490,-0.7240*
1,1,0.1020,-0.2490,0.7240*
1,1,0.1020,0.2490,0.7240*
1,1,0.1020,0.2490,-0.7240*
%
%ADD27ROUNDEDRECTD27*%
%ADD28C,0.2700*%
%ADD29R,1.3562X1.0546*%
%ADD30R,1.4546X1.5562*%
%ADD31R,0.4000X0.4000*%
%ADD32R,0.4000X0.2000*%
%ADD33R,1.0043X0.8721*%
G04:AMPARAMS|DCode=34|XSize=1.0043mm|YSize=0.8721mm|CornerRadius=0.4361mm|HoleSize=0mm|Usage=FLASHONLY|Rotation=180.000|XOffset=0mm|YOffset=0mm|HoleType=Round|Shape=RoundedRectangle|*
%AMROUNDEDRECTD34*
21,1,1.0043,0.0000,0,0,180.0*
21,1,0.1322,0.8721,0,0,180.0*
1,1,0.8721,-0.0661,0.0000*
1,1,0.8721,0.0661,0.0000*
1,1,0.8721,0.0661,0.0000*
1,1,0.8721,-0.0661,0.0000*
%
%ADD34ROUNDEDRECTD34*%
G04:AMPARAMS|DCode=35|XSize=1.0043mm|YSize=3.1821mm|CornerRadius=0.4369mm|HoleSize=0mm|Usage=FLASHONLY|Rotation=180.000|XOffset=0mm|YOffset=0mm|HoleType=Round|Shape=RoundedRectangle|*
%AMROUNDEDRECTD35*
21,1,1.0043,2.3084,0,0,180.0*
21,1,0.1306,3.1821,0,0,180.0*
1,1,0.8737,-0.0653,1.1542*
1,1,0.8737,0.0653,1.1542*
1,1,0.8737,0.0653,-1.1542*
1,1,0.8737,-0.0653,-1.1542*
%
%ADD35ROUNDEDRECTD35*%
%ADD36R,0.5780X1.5242*%
G04:AMPARAMS|DCode=37|XSize=1.5242mm|YSize=0.578mm|CornerRadius=0.289mm|HoleSize=0mm|Usage=FLASHONLY|Rotation=270.000|XOffset=0mm|YOffset=0mm|HoleType=Round|Shape=RoundedRectangle|*
%AMROUNDEDRECTD37*
21,1,1.5242,0.0000,0,0,270.0*
21,1,0.9463,0.5780,0,0,270.0*
1,1,0.5780,0.0000,-0.4731*
1,1,0.5780,0.0000,0.4731*
1,1,0.5780,0.0000,0.4731*
1,1,0.5780,0.0000,-0.4731*
%
%ADD37ROUNDEDRECTD37*%
%ADD38R,0.7000X0.3000*%
%ADD39R,1.1046X1.3562*%
%ADD40R,1.0546X1.3562*%
%ADD41R,1.5562X1.4546*%
%ADD44R,0.8000X0.6000*%
%ADD45R,0.3516X0.6016*%
%ADD46R,0.6016X0.3516*%
%ADD47R,1.3016X1.5516*%
%ADD48R,0.5816X0.5016*%
%ADD49R,0.5080X0.5080*%
G04:AMPARAMS|DCode=50|XSize=1.7532mm|YSize=0.8032mm|CornerRadius=0.1526mm|HoleSize=0mm|Usage=FLASHONLY|Rotation=270.000|XOffset=0mm|YOffset=0mm|HoleType=Round|Shape=RoundedRectangle|*
%AMROUNDEDRECTD50*
21,1,1.7532,0.4980,0,0,270.0*
21,1,1.4480,0.8032,0,0,270.0*
1,1,0.3052,-0.2490,-0.7240*
1,1,0.3052,-0.2490,0.7240*
1,1,0.3052,0.2490,0.7240*
1,1,0.3052,0.2490,-0.7240*
%
%ADD50ROUNDEDRECTD50*%
%ADD51C,3.0150*%
%ADD52R,0.5016X0.5816*%
%ADD53R,1.5516X1.3016*%
%ADD54C,1.7032*%
%ADD55C,1.6016*%
%ADD56R,1.6016X1.6016*%
%ADD57R,2.1500X2.1500*%
%ADD58C,2.1500*%
%ADD59C,0.6500*%
G04:AMPARAMS|DCode=60|XSize=0.95mm|YSize=0.65mm|CornerRadius=0.325mm|HoleSize=0mm|Usage=FLASHONLY|Rotation=270.000|XOffset=0mm|YOffset=0mm|HoleType=Round|Shape=RoundedRectangle|*
%AMROUNDEDRECTD60*
21,1,0.9500,0.0000,0,0,270.0*
21,1,0.3000,0.6500,0,0,270.0*
1,1,0.6500,0.0000,-0.1500*
1,1,0.6500,0.0000,0.1500*
1,1,0.6500,0.0000,0.1500*
1,1,0.6500,0.0000,-0.1500*
%
%ADD60ROUNDEDRECTD60*%
G04:AMPARAMS|DCode=61|XSize=0.8mm|YSize=1.4mm|CornerRadius=0.4mm|HoleSize=0mm|Usage=FLASHONLY|Rotation=270.000|XOffset=0mm|YOffset=0mm|HoleType=Round|Shape=RoundedRectangle|*
%AMROUNDEDRECTD61*
21,1,0.8000,0.6000,0,0,270.0*
21,1,0.0000,1.4000,0,0,270.0*
1,1,0.8000,-0.3000,0.0000*
1,1,0.8000,-0.3000,0.0000*
1,1,0.8000,0.3000,0.0000*
1,1,0.8000,0.3000,0.0000*
%
%ADD61ROUNDEDRECTD61*%
%ADD62C,1.4716*%
%ADD63R,1.4716X1.4716*%
%ADD64C,0.8636*%
%ADD65C,1.1176*%
%ADD66C,1.3716*%
G36*
X286580Y381060D02*
Y380762D01*
X286352Y380210D01*
X285930Y379788D01*
X285378Y379560D01*
X284782D01*
X284230Y379788D01*
X283808Y380210D01*
X283580Y380762D01*
Y381060D01*
Y389060D01*
X286580D01*
Y381060D01*
D02*
G37*
G36*
X281580D02*
Y380762D01*
X281352Y380210D01*
X280930Y379788D01*
X280378Y379560D01*
X279782D01*
X279230Y379788D01*
X278808Y380210D01*
X278580Y380762D01*
Y381060D01*
Y389060D01*
X281580D01*
Y381060D01*
D02*
G37*
G36*
X276580D02*
Y380762D01*
X276352Y380210D01*
X275930Y379788D01*
X275378Y379560D01*
X274782D01*
X274230Y379788D01*
X273808Y380210D01*
X273580Y380762D01*
Y381060D01*
Y389060D01*
X276580D01*
X276580Y381060D01*
D02*
G37*
G36*
X271580D02*
Y380762D01*
X271352Y380210D01*
X270930Y379788D01*
X270378Y379560D01*
X269782D01*
X269230Y379788D01*
X268808Y380210D01*
X268580Y380762D01*
Y381060D01*
Y389060D01*
X271580D01*
Y381060D01*
D02*
G37*
G36*
X266580D02*
Y380762D01*
X266352Y380210D01*
X265930Y379788D01*
X265378Y379560D01*
X264782D01*
X264230Y379788D01*
X263808Y380210D01*
X263580Y380762D01*
Y381060D01*
X263580D01*
Y389060D01*
X266580D01*
Y381060D01*
D02*
G37*
G36*
X261580D02*
Y380762D01*
X261352Y380210D01*
X260930Y379788D01*
X260378Y379560D01*
X259782D01*
X259230Y379788D01*
X258808Y380210D01*
X258580Y380762D01*
Y381060D01*
Y389060D01*
X261580D01*
Y381060D01*
D02*
G37*
G36*
X256580D02*
Y380762D01*
X256352Y380210D01*
X255930Y379788D01*
X255378Y379560D01*
X254782D01*
X254230Y379788D01*
X253808Y380210D01*
X253580Y380762D01*
Y381060D01*
Y389060D01*
X256580D01*
Y381060D01*
D02*
G37*
G36*
X298830Y373810D02*
X290532D01*
X289980Y374038D01*
X289558Y374460D01*
X289330Y375012D01*
Y375310D01*
Y375608D01*
X289558Y376160D01*
X289980Y376582D01*
X290532Y376810D01*
X298830D01*
Y373810D01*
D02*
G37*
G36*
X250180Y376582D02*
X250602Y376160D01*
X250830Y375608D01*
Y375310D01*
Y375012D01*
X250602Y374460D01*
X250180Y374038D01*
X249628Y373810D01*
X241330D01*
Y376810D01*
X249628D01*
X250180Y376582D01*
D02*
G37*
G36*
X298830Y368810D02*
X290532D01*
X289980Y369038D01*
X289558Y369460D01*
X289330Y370012D01*
Y370310D01*
Y370608D01*
X289558Y371160D01*
X289980Y371582D01*
X290532Y371810D01*
X298830D01*
Y368810D01*
D02*
G37*
G36*
X250180Y371582D02*
X250602Y371160D01*
X250830Y370608D01*
Y370310D01*
Y370012D01*
X250602Y369460D01*
X250180Y369038D01*
X249628Y368810D01*
X241330D01*
Y371810D01*
X249628D01*
X250180Y371582D01*
D02*
G37*
G36*
X298830Y363810D02*
X290532D01*
X289980Y364038D01*
X289558Y364460D01*
X289330Y365012D01*
Y365310D01*
Y365608D01*
X289558Y366160D01*
X289980Y366582D01*
X290532Y366810D01*
X290830D01*
Y366810D01*
X298830D01*
Y363810D01*
D02*
G37*
G36*
X249330Y366810D02*
X249628D01*
X250180Y366582D01*
X250602Y366160D01*
X250830Y365608D01*
Y365310D01*
Y365012D01*
X250602Y364460D01*
X250180Y364038D01*
X249628Y363810D01*
X241330D01*
Y366810D01*
X249330Y366810D01*
D02*
G37*
G36*
X298830Y358810D02*
X290532D01*
X289980Y359038D01*
X289558Y359460D01*
X289330Y360012D01*
Y360310D01*
Y360608D01*
X289558Y361160D01*
X289980Y361582D01*
X290532Y361810D01*
X298830D01*
Y358810D01*
D02*
G37*
G36*
X250180Y361582D02*
X250602Y361160D01*
X250830Y360608D01*
Y360310D01*
Y360012D01*
X250602Y359460D01*
X250180Y359038D01*
X249628Y358810D01*
X241330D01*
Y361810D01*
X249628D01*
X250180Y361582D01*
D02*
G37*
G36*
X298830Y353810D02*
X290830Y353810D01*
X290532D01*
X289980Y354038D01*
X289558Y354460D01*
X289330Y355012D01*
Y355310D01*
Y355608D01*
X289558Y356160D01*
X289980Y356582D01*
X290532Y356810D01*
X298830D01*
Y353810D01*
D02*
G37*
G36*
X250180Y356582D02*
X250602Y356160D01*
X250830Y355608D01*
Y355310D01*
Y355012D01*
X250602Y354460D01*
X250180Y354038D01*
X249628Y353810D01*
X249330D01*
Y353810D01*
X241330D01*
Y356810D01*
X249628D01*
X250180Y356582D01*
D02*
G37*
G36*
X298830Y348810D02*
X290532D01*
X289980Y349038D01*
X289558Y349460D01*
X289330Y350012D01*
Y350310D01*
Y350608D01*
X289558Y351160D01*
X289980Y351582D01*
X290532Y351810D01*
X298830D01*
Y348810D01*
D02*
G37*
G36*
X250180Y351582D02*
X250602Y351160D01*
X250830Y350608D01*
Y350310D01*
Y350012D01*
X250602Y349460D01*
X250180Y349038D01*
X249628Y348810D01*
X241330D01*
Y351810D01*
X249628D01*
X250180Y351582D01*
D02*
G37*
G36*
X298830Y343810D02*
X290532D01*
X289980Y344038D01*
X289558Y344460D01*
X289330Y345012D01*
Y345310D01*
Y345608D01*
X289558Y346160D01*
X289980Y346582D01*
X290532Y346810D01*
X298830D01*
Y343810D01*
D02*
G37*
G36*
X250180Y346582D02*
X250602Y346160D01*
X250830Y345608D01*
Y345310D01*
Y345012D01*
X250602Y344460D01*
X250180Y344038D01*
X249628Y343810D01*
X241330D01*
Y346810D01*
X249628D01*
X250180Y346582D01*
D02*
G37*
G36*
X286830Y343560D02*
X253330D01*
Y373560D01*
X256830Y377060D01*
X286830D01*
Y343560D01*
D02*
G37*
G36*
X285930Y340832D02*
X286352Y340410D01*
X286580Y339858D01*
Y339560D01*
Y331560D01*
X283580D01*
Y339560D01*
Y339858D01*
X283808Y340410D01*
X284230Y340832D01*
X284782Y341060D01*
X285378D01*
X285930Y340832D01*
D02*
G37*
G36*
X280930D02*
X281352Y340410D01*
X281580Y339858D01*
Y339560D01*
Y331560D01*
X278580D01*
Y339560D01*
Y339858D01*
X278808Y340410D01*
X279230Y340832D01*
X279782Y341060D01*
X280378D01*
X280930Y340832D01*
D02*
G37*
G36*
X275930D02*
X276352Y340410D01*
X276580Y339858D01*
Y339560D01*
X276580D01*
Y331560D01*
X273580D01*
Y339560D01*
Y339858D01*
X273808Y340410D01*
X274230Y340832D01*
X274782Y341060D01*
X275378D01*
X275930Y340832D01*
D02*
G37*
G36*
X270930D02*
X271352Y340410D01*
X271580Y339858D01*
Y339560D01*
Y331560D01*
X268580D01*
Y339560D01*
Y339858D01*
X268808Y340410D01*
X269230Y340832D01*
X269782Y341060D01*
X270378D01*
X270930Y340832D01*
D02*
G37*
G36*
X265930D02*
X266352Y340410D01*
X266580Y339858D01*
Y339560D01*
Y331560D01*
X263580D01*
X263580Y339560D01*
Y339858D01*
X263808Y340410D01*
X264230Y340832D01*
X264782Y341060D01*
X265378D01*
X265930Y340832D01*
D02*
G37*
G36*
X260930D02*
X261352Y340410D01*
X261580Y339858D01*
Y339560D01*
Y331560D01*
X258580D01*
Y339560D01*
Y339858D01*
X258808Y340410D01*
X259230Y340832D01*
X259782Y341060D01*
X260378D01*
X260930Y340832D01*
D02*
G37*
G36*
X255930D02*
X256352Y340410D01*
X256580Y339858D01*
Y339560D01*
Y331560D01*
X253580D01*
Y339560D01*
Y339858D01*
X253808Y340410D01*
X254230Y340832D01*
X254782Y341060D01*
X255378D01*
X255930Y340832D01*
D02*
G37*
D21*
X354940Y356810D02*
D03*
X335940D02*
D03*
X345440Y336610D02*
D03*
D22*
X659370Y467360D02*
D03*
X674370D02*
D03*
D23*
X740410Y337820D02*
D03*
X727710D02*
D03*
X715010D02*
D03*
X702310D02*
D03*
X689610D02*
D03*
X676910D02*
D03*
X664210D02*
D03*
X651510D02*
D03*
X638810D02*
D03*
X626110D02*
D03*
X613410D02*
D03*
X600710D02*
D03*
X588010D02*
D03*
X575310D02*
D03*
Y162820D02*
D03*
X588010D02*
D03*
X600710D02*
D03*
X613410D02*
D03*
X626110D02*
D03*
X638810D02*
D03*
X651510D02*
D03*
X664210D02*
D03*
X676910D02*
D03*
X689610D02*
D03*
X702310D02*
D03*
X715010D02*
D03*
X727710D02*
D03*
X740410D02*
D03*
D24*
X562810Y307420D02*
D03*
Y294720D02*
D03*
Y282020D02*
D03*
Y269320D02*
D03*
Y256620D02*
D03*
Y243920D02*
D03*
Y231220D02*
D03*
Y218520D02*
D03*
Y205820D02*
D03*
Y193120D02*
D03*
D25*
X677210Y279320D02*
D03*
Y265320D02*
D03*
Y251320D02*
D03*
X663210Y279320D02*
D03*
Y265320D02*
D03*
Y251320D02*
D03*
X649210Y265320D02*
D03*
Y251320D02*
D03*
D27*
X684530Y75590D02*
D03*
X671830D02*
D03*
X659130D02*
D03*
Y21590D02*
D03*
X671830D02*
D03*
X684530D02*
D03*
X697230D02*
D03*
D28*
X246080Y375310D02*
D03*
Y370310D02*
D03*
Y365310D02*
D03*
X242830Y360310D02*
D03*
X246080Y355310D02*
D03*
Y350310D02*
D03*
Y345310D02*
D03*
X255080Y336310D02*
D03*
X260080D02*
D03*
X265080D02*
D03*
X270080Y333060D02*
D03*
X275080Y336310D02*
D03*
X280080D02*
D03*
X285080D02*
D03*
X294080Y345310D02*
D03*
Y350310D02*
D03*
Y355310D02*
D03*
X296830Y360310D02*
D03*
X294080Y365310D02*
D03*
Y370310D02*
D03*
Y375310D02*
D03*
X285080Y384310D02*
D03*
X280080D02*
D03*
X275080D02*
D03*
X270080Y387060D02*
D03*
X265080Y384310D02*
D03*
X260080D02*
D03*
X255080D02*
D03*
D29*
X213360Y278492D02*
D03*
Y293008D02*
D03*
X505460Y188868D02*
D03*
Y174352D02*
D03*
X186690Y348088D02*
D03*
Y333572D02*
D03*
X500380Y435610D02*
D03*
Y421094D02*
D03*
X213360Y348088D02*
D03*
Y333572D02*
D03*
X468630Y268694D02*
D03*
Y283210D02*
D03*
X184150Y278492D02*
D03*
Y293008D02*
D03*
D30*
X715204Y412750D02*
D03*
X733720D02*
D03*
D31*
X468330Y188880D02*
D03*
Y176880D02*
D03*
X481330D02*
D03*
Y188880D02*
D03*
D32*
X468330Y182880D02*
D03*
X481330D02*
D03*
D33*
X97720Y210780D02*
D03*
D34*
Y233680D02*
D03*
Y256580D02*
D03*
D35*
X31820Y233680D02*
D03*
D36*
X182220Y409102D02*
D03*
D37*
X163220D02*
D03*
X172720Y390898D02*
D03*
D38*
X110250Y407500D02*
D03*
Y402500D02*
D03*
Y397500D02*
D03*
Y392500D02*
D03*
Y387500D02*
D03*
Y382500D02*
D03*
Y377500D02*
D03*
Y372500D02*
D03*
Y367500D02*
D03*
Y362500D02*
D03*
Y357500D02*
D03*
Y352500D02*
D03*
X93250Y355000D02*
D03*
Y360000D02*
D03*
Y365000D02*
D03*
Y370000D02*
D03*
Y375000D02*
D03*
Y380000D02*
D03*
Y385000D02*
D03*
Y390000D02*
D03*
Y395000D02*
D03*
Y400000D02*
D03*
Y405000D02*
D03*
Y410000D02*
D03*
D39*
X724462Y373380D02*
D03*
X738578D02*
D03*
D40*
X574586Y102870D02*
D03*
X560070D02*
D03*
X716280Y22860D02*
D03*
X730796D02*
D03*
X34858Y60960D02*
D03*
X20342D02*
D03*
D41*
X123190Y258344D02*
D03*
Y276860D02*
D03*
Y231508D02*
D03*
Y212992D02*
D03*
X684530Y410794D02*
D03*
Y429310D02*
D03*
D44*
X335280Y422860D02*
D03*
Y403860D02*
D03*
X355480Y413360D02*
D03*
D45*
X434340Y282240D02*
D03*
Y256240D02*
D03*
X439340D02*
D03*
X429340D02*
D03*
X439340Y282240D02*
D03*
X429340D02*
D03*
D46*
X447340Y269240D02*
D03*
X421340D02*
D03*
X447340Y279240D02*
D03*
Y259240D02*
D03*
X421340D02*
D03*
Y279240D02*
D03*
D47*
X704690Y373380D02*
D03*
X684690D02*
D03*
X715170Y124300D02*
D03*
X735170D02*
D03*
X676750Y125730D02*
D03*
X656750D02*
D03*
X123030Y60960D02*
D03*
X103030D02*
D03*
X696120Y467360D02*
D03*
X716120D02*
D03*
X26830Y312420D02*
D03*
X46830D02*
D03*
X336343Y447247D02*
D03*
X356343D02*
D03*
X336550Y381000D02*
D03*
X356550D02*
D03*
D48*
X64520Y60960D02*
D03*
X77720D02*
D03*
X61210Y439420D02*
D03*
X48010D02*
D03*
D49*
X649210Y279320D02*
D03*
D50*
X697230Y75590D02*
D03*
D51*
X270080Y360310D02*
D03*
D52*
X129540Y396600D02*
D03*
Y383400D02*
D03*
Y361800D02*
D03*
Y375000D02*
D03*
D53*
X199310Y139180D02*
D03*
Y159180D02*
D03*
X242570Y300830D02*
D03*
Y280830D02*
D03*
X320040Y300830D02*
D03*
Y280830D02*
D03*
X363220D02*
D03*
Y300830D02*
D03*
X225129Y139180D02*
D03*
Y159180D02*
D03*
X276860Y280830D02*
D03*
Y300830D02*
D03*
X532130Y169230D02*
D03*
Y189230D02*
D03*
X613410Y126840D02*
D03*
Y106840D02*
D03*
D54*
X526300Y435970D02*
D03*
X584430Y72940D02*
D03*
D55*
X591300Y435970D02*
D03*
Y480970D02*
D03*
X519430Y72940D02*
D03*
Y27940D02*
D03*
D56*
X526300Y480970D02*
D03*
X584430Y27940D02*
D03*
D57*
X103030Y125730D02*
D03*
D58*
X77630D02*
D03*
X52230D02*
D03*
D59*
X103650Y416000D02*
D03*
D60*
Y344000D02*
D03*
D61*
X91150Y421300D02*
D03*
Y338700D02*
D03*
X31650Y424900D02*
D03*
Y335100D02*
D03*
D62*
X27600Y30000D02*
D03*
X53000D02*
D03*
X78400D02*
D03*
X103800D02*
D03*
X129200D02*
D03*
X154600D02*
D03*
X180000D02*
D03*
X205400D02*
D03*
X230800D02*
D03*
X256200D02*
D03*
X281600D02*
D03*
X307000D02*
D03*
X332400D02*
D03*
X357800D02*
D03*
X383200D02*
D03*
X408600D02*
D03*
X434000D02*
D03*
X459400D02*
D03*
X24130Y480060D02*
D03*
X49530D02*
D03*
X74930D02*
D03*
X100330D02*
D03*
X125730D02*
D03*
X151130D02*
D03*
X176530D02*
D03*
X201930D02*
D03*
X227330D02*
D03*
X252730D02*
D03*
X278130D02*
D03*
X303530D02*
D03*
X328930D02*
D03*
X354330D02*
D03*
X379730D02*
D03*
X405130D02*
D03*
X430530D02*
D03*
X455930D02*
D03*
D63*
X484800Y30000D02*
D03*
X481330Y480060D02*
D03*
D64*
X662940Y251320D02*
D03*
X676910D02*
D03*
Y265430D02*
D03*
Y279400D02*
D03*
X662940D02*
D03*
Y265320D02*
D03*
X648970Y251320D02*
D03*
Y265320D02*
D03*
X649210Y279320D02*
D03*
X269332Y359614D02*
D03*
X280962Y349614D02*
D03*
X259104Y349729D02*
D03*
X280962Y370540D02*
D03*
X259230Y370459D02*
D03*
X184150Y260350D02*
D03*
X213360D02*
D03*
Y317500D02*
D03*
X160020Y304800D02*
D03*
X499110Y269240D02*
D03*
X468084Y303530D02*
D03*
X436880Y299720D02*
D03*
X414020Y295830D02*
D03*
X537210Y307340D02*
D03*
X631056Y30480D02*
D03*
Y8123D02*
D03*
X506730Y486410D02*
D03*
X734141Y442203D02*
D03*
X664210Y147320D02*
D03*
X231798Y366810D02*
D03*
X468330Y219710D02*
D03*
X68580Y324240D02*
D03*
X716280Y43590D02*
D03*
X584430Y6350D02*
D03*
X485140D02*
D03*
X73660Y439420D02*
D03*
X129540Y353361D02*
D03*
Y407500D02*
D03*
X163220Y427250D02*
D03*
X661670Y407670D02*
D03*
X500380Y345440D02*
D03*
X508630Y471170D02*
D03*
X449580Y345440D02*
D03*
X370840Y354330D02*
D03*
X401491Y149860D02*
D03*
X199310Y179070D02*
D03*
X225129D02*
D03*
X199587Y401424D02*
D03*
X225129Y385810D02*
D03*
X235830Y400050D02*
D03*
X228600Y408940D02*
D03*
X271141Y400050D02*
D03*
X261620Y408940D02*
D03*
X91440Y436920D02*
D03*
X544830Y99060D02*
D03*
X532130Y156210D02*
D03*
X742950Y22225D02*
D03*
X575310Y149860D02*
D03*
X505460Y160020D02*
D03*
X547370Y205740D02*
D03*
X588010Y147320D02*
D03*
X600710D02*
D03*
X613410D02*
D03*
X626110D02*
D03*
X638810D02*
D03*
X651510D02*
D03*
X676910D02*
D03*
X689610D02*
D03*
X702310D02*
D03*
X715010D02*
D03*
X727710D02*
D03*
X740410D02*
D03*
X676910Y353060D02*
D03*
X638810D02*
D03*
X651510D02*
D03*
X664210D02*
D03*
X626110D02*
D03*
X613410D02*
D03*
X689610D02*
D03*
X702310D02*
D03*
X715010D02*
D03*
X575310D02*
D03*
X600710D02*
D03*
X588010D02*
D03*
D65*
X151130Y454660D02*
D03*
X6350Y71120D02*
D03*
X410857Y56445D02*
D03*
X435045D02*
D03*
X363220Y257810D02*
D03*
X447453Y92710D02*
D03*
X458610Y53340D02*
D03*
X735330Y467360D02*
D03*
X613410Y72940D02*
D03*
X97720Y280670D02*
D03*
X735670Y101440D02*
D03*
X329321Y9395D02*
D03*
X146050Y60960D02*
D03*
X8890Y311150D02*
D03*
X52070Y156210D02*
D03*
X659130Y450850D02*
D03*
X684530Y448894D02*
D03*
X144116Y232983D02*
D03*
X320040Y259080D02*
D03*
X276860Y259080D02*
D03*
X111125Y182343D02*
D03*
X186690Y317500D02*
D03*
D66*
Y364490D02*
D03*
M02*
